<?xml version="1.0" encoding="utf-8" ?>
<svg baseProfile="full" height="200mm" version="1.1" viewBox="0,0,200,200" width="200mm" xmlns="http://www.w3.org/2000/svg" xmlns:ev="http://www.w3.org/2001/xml-events" xmlns:xlink="http://www.w3.org/1999/xlink"><defs /><rect fill="#1a1a1a" height="200" width="200" x="0" y="0" /><text alignment-baseline="middle" fill="#e1ed5e" style="dominant-baseline: central; font-size:9.0px; font-family:Arial;" text-anchor="middle" x="100.0" y="100.0">2019</text><line stroke="#e1ed5e" stroke-width="0.3" x1="100.0" x2="100.0" y1="15.0" y2="10.0" /><path d="M 100.0 14.0 a86.0,86.0 0 0,1 42.46469731375804,11.215312516191453" fill="none" id="id49" stroke="none" /><text fill="#e1ed5e" style="font-size:6.75px; font-family:Arial;" text-anchor="middle"><textPath startOffset="22.20632615414155" xlink:href="#id49">January</textPath></text><path d="M 101.08401301168833 79.027996857942 l 0.14434660766747726 -2.792621008149047 a23.796349055161123,23.796349055161123 0 0,0 0.4088869446743703,0.024665177124568935 l -0.19239560118145949 2.7897225616441736" fill="#ff1c02" stroke="none" /><path d="M 105.01212808612495 79.60689891045804 l 0.6209530051453783 -2.5265031515934164 a23.60169191289256,23.60169191289256 0 0,0 0.3936887090038472,0.10036001776984607 l -0.6643506028342505 2.515440137654702" fill="#ff1902" stroke="none" /><path d="M 105.71112130821622 79.79150937346287 l 0.4742224958807894 -1.6780103846004946 a22.743733301404347,22.743733301404347 0 0,0 0.37582371147984583,0.10971324714569491 l -0.5030364250840624 1.669598808536096" fill="#ff0d01" stroke="none" /><path d="M 106.40334571778207 80.00007090966166 l 1.2206733607813087 -3.8125976222547675 a25.003241696793218,25.003241696793218 0 0,0 0.4087639225777979,0.13476303852886665 l -1.2861201056015241 3.7910208594666646" fill="#ff2d04" stroke="none" /><line stroke="#e1ed5e" stroke-width="0.3" x1="143.23703022742887" x2="145.7803849466894" y1="26.81831364943548" y2="22.513508569990506" /><path d="M 143.74570117128098 25.957352633546492 a86.0,86.0 0 0,1 28.547481713284135,27.462654790039103" fill="none" id="id50" stroke="none" /><text fill="#e1ed5e" style="font-size:6.75px; font-family:Arial;" text-anchor="middle"><textPath startOffset="19.985693538727396" xlink:href="#id50">February</textPath></text><path d="M 111.2981086023043 82.29822771554956 l 3.5957831416177934 -5.633839839723436 a27.683547541627703,27.683547541627703 0 0,0 0.3994775118277011,0.25983128588265114 l -3.6922276792297746 5.571109629681256" fill="#ff5307" stroke="none" /><path d="M 112.48926042617603 83.11751280151076 l 2.727028871269771 -3.686289535017627 a25.585348078469,25.585348078469 0 0,0 0.35180322214707094,0.2649708932754978 l -2.7900782471752246 3.6388020522362816" fill="#ff3505" stroke="none" /><path d="M 113.06298171725822 83.55741782278167 l 2.0434865927550927 -2.5721689700467407 a24.285101317347934,24.285101317347934 0 0,0 0.32506949742016683,0.2628502598455256 l -2.0874594887397504 2.5366126129370854" fill="#ff2303" stroke="none" /><path d="M 114.42810811169701 84.74124197986012 l 3.601797669649601 -3.809159084005699 a26.24238870939159,26.24238870939159 0 0,0 0.3255515231634664,0.31318030734912095 l -3.6668324364254854 3.746595689894276" fill="#ff3f05" stroke="none" /><path d="M 114.94478906791727 85.2469230424477 l 5.224959230685057 -5.157933329139485 a28.34196671132258,28.34196671132258 0 0,0 0.3397469456274649,0.350139092068755 l -5.312970440015631 5.067230041520616" fill="#ff5c08" stroke="none" /><path d="M 115.68641384162765 86.03803664274999 l 2.953637158207795 -2.6289357267926245 a24.95414662322384,24.95414662322384 0 0,0 0.2828233301808875,0.3233159573528546 l -2.9984523519665305 2.577704213236822" fill="#ff2c04" stroke="none" /><path d="M 116.15771136456269 86.58626213691792 l 2.959686300216417 -2.457059375075223 a24.846671778087362,24.846671778087362 0 0,0 0.2703572365797856,0.33142600464732885 l -3.0015420288726116 2.4057492008197934" fill="#ff2b04" stroke="none" /><path d="M 117.04232023915458 87.72973835380427 l 6.13928511277619 -4.420210018192633 a28.564990304084063,28.564990304084063 0 0,0 0.2838644281850852,0.4015061026688042 l -6.214462160765158 4.313877415192036" fill="#ff5f08" stroke="none" /><path d="M 117.45458315368197 88.32363383020206 l 2.666289857943961 -1.783633354177521 a24.207873056825875,24.207873056825875 0 0,0 0.22871064120488044,0.34834199749020694 l -2.6965971345067663 1.7374732927096401" fill="#ff2203" stroke="none" /><line stroke="#e1ed5e" stroke-width="0.3" x1="172.23445277983987" x2="176.4835382374775" y1="55.19839476539836" y2="52.563006222186495" /><path d="M 173.08426987136738 54.67131705675599 a86.0,86.0 0 0,1 12.851231095245387,41.99856678651699" fill="none" id="id51" stroke="none" /><text fill="#e1ed5e" style="font-size:6.75px; font-family:Arial;" text-anchor="middle"><textPath startOffset="22.20632615414155" xlink:href="#id51">March</textPath></text><path d="M 118.03404312379186 89.2402003453031 l 3.248870674399274 -1.938400464088834 a24.783194023328885,24.783194023328885 0 0,0 0.21542534784207112,0.3682317506145956 l -3.2817556967116723 1.882189301120343" fill="#ff2a04" stroke="none" /><path d="M 118.21658344932153 89.55222093294921 l 12.450213243757133 -7.140585811292127 a35.35255292773561,35.35255292773561 0 0,0 0.2982111719977709,0.5304843996872605 l -12.571282057047338 6.925217901670073" fill="#ffb911" stroke="none" /><path d="M 118.89224826269711 90.83032412892265 l 2.9228412264551786 -1.418650988306984 a24.248933896171234,24.248933896171234 0 0,0 0.17902850041305945,0.37707967982980467 l -2.9468279207099943 1.3681288928366389" fill="#ff2203" stroke="none" /><path d="M 119.47837535516314 92.15188598940014 l 3.187291492371132 -1.284204999700505 a24.436278443112137,24.436278443112137 0 0,0 0.15383969652696114,0.3915052475632748 l -3.208924738779794 1.2291507472414456" fill="#ff2503" stroke="none" /><path d="M 119.85752413597 93.16781622104841 l 2.5036618360075193 -0.8614103987397796 a23.647706642386495,23.647706642386495 0 0,0 0.1291195257003488,0.38605094720060695 l -2.5181186554796384 0.8181863486168587" fill="#ff1a02" stroke="none" /><path d="M 119.97218684219823 93.5106431181261 l 3.5174581527941977 -1.1428914345178507 a24.698474373002014,24.698474373002014 0 0,0 0.12789636415978387,0.40546642521970455 l -3.536610000722188 1.082174842871727" fill="#ff2904" stroke="none" /><path d="M 120.08093135843002 93.85539295169968 l 8.755924392980056 -2.679243994173798 a30.156667535512007,30.156667535512007 0 0,0 0.14761559930540993,0.4976864172125433 l -8.800745889397168 2.528128190214725" fill="#ff740a" stroke="none" /><path d="M 120.37134235888165 94.90015583598534 l 2.398403510851405 -0.60042602653698 a23.47241800960261,23.47241800960261 0 0,0 0.09474719741816778,0.39278830177324214 l -2.4083835085303917 0.5590524931043318" fill="#ff1702" stroke="none" /><path d="M 120.53481517161879 95.60439243477599 l 2.603158839108704 -0.5572226772452592 a23.66212942090841,23.66212942090841 0 0,0 0.08182669041413501,0.39901600261693426 l -2.6123648254378358 0.5123310184649131" fill="#ff1a02" stroke="none" /><path d="M 120.6074358757038 95.95851677861258 l 2.5161815947919544 -0.4934677831173039 a23.564113934860245,23.564113934860245 0 0,0 0.07463571333727745,0.3987069650583694 l -2.524303032039091 0.4500827405963717" fill="#ff1902" stroke="none" /><path d="M 120.67395015179393 96.31383870115 l 30.448876122329562 -5.4290287018936985 a51.929086791545544,51.929086791545544 0 0,0 0.14932861353791474,0.8813459301089115 l -30.5378165973877 4.904096983468949" fill="#82ff25" stroke="none" /><line stroke="#e1ed5e" stroke-width="0.3" x1="184.98032266829074" x2="189.97916517819016" y1="98.17113171792111" y2="98.06355123074" /><path d="M 185.9800911702706 98.14961562048488 a86.0,86.0 0 0,1 -9.607161424134198,41.387399972396054" fill="none" id="id52" stroke="none" /><text fill="#e1ed5e" style="font-size:6.75px; font-family:Arial;" text-anchor="middle"><textPath startOffset="21.466115282336823" xlink:href="#id52">April</textPath></text><line stroke="#e1ed5e" stroke-width="0.3" x1="174.80103733775053" x2="179.2010983576182" y1="140.37084112569926" y2="142.7455964860345" /><path d="M 175.68104954172406 140.8457921977663 a86.0,86.0 0 0,1 -30.038265399797805,32.042727171017184" fill="none" id="id53" stroke="none" /><text fill="#e1ed5e" style="font-size:6.75px; font-family:Arial;" text-anchor="middle"><textPath startOffset="22.206326154141568" xlink:href="#id53">May</textPath></text><path d="M 112.92097659922987 116.55440617244103 l 1.9880454550393436 2.547091676797729 a24.231098998996295,24.231098998996295 0 0,0 -0.33100981808771895,0.25380421352692123 l -1.9439069084581309 -2.580935232152022" fill="#ff2203" stroke="none" /><path d="M 112.34349029814194 116.9893568818739 l 1.328804874149867 1.8289430046138497 a23.26069788067543,23.26069788067543 0 0,0 -0.3259517962593403,0.2325579520740864 l -1.2971257500416422 -1.8515452185321553" fill="#ff1402" stroke="none" /><path d="M 112.04921762599082 117.19931262002967 l 2.1751372032343617 3.104837667566691 a24.79094167652777,24.79094167652777 0 0,0 -0.35161006200330625,0.24184060679759373 l -2.1213702566081722 -3.141819063729379" fill="#ff2a04" stroke="none" /><path d="M 111.45004920935366 117.60387380957326 l 1.4767418549362854 2.270416204183366 a23.708423202961285,23.708423202961285 0 0,0 -0.34401847593881446,0.21956886801498993 l -1.4374415769505406 -2.295499501022165" fill="#ff1b02" stroke="none" /><line stroke="#e1ed5e" stroke-width="0.3" x1="143.8653032363475" x2="146.44561519142675" y1="172.8068346515853" y2="177.08958963109032" /><path d="M 144.38136562736335 173.6633856474863 a86.0,86.0 0 0,1 -40.68145358897372,12.25698825130547" fill="none" id="id54" stroke="none" /><text fill="#e1ed5e" style="font-size:6.75px; font-family:Arial;" text-anchor="middle"><textPath startOffset="21.466115282336833" xlink:href="#id54">June</textPath></text><path d="M 107.59598834532513 119.57807347666477 l 0.9689886640977425 2.4974934664606625 a23.678882723480747,23.678882723480747 0 0,0 -0.38126358990161374,0.14416126627223236 l -0.925854853435854 -2.513802982839526" fill="#ff1a02" stroke="none" /><path d="M 106.91757812671514 119.82793768551818 l 0.9386629799441252 2.6905010298557834 a23.84954101243913,23.84954101243913 0 0,0 -0.3887818925768022,0.131895926525495 l -0.8922113544300961 -2.7062599432794014" fill="#ff1d02" stroke="none" /><path d="M 105.88484417918355 120.15858648285463 l 1.6130957572077096 5.525673974822035 a26.756313994037075,26.756313994037075 0 0,0 -0.4432232235681937,0.1252593102174883 l -1.5177413655349101 -5.552622078378042" fill="#ff4606" stroke="none" /><path d="M 105.18746579009965 120.34920634021253 l 0.5569666952713167 2.184849147021472 a23.254723418710576,23.254723418710576 0 0,0 -0.38873782239730814,0.09554229880102896 l -0.5192755881307974 -2.194112704136531" fill="#ff1402" stroke="none" /><path d="M 104.48393922423573 120.51570834832081 l 0.6027438068209902 2.757779606525276 a23.822879461618538,23.822879461618538 0 0,0 -0.40136848413615905,0.08411066828340624 l -0.5551838612554532 -2.7677462555352235" fill="#ff1c02" stroke="none" /><path d="M 104.13013068566511 120.58985236759428 l 1.2919331361862294 6.440646693143033 a27.568943678725695,27.568943678725695 0 0,0 -0.4660889446664912,0.08932705554637076 l -1.1808765769480338 -6.461930947037871" fill="#ff5107" stroke="none" /><path d="M 103.7750983002368 120.6578951692458 l 2.0800229712334324 11.382192746257232 a32.57068741578518,32.57068741578518 0 0,0 -0.5523849439521072,0.09603920301587592 l -1.8837890558092754 -11.416310527794115" fill="#ff950d" stroke="none" /><path d="M 102.34483914955558 120.86867818915974 l 2.5083194456341698 22.323625616909343 a43.46410307858468,43.46410307858468 0 0,0 -0.744203556420625,0.07713974148775554 l -2.123683292607942 -22.363494726852856" fill="#e1ff1b" stroke="none" /><path d="M 101.62511606390274 120.93702456842531 l 0.25051223494569863 3.2274499860356762 a24.237157671819396,24.237157671819396 0 0,0 -0.41622960139670073,0.028705630262760382 l -0.19491987277006753 -3.231283960814722" fill="#ff2203" stroke="none" /><path d="M 100.90346689309514 120.98055641714683 l 0.17495166054083164 4.062775528692114 a25.066540677291385,25.066540677291385 0 0,0 -0.4312395714583264,0.014852762781336015 l -0.1049917374078529 -4.065185089899543" fill="#ff2e04" stroke="none" /><line stroke="#e1ed5e" stroke-width="0.3" x1="102.19456741930631" x2="102.32365962044197" y1="184.97166512339345" y2="189.96999836594603" /><path d="M 102.22038585953345 185.97133177190398 a86.0,86.0 0 0,1 -42.740103519485714,-10.115201625700543" fill="none" id="id55" stroke="none" /><text fill="#e1ed5e" style="font-size:6.75px; font-family:Arial;" text-anchor="middle"><textPath startOffset="22.20632615414155" xlink:href="#id55">July</textPath></text><path d="M 100.18074693466247 120.99922214144158 l 0.028118071893384316 3.2667643242794515 a24.26688533259923,24.26688533259923 0 0,0 -0.4177300131116773,0.0 l 0.028118071893382064 -3.2667643242794515" fill="#ff2303" stroke="none" /><path d="M 99.45781275523022 120.99299961872073 l -0.10407640314248469 4.029744175217058 a25.03108794438758,25.03108794438758 0 0,0 -0.43062964998806796,-0.014831755852675639 l 0.17342640480519567 -4.0273556209382875" fill="#ff2d04" stroke="none" /><path d="M 98.73552117531835 120.96189622390904 l -0.43533851577140875 7.216823731443936 a28.229942212358715,28.229942212358715 0 0,0 -0.48479849632549477,-0.03343454271576022 l 0.5594997728758335 -7.208260844211891" fill="#ff5a08" stroke="none" /><path d="M 97.65516085044442 120.86867818915974 l -0.3658327010381708 3.2558501552158177 a24.276338474328888,24.276338474328888 0 0,0 -0.4148624831980529,-0.05023406918506854 l 0.42182260728761306 -3.2490705573054006" fill="#ff2303" stroke="none" /><path d="M 96.58105272829116 120.7198165907248 l -0.6720234543779486 4.072657930292346 a25.127730386108958,25.127730386108958 0 0,0 -0.4261555724564633,-0.07409260876422728 l 0.7420279983064618 -4.060486743007113" fill="#ff2f04" stroke="none" /><path d="M 95.86986931433489 120.58985236759428 l -1.5942443389540082 7.94775228078525 a29.106070646682895,29.106070646682895 0 0,0 -0.49037982471599517,-0.10276386014296716 l 1.73081562509939 -7.9191324399157415" fill="#ff6609" stroke="none" /><path d="M 95.16358092515715 120.4354850818985 l -0.7371578602857246 3.114738037328294 a24.20078033488097,24.20078033488097 0 0,0 -0.4045525925338605,-0.09942918452914758 l 0.7906637375627956 -3.1015875944851166" fill="#ff2203" stroke="none" /><path d="M 93.42475214034765 119.94407469862007 l -2.5237398394281945 7.655020305211823 a29.0603100840056,29.0603100840056 0 0,0 -0.4737249386659365,-0.16071321966527455 l 2.655134511031357 -7.610444098648426" fill="#ff6609" stroke="none" /><line stroke="#e1ed5e" stroke-width="0.3" x1="58.666819895761336" x2="56.23545636021788" y1="174.27360380694188" y2="178.64263932499728" /><path d="M 58.180547188652646 175.14741091055294 a86.0,86.0 0 0,1 -31.652253787137756,-30.449443065178592" fill="none" id="id56" stroke="none" /><text fill="#e1ed5e" style="font-size:6.75px; font-family:Arial;" text-anchor="middle"><textPath startOffset="22.20632615414155" xlink:href="#id56">August</textPath></text><path d="M 89.4739219176387 118.17145234162733 l -2.156871891646332 3.7234660886397997 a25.30305659621444,25.30305659621444 0 0,0 -0.3750059130442457,-0.22156010344018906 l 2.2206456757189597 -3.685787412905861" fill="#ff3104" stroke="none" /><path d="M 89.1626897886671 117.98757091392108 l -1.615018233947205 2.680577970354876 a24.129501901442755,24.129501901442755 0 0,0 -0.35392326099606075,-0.21740857378283565 l 1.6609206948755744 -2.6523809297436625" fill="#ff2103" stroke="none" /><path d="M 87.65650970185807 116.9893568818739 l -1.9433755642479325 2.6748269913163205 a24.30626798931821,24.30626798931821 0 0,0 -0.3363698471776198,-0.24883837147468998 l 1.9891303818441166 -2.640978671101864" fill="#ff2303" stroke="none" /><path d="M 87.07902340077011 116.55440617244103 l -3.5062898435994474 4.492272374574966 a26.69864716881981,26.69864716881981 0 0,0 -0.3598500969389223,-0.2858866804862148 l 3.5830974332557277 -4.43125178008362" fill="#ff4506" stroke="none" /><path d="M 86.79598089348748 116.32954008644616 l -0.5468325459419406 0.6762731792116301 a21.86969606542881,21.86969606542881 0 0,0 -0.2906897834052318,-0.2392179016828051 l 0.5583924578918612 -0.6667601586716443" fill="#ff0000" stroke="none" /><path d="M 86.24171649860922 115.8653595955263 l -2.6779449181859927 3.0880712045029592 a25.08748978578767,25.08748978578767 0 0,0 -0.32381695013407713,-0.28573080894211855 l 2.7307042212266577 -3.041517253788552" fill="#ff2e04" stroke="none" /><path d="M 85.70375840098266 115.38237550388516 l -1.4178800362309305 1.525601185857521 a23.082748850781606,23.082748850781606 0 0,0 -0.2887148079455657,-0.27299787158222966 l 1.4439306785673132 -1.5009686775293605" fill="#ff1202" stroke="none" /><path d="M 85.44109423537348 115.13401014063109 l -2.532730352061714 2.632778002088361 a24.65325102402436,24.65325102402436 0 0,0 -0.30329374172134255,-0.29683676114517205 l 2.577674046158851 -2.5887911380206194" fill="#ff2803" stroke="none" /><path d="M 84.19399662182784 113.82643327865904 l -3.058311611964325 2.675283589181598 a25.06330065321534,25.06330065321534 0 0,0 -0.2812549778004661,-0.32716307998314764 l 3.1039090993355702 -2.62224341003692" fill="#ff2e04" stroke="none" /><path d="M 83.95833913139862 113.55231037782056 l -2.6256645342967575 2.2182130022754785 a24.437234814517012,24.437234814517012 0 0,0 -0.2686978700101387,-0.3236638938535996 l 2.6634584042004326 -2.1726878513081176" fill="#ff2503" stroke="none" /><path d="M 83.28015986056508 112.70617746262583 l -2.1654291620379738 1.6456094667260108 a23.719763587663962,23.719763587663962 0 0,0 -0.24424436345183334,-0.327205238687159 l 2.1934347921848922 -1.6080913485295438" fill="#ff1b02" stroke="none" /><path d="M 82.85270091963577 112.12312394758628 l -3.316898844409892 2.345044290878065 a25.06214852882406,25.06214852882406 0 0,0 -0.24601374106188825,-0.3544011425714863 l 3.3567734926339137 -2.2876018861195657" fill="#ff2e04" stroke="none" /><path d="M 82.44556493220864 111.52570212397912 l -2.9135222170419586 1.9129290732251292 a24.485385107615375,24.485385107615375 0 0,0 -0.2282913963052954,-0.3543133167528265 l 2.9460184767242996 -1.8624941565508544" fill="#ff2603" stroke="none" /><path d="M 82.05923443525364 110.91462005526583 l -6.257430037146487 3.80683149397295 a28.324438319303905,28.324438319303905 0 0,0 -0.24982036484956735,-0.4187133011284144 l 6.322031277694286 -3.698556098958424" fill="#ff5b08" stroke="none" /><line stroke="#e1ed5e" stroke-width="0.3" x1="26.63291911575756" x2="22.317208475507996" y1="142.92168965132927" y2="145.44649492493687" /><path d="M 25.769776987707644 143.4266507060508 a86.0,86.0 0 0,1 -11.730757126820373,-40.83630448921669" fill="none" id="id57" stroke="none" /><text fill="#e1ed5e" style="font-size:6.75px; font-family:Arial;" text-anchor="middle"><textPath startOffset="21.46611528233685" xlink:href="#id57">September</textPath></text><path d="M 81.87401531095188 110.60418214915194 l -2.3841578672865826 1.3947956334927372 a23.762184569386143,23.762184569386143 0 0,0 -0.2035038791363277,-0.35482616666721273 l 2.407813742575288 -1.3535496209672173" fill="#ff1b02" stroke="none" /><path d="M 81.18737489456691 109.33194174019688 l -2.1978644526741444 1.0902435417841518 a23.453413771203437,23.453413771203437 0 0,0 -0.17628785643104597,-0.3632051989862494 l 2.2163055657199093 -1.0522493868326177" fill="#ff1702" stroke="none" /><path d="M 80.73074385275274 108.34839909993369 l -42.966723769991724 18.615319413860274 a67.82594866531606,67.82594866531606 0 0,0 -0.45491515805765476,-1.0752850538830052 l 43.28078990924168 -17.872959834311107" fill="#39ff89" stroke="none" /><path d="M 79.97269907076064 106.31721596034903 l -4.639110672351321 1.4633157051341286 a25.864426038415644,25.864426038415644 0 0,0 -0.1302744675885573,-0.4257444977096562 l 4.663611912446009 -1.3832442348724245" fill="#ff3905" stroke="none" /><path d="M 79.86692584326677 105.97154293290107 l -7.59038973852191 2.2513371702789162 a28.917230288234528,28.917230288234528 0 0,0 -0.13743583350599872,-0.47843216632186497 l 7.628018208914013 -2.1203475284524553" fill="#ff6409" stroke="none" /><path d="M 79.67330655649465 105.27499134158121 l -5.782867105508296 1.5007150078714688 a26.97442026432863,26.97442026432863 0 0,0 -0.11276423345991192,-0.45043705881404267 l 5.8078426532632665 -1.4009501096600343" fill="#ff4906" stroke="none" /><path d="M 79.58551787078972 104.9243191809786 l -6.067286764227229 1.4635324276402557 a27.241305620310666,27.241305620310666 0 0,0 -0.1060328049865229,-0.45678654874561075 l 6.091580135144307 -1.3588772215460707" fill="#ff4c07" stroke="none" /><path d="M 79.50377843672027 104.57218783832718 l -3.724553517812066 0.830853542676773 a24.81609964707747,24.81609964707747 0 0,0 -0.08941590642410396,-0.41772134672539524 l 3.7383034629606104 -0.766618376535214" fill="#ff2a04" stroke="none" /><path d="M 79.35854240842038 103.8639653848113 l -9.479105642067934 1.7744355463957817 a30.643757840271448,30.643757840271448 0 0,0 -0.09259311690769535,-0.5193113724964133 l 9.508245201314818 -1.6110054231661546" fill="#ff7b0b" stroke="none" /><path d="M 79.29508885075956 103.50808413554451 l -4.0603783160401345 0.6879599072962879 a25.118247309647156,25.118247309647156 0 0,0 -0.06855875568134301,-0.42691543707217267 l 4.071618826082768 -0.6179652405309015" fill="#ff2f04" stroke="none" /><path d="M 79.18660465613746 102.79330883721812 l -3.9397855523469727 0.5287478385096956 a24.975108108619263,24.975108108619263 0 0,0 -0.053516293870698686,-0.42657751730068133 l 3.9483033554645197 -0.46085256692160576" fill="#ff2d04" stroke="none" /><path d="M 79.1416061653843 102.43462659150553 l -6.014488317199995 0.7020211291175027 a27.05532025440956,27.05532025440956 0 0,0 -0.050010726877531164,-0.46303721961999755 l 6.025681345578578 -0.598387587612723" fill="#ff4a06" stroke="none" /><path d="M 79.10278846688536 102.07522291339032 l -3.9155226918773685 0.38883572553244633 a24.934782226763883,24.934782226763883 0 0,0 -0.03873844461387515,-0.42747550829159164 l 3.9216357327683187 -0.3213788286922885" fill="#ff2c04" stroke="none" /><path d="M 79.0095281055655 100.63252640178507 l -3.6050081929879285 0.1086332347449973 a24.60664459729556,24.60664459729556 0 0,0 -0.009113759010003088,-0.42348056936644857 l 3.606344014682939 -0.04656284958841992" fill="#ff2703" stroke="none" /><line stroke="#e1ed5e" stroke-width="0.3" x1="15.007084014347285" x2="10.007500721073583" y1="101.09737516637583" y2="101.16192664675087" /><path d="M 14.007167355692545 101.11028546245083 a86.0,86.0 0 0,1 10.666146001902534,-42.60595125391555" fill="none" id="id58" stroke="none" /><text fill="#e1ed5e" style="font-size:6.75px; font-family:Arial;" text-anchor="middle"><textPath startOffset="22.20632615414155" xlink:href="#id58">October</textPath></text><path d="M 79.16333360222342 97.38593545837743 l -6.167584847349411 -0.7737545223944786 a27.21593105738633,27.21593105738633 0 0,0 0.06231670736215681,-0.4643318524521096 l 6.15335214092942 0.8798047169112476" fill="#ff4c07" stroke="none" /><path d="M 79.21141760316559 97.0276538004421 l -3.4236808010227957 -0.48951700617013083 a24.458499259306247,24.458499259306247 0 0,0 0.06317759238745504,-0.4162613973730196 l 3.4147473151960384 0.5483775159352425" fill="#ff2503" stroke="none" /><path d="M 79.32604984820605 96.31383870115002 l -3.906990262228044 -0.6966156053326401 a24.968607590923764,24.968607590923764 0 0,0 0.079084231375668,-0.42247112629950634 l 3.8944203069425143 0.7637648090947192" fill="#ff2d04" stroke="none" /><path d="M 79.3925641242962 95.95851677861259 l -10.492758764764739 -2.057815865575954 a31.692641985597543,31.692641985597543 0 0,0 0.10959723691943324,-0.5344350498856157 l 10.455782231930312 2.238126571624972" fill="#ff890c" stroke="none" /><path d="M 79.54389044137918 95.25157060432595 l -3.866026935268037 -0.8974118901390984 a24.968817502075524,24.968817502075524 0 0,0 0.10078746383093809,-0.41782910563003184 l 3.8500066711762844 0.9638262274285271" fill="#ff2d04" stroke="none" /><path d="M 79.62865764111835 94.90015583598534 l -5.815195923494044 -1.455799645922842 a26.994652303319253,26.994652303319253 0 0,0 0.11672444995366879,-0.44978692057128583 l 5.789275141670068 1.5556829920429918" fill="#ff4906" stroke="none" /><path d="M 79.71946130924805 94.55025226153421 l -4.350201275565771 -1.1689778030499904 a25.504526639055168,25.504526639055168 0 0,0 0.1175797899572958,-0.4229970638111134 l 4.329434715042115 1.2436861702800464" fill="#ff3405" stroke="none" /><path d="M 79.91906864156998 93.8553929516997 l -3.8546565282888503 -1.1794945786992739 a25.031077326504768,25.031077326504768 0 0,0 0.1296186854586401,-0.4109266544038128 l 3.833782359062006 1.2456713995295012" fill="#ff2d04" stroke="none" /><path d="M 80.02781315780177 93.51064311812611 l -3.8517504084695298 -1.2515095726848915 a25.049970051700026,25.049970051700026 0 0,0 0.13677606462209427,-0.40894302403395605 l 3.829637050075663 1.3176256996411697" fill="#ff2e04" stroke="none" /><path d="M 80.2630227832202 92.82701384747504 l -3.7600144970664813 -1.366497596086872 a25.0006280379787,25.0006280379787 0 0,0 0.15047450802752688,-0.4031968702951865 l 3.735935400537327 1.4310176034113997" fill="#ff2d04" stroke="none" /><path d="M 80.38941819471856 92.48833698450439 l -5.678739237208007 -2.175191737110576 a27.081080365971157,27.081080365971157 0 0,0 0.17049016669303238,-0.4338788779823238 l 5.640455520633284 2.2726196199886632" fill="#ff4a06" stroke="none" /><path d="M 80.65960295795068 91.81776055985345 l -3.769917488979741 -1.5949190441831667 a25.093414788561436,25.093414788561436 0 0,0 0.17172175366130196,-0.3963574833623385 l 3.7419050254757584 1.6595756721321044" fill="#ff2e04" stroke="none" /><path d="M 80.95270993114464 91.15688171328213 l -9.700360175233053 -4.5036029872625445 a31.694831807753104,31.694831807753104 0 0,0 0.23400114139790212,-0.4928660815152132 l 9.621400839993399 4.66991148441829" fill="#ff890c" stroke="none" /><path d="M 81.26839172434947 90.50648371742162 l -3.6789999133948137 -1.8645833858708083 a25.124525617040643,25.124525617040643 0 0,0 0.19883138827996288,-0.3840789553970963 l 3.6463590919547366 1.9276350635282402" fill="#ff2f04" stroke="none" /><path d="M 81.43458229118936 90.18545643968196 l -2.537719295688646 -1.341556487553516 a23.87050396847094,23.87050396847094 0 0,0 0.195160580902847,-0.3616029166575373 l 2.5142506155673274 1.385040387543526" fill="#ff1d02" stroke="none" /><path d="M 81.6062741919709 89.86733742301443 l -3.6025573850420836 -1.9845624958117318 a25.11301689910262,25.11301689910262 0 0,0 0.21183709751286128,-0.3768345590568409 l 3.5678626462367915 2.0462805648033573" fill="#ff2f04" stroke="none" /><line stroke="#e1ed5e" stroke-width="0.3" x1="26.266209847984243" x2="21.928928074336255" y1="57.711370442889674" y2="55.22380399835377" /><path d="M 25.398753493254645 57.213857153982495 a86.0,86.0 0 0,1 29.58750427330803,-30.492523968695096" fill="none" id="id59" stroke="none" /><text fill="#e1ed5e" style="font-size:6.75px; font-family:Arial;" text-anchor="middle"><textPath startOffset="21.46611528233685" xlink:href="#id59">November</textPath></text><path d="M 81.96595687620814 89.24020034530311 l -2.0535869571074805 -1.225248496984249 a23.39132876655723,23.39132876655723 0 0,0 0.20927910153948834,-0.3439998166962517 l 2.032192057281775 1.2604160868875753" fill="#ff1602" stroke="none" /><path d="M 82.15384107792192 88.93136811851018 l -11.200281426101595 -6.946693269734179 a34.17963775707233,34.17963775707233 0 0,0 0.31440775166551976,-0.4973175579499745 l 11.079046078190112 7.138458475398369" fill="#ffaa0f" stroke="none" /><path d="M 84.07557802195018 86.31012108654704 l -3.1673316551356945 -2.7228860738130445 a25.17685268887827,25.17685268887827 0 0,0 0.2853474185454798,-0.32620142668637525 l 3.119992373012371 2.777003056702363" fill="#ff3004" stroke="none" /><path d="M 85.31137513191541 84.99185889309783 l -15.06055569595181 -15.388162408880333 a42.53174122529212,42.53174122529212 0 0,0 0.5276300603585095,-0.5075797000241318 l 14.793442391980873 15.645125195666779" fill="#ecff1a" stroke="none" /><path d="M 85.57189188830299 84.74124197986013 l -2.853041394842854 -3.01729567926207 a25.152579730333954,25.152579730333954 0 0,0 0.3171526102292255,-0.29475878666795075 l 2.8006809008187727 3.065959052004668" fill="#ff2f04" stroke="none" /><path d="M 87.80319425747018 82.90503203632743 l -2.4098727411143894 -3.3776628221786686 a25.149227972610586,25.149227972610586 0 0,0 0.3545668222000738,-0.24839671782402276 l 2.3513747793306554 3.418644382766634" fill="#ff2f04" stroke="none" /><line stroke="#e1ed5e" stroke-width="0.3" x1="56.762969772571076" x2="54.21961505331055" y1="26.818313649435495" y2="22.513508569990535" /><path d="M 56.25429882871897 25.957352633546506 a86.0,86.0 0 0,1 42.265352541879196,-11.944610805530505" fill="none" id="id60" stroke="none" /><text fill="#e1ed5e" style="font-size:6.75px; font-family:Arial;" text-anchor="middle"><textPath startOffset="22.20632615414155" xlink:href="#id60">December</textPath></text><path d="M 89.3179101791058 81.91981866633112 l -2.088776138939411 -3.535399157905968 a25.10634058065388,25.10634058065388 0 0,0 0.3739688271174793,-0.21662688268400151 l 2.0276105793566113 3.5708301979800168" fill="#ff2f04" stroke="none" /><path d="M 90.58718382345135 81.22770947309562 l -1.8554549705676686 -3.7003951966962245 a25.139521440883808,25.139521440883808 0 0,0 0.38849985910353585,-0.19063519362574088 l 1.7914838444537067 3.731785550456795" fill="#ff2f04" stroke="none" /><path d="M 95.33964822691252 79.52364482259891 l -0.748415080040583 -3.28833825110188 a24.372431405631836,24.372431405631836 0 0,0 0.4098714990937196,-0.08958203443329157 l 0.6917008567933424 3.3007337836310398" fill="#ff2403" stroke="none" /><path d="M 96.40284397218896 79.31037775812273 l -10.791468083433102 -62.06886672563182 a84.0,84.0 0 0,0 1.4266831754444573,-0.235414948241492 l 9.72145570184976 62.24542793681294" fill="#4dd2ff" stroke="none" /><path d="M 97.83486435360386 79.11191278185805 l -0.39581605468831993 -3.818624614320234 a24.839083783175536,24.839083783175536 0 0,0 0.4256648628412032,-0.04042200776342063 l 0.33002606475688034 3.824872166598835" fill="#ff2b04" stroke="none" /><path d="M 98.55514903715128 79.0497635885617 l -2.246252203342084 -32.57049751826776 a53.64786298593685,53.64786298593685 0 0,0 0.9218183316180038,-0.05560659913986275 l 1.6852718228844576 32.604337386787925" fill="#70ff27" stroke="none" /><path d="M 99.27714615592234 79.0124445844662 l -0.23376028976086277 -6.787066397312054 a27.7910907926924,27.7910907926924 0 0,0 0.4782361900647557,-0.012351429855178729 l 0.11689746450122804 6.790084619309592" fill="#ff5407" stroke="none" /></svg>