<?xml version="1.0" encoding="utf-8" ?>
<svg baseProfile="full" height="200mm" version="1.1" viewBox="0,0,200,200" width="200mm" xmlns="http://www.w3.org/2000/svg" xmlns:ev="http://www.w3.org/2001/xml-events" xmlns:xlink="http://www.w3.org/1999/xlink"><defs /><rect fill="#1a1a1a" height="200" width="200" x="0" y="0" /><text alignment-baseline="middle" fill="#e1ed5e" style="dominant-baseline: central; font-size:9.0px; font-family:Arial;" text-anchor="middle" x="100.0" y="100.0">2023</text><line stroke="#e1ed5e" stroke-width="0.3" x1="100.0" x2="100.0" y1="15.0" y2="10.0" /><path d="M 100.0 14.0 a86.0,86.0 0 0,1 42.46469731375804,11.215312516191453" fill="none" id="id97" stroke="none" /><text fill="#e1ed5e" style="font-size:6.75px; font-family:Arial;" text-anchor="middle"><textPath startOffset="22.20632615414155" xlink:href="#id97">January</textPath></text><line stroke="#e1ed5e" stroke-width="0.3" x1="143.23703022742887" x2="145.7803849466894" y1="26.81831364943548" y2="22.513508569990506" /><path d="M 143.74570117128098 25.957352633546492 a86.0,86.0 0 0,1 28.547481713284135,27.462654790039103" fill="none" id="id98" stroke="none" /><text fill="#e1ed5e" style="font-size:6.75px; font-family:Arial;" text-anchor="middle"><textPath startOffset="19.985693538727396" xlink:href="#id98">February</textPath></text><line stroke="#e1ed5e" stroke-width="0.3" x1="172.23445277983987" x2="176.4835382374775" y1="55.19839476539836" y2="52.563006222186495" /><path d="M 173.08426987136738 54.67131705675599 a86.0,86.0 0 0,1 12.851231095245387,41.99856678651699" fill="none" id="id99" stroke="none" /><text fill="#e1ed5e" style="font-size:6.75px; font-family:Arial;" text-anchor="middle"><textPath startOffset="22.20632615414155" xlink:href="#id99">March</textPath></text><path d="M 119.04729006885535 91.15688171328212 l 48.67002733617523 -22.596117725709362 a74.65963191429998,74.65963191429998 0 0,0 0.5311417154459892,1.1703003644828707 l -49.05177136858457 21.754995352384427" fill="#3fffc0" stroke="none" /><path d="M 119.196687751892 91.48605970444005 l 50.988875744052805 -22.61412226074283 a76.77870539252665,76.77870539252665 0 0,0 0.5254196786265688,1.2127410598206811 l -51.37058613252206 21.733082056335544" fill="#42ffda" stroke="none" /><path d="M 119.34039704204932 91.81776055985345 l 55.333918761507114 -23.409828220377328 a81.082132309137,81.082132309137 0 0,0 0.5327417066516607,1.2900762993501194 l -55.72868215504497 22.453877350573904" fill="#49f2ff" stroke="none" /><path d="M 119.7369772167798 92.82701384747503 l 56.72740290512665 -20.616372559889236 a81.3575435044264,81.3575435044264 0 0,0 0.4670191058257378,1.3203259016384994 l -57.073875091762204 19.63684903182412" fill="#49efff" stroke="none" /><path d="M 119.85752413597 93.16781622104841 l 57.736301548987534 -19.864763612957887 a82.05808177427716,82.05808177427716 0 0,0 0.44804770114933384,1.3396055978486883 l -58.06968654390864 18.867984912186884" fill="#4ae7ff" stroke="none" /><path d="M 119.97218684219823 93.5106431181261 l 58.56077698211658 -19.027549868192292 a82.57444481873742,82.57444481873742 0 0,0 0.427596097853455,1.3555964813662171 l -58.87962856373824 18.016703220399656" fill="#4be1ff" stroke="none" /><path d="M 120.08093135843002 93.85539295169968 l 60.24279407529006 -18.433821144900946 a84.0,84.0 0 0,0 0.41117641155319085,1.3862824530138804 l -60.551176383954946 17.394109305140535" fill="#4dd2ff" stroke="none" /><path d="M 120.53481517161879 95.60439243477599 l 56.100584841736364 -12.008686373990317 a78.37145778184237,78.37145778184237 0 0,0 0.2710185925850232,1.3215829077386572 l -56.29898273023639 11.041227810088248" fill="#45ffed" stroke="none" /><line stroke="#e1ed5e" stroke-width="0.3" x1="184.98032266829074" x2="189.97916517819016" y1="98.17113171792111" y2="98.06355123074" /><path d="M 185.9800911702706 98.14961562048488 a86.0,86.0 0 0,1 -9.607161424134198,41.387399972396054" fill="none" id="id100" stroke="none" /><text fill="#e1ed5e" style="font-size:6.75px; font-family:Arial;" text-anchor="middle"><textPath startOffset="21.466115282336823" xlink:href="#id100">April</textPath></text><line stroke="#e1ed5e" stroke-width="0.3" x1="174.80103733775053" x2="179.2010983576182" y1="140.37084112569926" y2="142.7455964860345" /><path d="M 175.68104954172406 140.8457921977663 a86.0,86.0 0 0,1 -30.038265399797805,32.042727171017184" fill="none" id="id101" stroke="none" /><text fill="#e1ed5e" style="font-size:6.75px; font-family:Arial;" text-anchor="middle"><textPath startOffset="22.206326154141568" xlink:href="#id101">May</textPath></text><path d="M 117.14729908036423 112.12312394758627 l 8.769552649821941 6.200065283775101 a31.73991914313475,31.73991914313475 0 0,0 -0.31924344339973815,0.44340122106162205 l -8.6615294140466 -6.350100110287854" fill="#ff0000" stroke="none" /><path d="M 116.93607887273984 112.41649034213515 l 9.213903681825212 6.755066915925289 a32.42483917158489,32.42483917158489 0 0,0 -0.3338812452418513,0.44728849009476174 l -9.096261169888267 -6.9126682855293655" fill="#ff0c01" stroke="none" /><path d="M 116.71984013943494 112.70617746262583 l 9.518710996975594 7.233707388012588 a32.95543314227184,32.95543314227184 0 0,0 -0.3471198641283934,0.4486992166145218 l -9.392784315629132 -7.396484598740362" fill="#ff1502" stroke="none" /><path d="M 116.498646956653 112.99209946851258 l 9.699267955670171 7.637829597960393 a33.34553521899193,33.34553521899193 0 0,0 -0.35899182028371895,0.4478974933197051 l -9.566358223331598 -7.803654924858349" fill="#ff1c02" stroke="none" /><path d="M 115.80600337817218 113.82643327865902 l 9.639210172983537 8.431979490766144 a33.806742399675656,33.806742399675656 0 0,0 -0.3869119694276354,0.4346996992775748 l -9.492639353907563 -8.596653359784584" fill="#ff2303" stroke="none" /><path d="M 115.56566222782051 114.09645910891815 l 10.315562859560755 9.341903216644164 a34.91696780260326,34.91696780260326 0 0,0 -0.40728746119739956,0.442030098879251 l -10.153228990367632 -9.51808457032475" fill="#ff3605" stroke="none" /><path d="M 115.32070863581623 114.36230785411682 l 10.788471339580267 10.113588759996208 a35.78769053812212,35.78769053812212 0 0,0 -0.42518068240659473,0.44580024565334725 l -10.61278410579471 -10.297796122232063" fill="#ff4506" stroke="none" /><path d="M 115.07121518719521 114.62390073753431 l 10.996194275780496 10.66982665845565 a36.32192838621166,36.32192838621166 0 0,0 -0.4392521061780911,0.444960064490785 l -10.810901544546871 -10.8575272169271" fill="#ff4e07" stroke="none" /><path d="M 114.29624159901734 115.38237550388516 l 10.590447104218908 11.395039247400932 a36.55649347755034,36.55649347755034 0 0,0 -0.464616408527135,0.42441607324081776 l -10.392731146224909 -11.575648087228334" fill="#ff5107" stroke="none" /><path d="M 114.0293411484842 115.62618273729858 l 10.614191552915196 11.822315464362632 a36.88798933977752,36.88798933977752 0 0,0 -0.476131980783189,0.42013111412501375 l -10.409117219225418 -12.003269720259933" fill="#ff5708" stroke="none" /><path d="M 113.75828350139079 115.86535959552629 l 10.77739505331653 12.427949170158346 a37.45011138902382,37.45011138902382 0 0,0 -0.4906580261502649,0.4181494144838059 l -10.561871550589219 -12.611622974865098" fill="#ff6008" stroke="none" /><path d="M 112.92097659922987 116.55440617244103 l 10.51618231906651 13.473374257457136 a38.09157407757857,38.09157407757857 0 0,0 -0.52035134711044,0.3989832240445533 l -10.282702243462577 -13.652396823329061" fill="#ff6a09" stroke="none" /><path d="M 112.63410532772338 116.77436683061366 l 10.244120082568921 13.601171089241836 a38.02744406142389,38.02744406142389 0 0,0 -0.5262546086103379,0.38931057847909945 l -10.008480503540017 -13.775491616460704" fill="#ff6909" stroke="none" /><path d="M 112.34349029814194 116.9893568818739 l 10.473977585098538 14.416193383549947 a38.819394998850434,38.819394998850434 0 0,0 -0.5439755760762554,0.3881121300830698 l -10.224274681173398 -14.594349775477236" fill="#ff760a" stroke="none" /><path d="M 112.04921762599082 117.19931262002967 l 10.468724954146001 14.943283357342196 a39.245435584369574,39.245435584369574 0 0,0 -0.5566182285133614,0.382847093087476 l -10.209949841009758 -15.121271239794766" fill="#ff7d0b" stroke="none" /><path d="M 111.1453310114006 117.79835938074945 l 9.895797731597513 15.802937051040905 a39.64563305934802,39.64563305934802 0 0,0 -0.5815085530538328,0.35721004831994174 l -9.622309978611371 -15.970935566189224" fill="#ff830c" stroke="none" /><line stroke="#e1ed5e" stroke-width="0.3" x1="143.8653032363475" x2="146.44561519142675" y1="172.8068346515853" y2="177.08958963109032" /><path d="M 144.38136562736335 173.6633856474863 a86.0,86.0 0 0,1 -40.68145358897372,12.25698825130547" fill="none" id="id102" stroke="none" /><text fill="#e1ed5e" style="font-size:6.75px; font-family:Arial;" text-anchor="middle"><textPath startOffset="21.466115282336833" xlink:href="#id102">June</textPath></text><path d="M 110.8373102113329 117.98757091392108 l 10.228851563277248 16.977662286534496 a40.82095913469313,40.82095913469313 0 0,0 -0.6049901913406646,0.3574388688583753 l -9.9350935009082 -17.151219727686623" fill="#ff960d" stroke="none" /><path d="M 110.21172684928248 118.3499491758327 l 9.577841947210104 17.21089053197823 a40.696441538244294,40.696441538244294 0 0,0 -0.6150534372552333,0.3353761737288172 l -9.280165698086222 -17.373207357466814" fill="#ff940d" stroke="none" /><path d="M 109.89434966115114 118.52300852407294 l 9.51206311376726 17.807337740410105 a41.18862605729587,41.18862605729587 0 0,0 -0.6282424589802907,0.3286667619661832 l -9.204129752260474 -17.968433921321004" fill="#ff9c0e" stroke="none" /><path d="M 109.57404056367764 118.69057910512821 l 9.628466390168144 18.796829983074367 a42.11937930998923,42.11937930998923 0 0,0 -0.6481291826119336,0.32498542710274403 l -9.30348329987345 -18.959783251086414" fill="#ffaa0f" stroke="none" /><path d="M 109.2508944713604 118.85261126421891 l 9.499191422250712 19.35862134872673 a42.56364668139273,42.56364668139273 0 0,0 -0.6605215836752298,0.31709049999464695 l -9.16455717057525 -19.519266125220938" fill="#ffb110" stroke="none" /><path d="M 108.2653958097858 119.30500536409082 l 8.516442767522504 19.89136117538878 a42.63783831213854,42.63783831213854 0 0,0 -0.6771874277348001,0.28306439971467307 l -8.172783880290241 -20.035010618123426" fill="#ffb210" stroke="none" /><path d="M 107.93186726928326 119.44442032107085 l 8.627630397227193 21.150035183795 a43.84206633706603,43.84206633706603 0 0,0 -0.7012202888283264,0.27903002446225406 l -8.262289032357 -21.295412052663323" fill="#ffc412" stroke="none" /><path d="M 107.59598834532513 119.57807347666477 l 8.41462930805936 21.688057351150615 a44.26322888291412,44.26322888291412 0 0,0 -0.7127007528865323,0.2694824413624423 l -8.040058334412553 -21.829688042619686" fill="#ffcb12" stroke="none" /><path d="M 107.2578585660854 119.70592522655815 l 8.429219682821122 22.88630610192448 a45.38923433509639,45.38923433509639 0 0,0 -0.7354794572488822,0.26371676626374196 l -8.034020664942506 -23.02801040922818" fill="#ffdc14" stroke="none" /><path d="M 106.57524785965236 119.94407469862006 l 8.06788305528096 24.471543240464506 a46.76717224616651,46.76717224616651 0 0,0 -0.7667113883243101,0.2454767745938148 l -7.64545032186571 -24.606792861718024" fill="#fff016" stroke="none" /><path d="M 105.88484417918355 120.15858648285463 l 7.219453333904591 24.73030210472623 a46.76253769781721,46.76253769781721 0 0,0 -0.7746299697811434,0.21891816702978104 l -6.792692196018842 -24.85090906509453" fill="#fff016" stroke="none" /><path d="M 105.53697534728816 120.25689768951611 l 7.420678200694708 27.148381502532306 a49.144290418578755,49.144290418578755 0 0,0 -0.8179237705971729,0.2160211018081815 l -6.952263987286037 -27.27209395364407" fill="#ecff1a" stroke="none" /><path d="M 105.18746579009965 120.34920634021253 l 6.65329729742533 26.099318053620454 a47.934007644462525,47.934007644462525 0 0,0 -0.8012893301277323,0.1969374220728522 l -6.203054682554387 -26.209976734007334" fill="#fdff18" stroke="none" /><path d="M 104.13013068566511 120.58985236759428 l 6.63571822442943 33.080904453742356 a54.73987249281858,54.73987249281858 0 0,0 -0.9254489290079106,0.17736448983138095 l -6.0653016808498155 -33.1902261419222" fill="#a0ff22" stroke="none" /><path d="M 103.7750983002368 120.6578951692458 l 3.6893914128519367 20.1888944296444 a41.52323237914906,41.52323237914906 0 0,0 -0.7042162818875721,0.1224370273009282 l -3.341326159492315 -20.249410035466333" fill="#ffa10e" stroke="none" /><path d="M 103.41894727170886 120.7198165907248 l 9.323360314148808 56.502279902623684 a78.26633113568458,78.26633113568458 0 0,0 -1.3311393604098385,0.20789659183240017 l -8.349385090130452 -56.65439480180319" fill="#45ffec" stroke="none" /><path d="M 103.06178313531738 120.77559828337769 l 2.272003116985278 15.416579806908905 a36.58309760947361,36.58309760947361 0 0,0 -0.6237791095130434,0.08645010069031714 l -2.0062954162854045 -15.453404473091824" fill="#ff5207" stroke="none" /><path d="M 102.70371172650421 120.8252237178851 l 3.9345231904133504 30.305496277706624 a51.559836016804645,51.559836016804645 0 0,0 -0.881114819923759,0.10669073395799306 l -3.4122809474382114 -30.368732540389967" fill="#caff1d" stroke="none" /><path d="M 101.62511606390274 120.93702456842531 l 1.7055848792452202 21.973736715477592 a43.039830421794036,43.039830421794036 0 0,0 -0.7391316961837527,0.05097484925373192 l -1.327090422282537 -21.99983990924761" fill="#ffb811" stroke="none" /><line stroke="#e1ed5e" stroke-width="0.3" x1="102.19456741930631" x2="102.32365962044197" y1="184.97166512339345" y2="189.96999836594603" /><path d="M 102.22038585953345 185.97133177190398 a86.0,86.0 0 0,1 -42.740103519485714,-10.115201625700543" fill="none" id="id103" stroke="none" /><text fill="#e1ed5e" style="font-size:6.75px; font-family:Arial;" text-anchor="middle"><textPath startOffset="22.20632615414155" xlink:href="#id103">July</textPath></text><path d="M 100.18074693466247 120.99922214144158 l 0.506242207715191 58.81534089105012 a79.8175195439531,79.8175195439531 0 0,0 -1.3739782847552524,0.0 l 0.5062422077151505 -58.81534089105012" fill="#47fffe" stroke="none" /><path d="M 90.7491055286396 118.85261126421891 l -10.04887020504354 20.478824421441967 a43.811445418518744,43.811445418518744 0 0,0 -0.6741665421792551,-0.33804109971651697 l 10.399890654905557 -20.30281548081615" fill="#ffc412" stroke="none" /><line stroke="#e1ed5e" stroke-width="0.3" x1="58.666819895761336" x2="56.23545636021788" y1="174.27360380694188" y2="178.64263932499728" /><path d="M 58.180547188652646 175.14741091055294 a86.0,86.0 0 0,1 -31.652253787137756,-30.449443065178592" fill="none" id="id104" stroke="none" /><text fill="#e1ed5e" style="font-size:6.75px; font-family:Arial;" text-anchor="middle"><textPath startOffset="22.20632615414155" xlink:href="#id104">August</textPath></text><line stroke="#e1ed5e" stroke-width="0.3" x1="26.63291911575756" x2="22.317208475507996" y1="142.92168965132927" y2="145.44649492493687" /><path d="M 25.769776987707644 143.4266507060508 a86.0,86.0 0 0,1 -11.730757126820373,-40.83630448921669" fill="none" id="id105" stroke="none" /><text fill="#e1ed5e" style="font-size:6.75px; font-family:Arial;" text-anchor="middle"><textPath startOffset="21.46611528233685" xlink:href="#id105">September</textPath></text><line stroke="#e1ed5e" stroke-width="0.3" x1="15.007084014347285" x2="10.007500721073583" y1="101.09737516637583" y2="101.16192664675087" /><path d="M 14.007167355692545 101.11028546245083 a86.0,86.0 0 0,1 10.666146001902534,-42.60595125391555" fill="none" id="id106" stroke="none" /><text fill="#e1ed5e" style="font-size:6.75px; font-family:Arial;" text-anchor="middle"><textPath startOffset="22.20632615414155" xlink:href="#id106">October</textPath></text><line stroke="#e1ed5e" stroke-width="0.3" x1="26.266209847984243" x2="21.928928074336255" y1="57.711370442889674" y2="55.22380399835377" /><path d="M 25.398753493254645 57.213857153982495 a86.0,86.0 0 0,1 29.58750427330803,-30.492523968695096" fill="none" id="id107" stroke="none" /><text fill="#e1ed5e" style="font-size:6.75px; font-family:Arial;" text-anchor="middle"><textPath startOffset="21.46611528233685" xlink:href="#id107">November</textPath></text><line stroke="#e1ed5e" stroke-width="0.3" x1="56.762969772571076" x2="54.21961505331055" y1="26.818313649435495" y2="22.513508569990535" /><path d="M 56.25429882871897 25.957352633546506 a86.0,86.0 0 0,1 42.265352541879196,-11.944610805530505" fill="none" id="id108" stroke="none" /><text fill="#e1ed5e" style="font-size:6.75px; font-family:Arial;" text-anchor="middle"><textPath startOffset="22.20632615414155" xlink:href="#id108">December</textPath></text></svg>