<?xml version="1.0" encoding="utf-8" ?>
<svg baseProfile="full" height="200mm" version="1.1" viewBox="0,0,200,200" width="200mm" xmlns="http://www.w3.org/2000/svg" xmlns:ev="http://www.w3.org/2001/xml-events" xmlns:xlink="http://www.w3.org/1999/xlink"><defs /><rect fill="#1a1a1a" height="200" width="200" x="0" y="0" /><text alignment-baseline="middle" fill="#e1ed5e" style="dominant-baseline: central; font-size:9.0px; font-family:Arial;" text-anchor="middle" x="100.0" y="100.0">2022</text><line stroke="#e1ed5e" stroke-width="0.3" x1="100.0" x2="100.0" y1="15.0" y2="10.0" /><path d="M 100.0 14.0 a86.0,86.0 0 0,1 42.46469731375804,11.215312516191453" fill="none" id="id85" stroke="none" /><text fill="#e1ed5e" style="font-size:6.75px; font-family:Arial;" text-anchor="middle"><textPath startOffset="22.20632615414155" xlink:href="#id85">January</textPath></text><path d="M 102.52436894288641 79.15227682838746 l 0.8744497747959014 -7.221720455639524 a28.27446965407396,28.27446965407396 0 0,0 0.4826657585827319,0.06266386806406352 l -0.9986302618864794 7.205598264411323" fill="#ff3e05" stroke="none" /><path d="M 103.2404852339499 79.25152402106235 l 0.8355745711867354 -5.35009347897776 a26.41495014730646,26.41495014730646 0 0,0 0.44864005899246817,0.07402945383011891 l -0.9275438363180787 5.334917762208017" fill="#ff2303" stroke="none" /><path d="M 103.95276090670814 79.375362276772 l 3.6374088864828673 -18.97920018578519 a40.324615988411594,40.324615988411594 0 0,0 0.6805904015062898,0.13652003188008657 l -3.963565697456282 18.913776197827893" fill="#ffe315" stroke="none" /><path d="M 106.74666289553966 80.11325718540242 l 4.566295781875452 -13.459802458719892 a35.21328038826138,35.21328038826138 0 0,0 0.5723298234514002,0.199674637411524 l -4.797307609390126 13.379206968136161" fill="#ff9f0e" stroke="none" /><path d="M 108.09893153111575 80.62456947434976 l 5.222015688261277 -12.492858074307378 a34.5403452951996,34.5403452951996 0 0,0 0.5465865596726521,0.23401983966329504 l -5.436286005724244 12.401118706681292" fill="#ff960d" stroke="none" /><path d="M 108.43124777332544 80.76684994638697 l 5.627803332132002 -12.838003207729987 a35.017364114085126,35.017364114085126 0 0,0 0.5499691832849976,0.24675514132307602 l -5.847954633883781 12.73922773589038" fill="#ff9d0e" stroke="none" /><line stroke="#e1ed5e" stroke-width="0.3" x1="143.23703022742887" x2="145.7803849466894" y1="26.81831364943548" y2="22.513508569990506" /><path d="M 143.74570117128098 25.957352633546492 a86.0,86.0 0 0,1 28.547481713284135,27.462654790039103" fill="none" id="id86" stroke="none" /><text fill="#e1ed5e" style="font-size:6.75px; font-family:Arial;" text-anchor="middle"><textPath startOffset="19.985693538727396" xlink:href="#id86">February</textPath></text><path d="M 114.42810811169701 84.74124197986012 l 18.008912755918377 -19.045715475724155 a47.21183352290561,47.21183352290561 0 0,0 0.5856892253570413,0.5634325707525086 l -18.334085224887836 18.732899818209344" fill="#c6ff1e" stroke="none" /><path d="M 117.65298651832404 88.62581576622439 l 14.97176687250523 -9.646618974995985 a38.810420010022156,38.810420010022156 0 0,0 0.3570048630495257,0.5646959584410434 l -15.135599331800712 9.387475368840734" fill="#ffcf13" stroke="none" /><line stroke="#e1ed5e" stroke-width="0.3" x1="172.23445277983987" x2="176.4835382374775" y1="55.19839476539836" y2="52.563006222186495" /><path d="M 173.08426987136738 54.67131705675599 a86.0,86.0 0 0,1 12.851231095245387,41.99856678651699" fill="none" id="id87" stroke="none" /><text fill="#e1ed5e" style="font-size:6.75px; font-family:Arial;" text-anchor="middle"><textPath startOffset="22.20632615414155" xlink:href="#id87">March</textPath></text><path d="M 118.03404312379186 89.2402003453031 l 3.424352130734848 -2.043099410427397 a24.987535920359473,24.987535920359473 0 0,0 0.21720156862318132,0.3712678876999387 l -3.459013373828357 1.9838521103735631" fill="#ff0d01" stroke="none" /><path d="M 118.3937258080291 89.86733742301442 l 16.169474879449375 -8.907376064559308 a39.460586833376354,39.460586833376354 0 0,0 0.3226220552084384,0.597769670502753 l -16.320405033876277 8.627725410724096" fill="#ffd814" stroke="none" /><path d="M 119.04729006885535 91.15688171328212 l 17.008192699281516 -7.896423026022439 a39.751856321489626,39.751856321489626 0 0,0 0.2828016776588799,0.623116009938424 l -17.141596693903743 7.6024850072419525" fill="#ffdc14" stroke="none" /><path d="M 119.196687751892 91.48605970444005 l 10.734602347706408 -4.760913167217729 a32.74299713655637,32.74299713655637 0 0,0 0.22407013695798347,0.5171847694759125 l -10.814963194507072 4.575429253155214" fill="#ff7e0b" stroke="none" /><path d="M 119.34039704204932 91.81776055985345 l 17.584742567035857 -7.439483991150715 a40.09369249787768,40.09369249787768 0 0,0 0.26343143130288976,0.6379201060936457 l -17.710195685224942 7.135689314603766" fill="#ffe015" stroke="none" /><path d="M 119.47837535516314 92.15188598940014 l 13.160866920533445 -5.302700157859937 a35.18897625144814,35.18897625144814 0 0,0 0.22153379207148127,0.5637793369761113 l -13.250194262486627 5.075371815988041" fill="#ff9f0e" stroke="none" /><path d="M 119.7369772167798 92.82701384747503 l 10.282331955185349 -3.7368956715167663 a31.940326306670496,31.940326306670496 0 0,0 0.1833479968665963,0.5183494770486547 l -10.345133032861755 3.559348568041497" fill="#ff720a" stroke="none" /><path d="M 119.85752413597 93.16781622104841 l 18.07561883930467 -6.21910108142374 a40.11557518582143,40.11557518582143 0 0,0 0.2190362101289673,0.6548903888305608 l -18.17999234320541 5.907037589670865" fill="#ffe015" stroke="none" /><path d="M 119.97218684219823 93.5106431181261 l 18.547994326537765 -6.026608682308321 a40.50251536974016,40.50251536974016 0 0,0 0.2097345923834851,0.6649159730013963 l -18.648984402689454 5.706442542880506" fill="#ffe515" stroke="none" /><path d="M 120.08093135843002 93.85539295169968 l 6.882006071702401 -2.105839727243322 a28.196983293560223,28.196983293560223 0 0,0 0.13802302865799243,0.4653450377117627 l -6.917234997472096 1.9870653027850294" fill="#ff3d05" stroke="none" /><path d="M 120.18372546131832 94.20196356495316 l 6.908012183745179 -1.9844159301444437 a28.187387488829504,28.187387488829504 0 0,0 0.12994819105194652,0.467492783262351 l -6.941147145363489 1.8652118434631408" fill="#ff3d05" stroke="none" /><path d="M 120.28053869075195 94.5502522615342 l 19.083480958148076 -5.128076664016192 a40.76047610135008,40.76047610135008 0 0,0 0.1762476545102596,0.6791541087710976 l -19.168924944528637 4.798826129696244" fill="#ffe915" stroke="none" /><path d="M 120.37134235888165 94.90015583598534 l 5.336336208233721 -1.3359199697959827 a26.50101502388477,26.50101502388477 0 0,0 0.10697223018193644,0.44346895501947925 l -5.358541238676477 1.2438657831170974" fill="#ff2403" stroke="none" /><path d="M 120.53481517161879 95.60439243477599 l 4.946211558091411 -1.0587679880359573 a26.058260415388553,26.058260415388553 0 0,0 0.09011281993313723,0.439422112910591 l -4.963703673939545 0.9734702189619545" fill="#ff1d03" stroke="none" /><path d="M 120.67395015179393 96.31383870115 l 5.682093194539134 -1.0131161135817874 a26.771705755756006,26.771705755756006 0 0,0 0.07698540354849695,0.45437220963705344 l -5.698690459607854 0.9151581156288962" fill="#ff2803" stroke="none" /><path d="M 120.87857604477298 97.74499172005257 l 5.505302057016406 -0.5946048090425984 a26.5373193530738,26.5373193530738 0 0,0 0.045142348760972194,0.45457729146720954 l -5.514721531459608 0.49975198687095385" fill="#ff2403" stroke="none" /><line stroke="#e1ed5e" stroke-width="0.3" x1="184.98032266829074" x2="189.97916517819016" y1="98.17113171792111" y2="98.06355123074" /><path d="M 185.9800911702706 98.14961562048488 a86.0,86.0 0 0,1 -9.607161424134198,41.387399972396054" fill="none" id="id88" stroke="none" /><text fill="#e1ed5e" style="font-size:6.75px; font-family:Arial;" text-anchor="middle"><textPath startOffset="21.466115282336823" xlink:href="#id88">April</textPath></text><path d="M 120.76222939487914 103.15116336523771 l 3.703513213059958 0.5620964366450326 a24.745926123590632,24.745926123590632 0 0,0 -0.06754252724330369,0.4205873816184291 l -3.693288931455366 -0.6257630479566666" fill="#ff0a01" stroke="none" /><path d="M 120.70491114924044 103.5080841355445 l 4.265596291591087 0.7227304947752503 a25.326390076138964,25.326390076138964 0 0,0 -0.07652616919221346,0.42919939712924554 l -4.252523680059684 -0.7960486426377142" fill="#ff1202" stroke="none" /><path d="M 119.26925614724726 108.34839909993367 l 13.011558541385329 5.637253601569534 a35.18024272868085,35.18024272868085 0 0,0 -0.2455227720574281,0.5535890348706484 l -12.912594684596629 -5.86039097293287" fill="#ff9f0e" stroke="none" /><path d="M 119.12269723197855 108.67885076344098 l 13.002203963260987 5.901060212586313 a35.278649079475585,35.278649079475585 0 0,0 -0.2557288511188715,0.550817194603438 l -12.898700495302284 -6.123997474468582" fill="#ffa00e" stroke="none" /><path d="M 118.97047184881838 109.00673069616215 l 12.701564041903488 6.030401755800674 a35.06042227128828,35.06042227128828 0 0,0 -0.2635320703445618,0.5429541205306653 l -12.595878714944211 -6.248144832296615" fill="#ff9d0e" stroke="none" /><path d="M 118.81262510543309 109.33194174019688 l 12.547188909759743 6.223992412165105 a35.00607122229095,35.00607122229095 0 0,0 -0.2724161297477806,0.5375028681172968 l -12.438194110225693 -6.439049491985096" fill="#ff9d0e" stroke="none" /><line stroke="#e1ed5e" stroke-width="0.3" x1="174.80103733775053" x2="179.2010983576182" y1="140.37084112569926" y2="142.7455964860345" /><path d="M 175.68104954172406 140.8457921977663 a86.0,86.0 0 0,1 -30.038265399797805,32.042727171017184" fill="none" id="id89" stroke="none" /><text fill="#e1ed5e" style="font-size:6.75px; font-family:Arial;" text-anchor="middle"><textPath startOffset="22.206326154141568" xlink:href="#id89">May</textPath></text><path d="M 117.55443506779139 111.5257021239791 l 10.46755001675525 6.872671378774968 a33.522109056940266,33.522109056940266 0 0,0 -0.32084951526324457,0.47962649188465434 l -10.347697396081285 -7.051834784865429" fill="#ff880c" stroke="none" /><path d="M 117.35343817320211 111.8261652097733 l 11.769405046170597 8.020711925069186 a35.24256700618863,35.24256700618863 0 0,0 -0.34594622818730253,0.4983613435927221 l -11.629597910821158 -8.222114530848927" fill="#ffa00e" stroke="none" /><path d="M 116.93607887273984 112.41649034213515 l 11.264310947234286 8.258299287461645 a34.96725485688837,34.96725485688837 0 0,0 -0.3600607094001634,0.48236016052171005 l -11.12048897113903 -8.45097232749267" fill="#ff9c0e" stroke="none" /><path d="M 116.498646956653 112.99209946851258 l 11.116408870132082 8.753777819045492 a35.149317024972056,35.149317024972056 0 0,0 -0.37841099918340726,0.4721259048323218 l -10.96407995889382 -8.943831557456065" fill="#ff9f0e" stroke="none" /><path d="M 116.27256486870786 113.27417163493432 l 11.047512375792488 9.011890663735004 a35.256987866600795,35.256987866600795 0 0,0 -0.3876656919096633,0.46696829919863775 l -10.890750683989282 -9.200720220047412" fill="#ffa00e" stroke="none" /><path d="M 116.0416608686014 113.55231037782055 l 10.974054592879517 9.271096999497717 a35.36604029583641,35.36604029583641 0 0,0 -0.39687010964454866,0.4616495979554748 l -10.812841973664188 -9.458623696614719" fill="#ffa20e" stroke="none" /><path d="M 115.32070863581623 114.36230785411682 l 10.301915906405204 9.65747024188687 a35.120772033269816,35.120772033269816 0 0,0 -0.41725726346731923,0.43749257257292834 l -10.134152091558919 -9.833369931042304" fill="#ff9e0e" stroke="none" /><path d="M 115.07121518719521 114.62390073753431 l 10.197689077750347 9.895021136183013 a35.209303494963336,35.209303494963336 0 0,0 -0.42579679561003975,0.43132990592376785 l -10.025851657084772 -10.069091536087445" fill="#ff9f0e" stroke="none" /><path d="M 113.48314897796784 116.09983520530334 l 10.758645732066412 12.84658528964913 a37.756587110516875,37.756587110516875 0 0,0 -0.5018567288928452,0.41299392164666043 l -10.535918874628877 -13.02987433015297" fill="#ffc212" stroke="none" /><path d="M 113.20401910651253 116.32954008644616 l 8.924661609298115 11.03721664830979 a35.19400352903318,35.19400352903318 0 0,0 -0.4743523333415212,0.3768541820982607 l -8.733351783239241 -11.189204744413178" fill="#ff9f0e" stroke="none" /><path d="M 112.92097659922987 116.55440617244103 l 8.576210544326644 10.987874769436303 a34.9386075075466,34.9386075075466 0 0,0 -0.4772801314455552,0.36595805252357577 l -8.385801684387596 -11.13387216378725" fill="#ff9c0e" stroke="none" /><path d="M 112.04921762599082 117.19931262002967 l 8.031496961647832 11.464331655213211 a34.9977085176711,34.9977085176711 0 0,0 -0.496372692188734,0.3414096638552678 l -7.832967384836215 -11.600882108433572" fill="#ff9d0e" stroke="none" /><path d="M 111.45004920935366 117.60387380957326 l 7.104040691673583 10.922104664155814 a34.029188940364946,34.029188940364946 0 0,0 -0.49377681579583477,0.31515172608235253 l -6.914982073830817 -11.042770819061975" fill="#ff8f0d" stroke="none" /><path d="M 111.1453310114006 117.79835938074945 l 7.130026364669661 11.386182384605704 a34.4343747623918,34.4343747623918 0 0,0 -0.5050716030544113,0.31025623059992163 l -6.932975561682941 -11.507227082034003" fill="#ff950d" stroke="none" /><line stroke="#e1ed5e" stroke-width="0.3" x1="143.8653032363475" x2="146.44561519142675" y1="172.8068346515853" y2="177.08958963109032" /><path d="M 144.38136562736335 173.6633856474863 a86.0,86.0 0 0,1 -40.68145358897372,12.25698825130547" fill="none" id="id90" stroke="none" /><text fill="#e1ed5e" style="font-size:6.75px; font-family:Arial;" text-anchor="middle"><textPath startOffset="21.466115282336833" xlink:href="#id90">June</textPath></text><path d="M 109.2508944713604 118.85261126421891 l 5.970366798016009 12.167148235909242 a34.5530356709278,34.5530356709278 0 0,0 -0.5362093622519738,0.257413079270229 l -5.7600447677638025 -12.268115591679031" fill="#ff960d" stroke="none" /><path d="M 108.92500713936063 119.00905698771935 l 5.187804143198685 11.049320528191194 a33.20658821960079,33.20658821960079 0 0,0 -0.5194965229291165,0.23847537398133373 l -4.996839624502149 -11.136982972506601" fill="#ff840c" stroke="none" /><path d="M 108.59647513512805 119.15986991738527 l 7.569532079269671 16.871013723012588 a39.49132012434947,39.49132012434947 0 0,0 -0.6226076011259187,0.27293287558281704 l -7.2780038034859995 -16.99881115188986" fill="#ffd814" stroke="none" /><path d="M 107.93186726928326 119.44442032107085 l 5.291936057787384 12.972812772388545 a35.01065517622776,35.01065517622776 0 0,0 -0.5599686279838402,0.22282307351018274 l -5.067846353761678 -13.061982690304797" fill="#ff9d0e" stroke="none" /><path d="M 107.2578585660854 119.70592522655815 l 1.6487826661903475 4.476635585958571 a25.770613215279603,25.770613215279603 0 0,0 -0.4175826470350717,0.14973028034782684 l -1.5714804585255409 -4.5043534073463585" fill="#ff1902" stroke="none" /><path d="M 106.91757812671514 119.82793768551818 l 6.269514230731549 17.97038431779084 a40.032643568838466,40.032643568838466 0 0,0 -0.6525897887690131,0.22139388812652208 l -5.959254709025308 -18.075641192815482" fill="#ffdf14" stroke="none" /><path d="M 106.57524785965236 119.94407469862006 l 6.059793137250151 18.380594856220668 a40.353742793960805,40.353742793960805 0 0,0 -0.6615682042690945,0.21181324737165136 l -5.742503587890116 -18.482180950252026" fill="#ffe315" stroke="none" /><path d="M 106.2309692047433 120.05430185196036 l 4.191070599916647 13.488911938390416 a35.12500683380851,35.12500683380851 0 0,0 -0.578935423244691,0.17442849394393273 l -3.95826020223171 -13.559055801440074" fill="#ff9e0e" stroke="none" /><path d="M 105.88484417918355 120.15858648285463 l 4.0359770434136575 13.825275537500769 a35.40233850396453,35.40233850396453 0 0,0 -0.5864461972256895,0.16573555318871247 l -3.797399678083362 -13.892699884028" fill="#ffa20f" stroke="none" /><path d="M 105.53697534728816 120.25689768951611 l 5.219300011409971 19.094689737747135 a40.7951577106607,40.7951577106607 0 0,0 -0.6789665479470547,0.179321236343742 l -4.889843020651419 -19.18170232339446" fill="#ffe915" stroke="none" /><path d="M 104.83641907484287 120.43548508189849 l 1.5080229848234106 6.371900518261043 a27.54791948158887,27.54791948158887 0 0,0 -0.46238507349561475,0.1052373373310477 l -1.3981177619349339 -6.396914589169775" fill="#ff3304" stroke="none" /><path d="M 104.48393922423573 120.51570834832081 l 1.2692790113200385 5.8074288492001935 a26.944518403293934,26.944518403293934 0 0,0 -0.4539619370837455,0.09513213770513768 l -1.169125612806915 -5.828416967631872" fill="#ff2a04" stroke="none" /><path d="M 104.13013068566511 120.58985236759428 l 3.9162523741274686 19.523609385386766 a40.91251757289925,40.91251757289925 0 0,0 -0.691679462275404,0.132562015156076 l -3.5796052972803603 -19.588128598891313" fill="#ffeb16" stroke="none" /><path d="M 103.7750983002368 120.6578951692458 l 2.6117632489038707 14.291954039808846 a35.5286357771242,35.5286357771242 0 0,0 -0.6025504844865576,0.10476112526328414 l -2.365363792945263 -14.334793743593137" fill="#ffa40f" stroke="none" /><path d="M 103.41894727170886 120.7198165907248 l 5.374962804190141 32.573840610628494 a54.014319882030854,54.014319882030854 0 0,0 -0.9186656149256597,0.14347667573878853 l -4.813461325655965 -32.66153559371439" fill="#78ff26" stroke="none" /><path d="M 103.06178313531738 120.77559828337769 l 2.8475523102370097 19.321944198459978 a40.53064468387916,40.53064468387916 0 0,0 -0.691088811526791,0.095778612062021 l -2.5145349075233883 -19.3680973760146" fill="#ffe615" stroke="none" /><path d="M 102.70371172650421 120.8252237178851 l 3.8619183991035757 29.74626098379776 a50.995907324792555,50.995907324792555 0 0,0 -0.8714777464514902,0.10552381856999354 l -3.349313229600705 -29.808330331093106" fill="#9aff23" stroke="none" /><path d="M 101.98527174616119 120.90594882070398 l 0.7422487787507613 7.816267476126938 a28.851431112091397,28.851431112091397 0 0,0 -0.4948098503003899,0.04269427593518447 l -0.6075946107088298 -7.827886004340785" fill="#ff4606" stroke="none" /><path d="M 101.62511606390274 120.93702456842531 l 1.739087638125223 22.40536624727615 a43.47275823052571,43.47275823052571 0 0,0 -0.7465664528372298,0.051487593601736395 l -1.3531584245090629 -22.43198218539417" fill="#f3ff19" stroke="none" /><path d="M 101.26447882468166 120.96189622390904 l 0.8307379416376535 13.771557247118226 a34.79659068532262,34.79659068532262 0 0,0 -0.5981897340920878,0.030919576485937416 l -0.5935601391320862 -13.783816630366365" fill="#ff9a0e" stroke="none" /><line stroke="#e1ed5e" stroke-width="0.3" x1="102.19456741930631" x2="102.32365962044197" y1="184.97166512339345" y2="189.96999836594603" /><path d="M 102.22038585953345 185.97133177190398 a86.0,86.0 0 0,1 -42.740103519485714,-10.115201625700543" fill="none" id="id91" stroke="none" /><text fill="#e1ed5e" style="font-size:6.75px; font-family:Arial;" text-anchor="middle"><textPath startOffset="22.20632615414155" xlink:href="#id91">July</textPath></text><path d="M 100.54218724476979 120.99299961872073 l 0.37180068153067347 14.395786033158203 a35.40058649011419,35.40058649011419 0 0,0 -0.6092951885223001,0.010489569226943293 l -0.12394580311570536 -14.400053079664305" fill="#ffa20f" stroke="none" /><path d="M 100.18074693466247 120.99922214144158 l 0.43534467011564304 50.57844799925988 a71.58032153906926,71.58032153906926 0 0,0 -1.2321832095561622,0.0 l 0.43534467011560823 -50.57844799925988" fill="#3dffad" stroke="none" /><path d="M 99.81925306533755 120.99922214144158 l -0.06340276670979852 7.366148615507714 a28.36642147426908,28.36642147426908 0 0,0 -0.48822705591881427,-0.008405271530122509 l 0.19018951252128075 -7.3639658666984324" fill="#ff3f05" stroke="none" /><path d="M 99.45781275523022 120.99299961872073 l -0.6628963211478397 25.66674585459304 a46.67530475567642,46.67530475567642 0 0,0 -0.8029922708385543,-0.027656677409446908 l 1.104608943661037 -25.651532378757498" fill="#ccff1d" stroke="none" /><path d="M 99.09653310690486 120.98055641714683 l -0.9304971626545978 21.608260763368218 a42.62828606680212,42.62828606680212 0 0,0 -0.7328247568189805,-0.03787866930488877 l 1.3023099878870672 -21.589042287301126" fill="#feff18" stroke="none" /><path d="M 98.73552117531835 120.96189622390904 l -1.3881254330085757 23.011647727529443 a44.053477467698364,44.053477467698364 0 0,0 -0.7565392615256357,-0.052175376877913716 l 1.7840274553131414 -22.984344006135245" fill="#ecff1a" stroke="none" /><path d="M 98.37488393609728 120.93702456842531 l -0.6887099128464397 8.872927101068358 a29.899615535792897,29.899615535792897 0 0,0 -0.5127864967885282,-0.04424537663596458 l 0.8413407273765094 -8.85975747215373" fill="#ff5507" stroke="none" /><path d="M 97.65516085044442 120.86867818915974 l -2.31701068075388 20.62100944820159 a41.75077273639579,41.75077273639579 0 0,0 -0.7134860667383882,-0.08639322640800999 l 2.671624170543658 -20.57807069306823" fill="#fff517" stroke="none" /><path d="M 97.2962882734958 120.8252237178851 l -1.6455413145975455 12.674711463350032 a33.78108433964913,33.78108433964913 0 0,0 -0.5760019267016496,-0.0798286184993356 l 1.863471832486026 -12.644508279358092" fill="#ff8c0c" stroke="none" /><path d="M 96.93821686468263 120.77559828337769 l -1.3418666433716906 9.105178616664189 a30.203525614130292,30.203525614130292 0 0,0 -0.5136960067594704,-0.08022875156386831 l 1.4983985137396783 -9.080731557753214" fill="#ff5a08" stroke="none" /><path d="M 96.58105272829116 120.7198165907248 l -1.2049450194094415 7.30231788324493 a28.401063367365417,28.401063367365417 0 0,0 -0.481669901408318,-0.08374448643915455 l 1.3304638922898095 -7.280494818284769" fill="#ff4006" stroke="none" /><path d="M 96.22490169976321 120.6578951692458 l -1.3295973413307496 7.275752923518758 a28.396242944506728,28.396242944506728 0 0,0 -0.48007551760904277,-0.0920076155391325 l 1.4546404735114873 -7.251788109631157" fill="#ff4006" stroke="none" /><path d="M 95.86986931433489 120.58985236759428 l -3.6734093856382772 18.31296941729759 a39.67776178757434,39.67776178757434 0 0,0 -0.6684919481816476,-0.14008898736693426 l 3.9880927952493117 -18.247024449204115" fill="#ffdb14" stroke="none" /><path d="M 95.16358092515715 120.4354850818985 l -4.717597577470118 19.933424590573477 a41.484070464901045,41.484070464901045 0 0,0 -0.6934688891516527,-0.17043778093922746 l 5.060019751364981 -19.84926555132022" fill="#fff216" stroke="none" /><path d="M 94.81253420990036 120.34920634021253 l -4.0563946343701724 15.912280630296765 a37.421175727915,37.421175727915 0 0,0 -0.6228123122922389,-0.16449039232939974 l 4.329697389473901 -15.840098888663784" fill="#ffbd11" stroke="none" /><path d="M 94.46302465271185 120.25689768951611 l -6.04701095851388 22.12285130978455 a43.93440410403599,43.93440410403599 0 0,0 -0.7277814207471837,-0.20567829911527608 l 6.426923547365678 -22.01548421733075" fill="#edff19" stroke="none" /><path d="M 94.11515582081647 120.15858648285463 l -2.0751470759176027 7.108434908523216 a28.40513890723198,28.40513890723198 0 0,0 -0.4681775919187636,-0.14105806792577527 l 2.1971996422766122 -7.071661471491715" fill="#ff4006" stroke="none" /><path d="M 93.76903079525671 120.05430185196036 l -6.809526500884053 21.91638177471595 a43.9498897875642,43.9498897875642 0 0,0 -0.7205242352125724,-0.23068910670965884 l 7.185772081187566 -21.795919821346587" fill="#edff1a" stroke="none" /><path d="M 93.42475214034765 119.94407469862007 l -3.189288493491647 9.673765811926357 a31.185936681460053,31.185936681460053 0 0,0 -0.5083757158460469,-0.17246864461757294 l 3.3553339422749198 -9.61743418041066" fill="#ff6809" stroke="none" /><path d="M 92.7421414339146 119.70592522655815 l -8.371087765831085 22.72847122555544 a45.22103454921256,45.22103454921256 0 0,0 -0.7281227823388982,-0.2753137332907249 l 8.761080768930267 -22.581009242158085" fill="#deff1b" stroke="none" /><path d="M 92.40401165467489 119.57807347666478 l -5.6525085746648 14.568904423131864 a36.6270224059803,36.6270224059803 0 0,0 -0.5858211844529245,-0.2331103392651891 l 5.902450835159582 -14.469447239460608" fill="#ffb310" stroke="none" /><path d="M 92.06813273071674 119.44442032107085 l -3.4156269558649797 8.373171654928585 a30.043036606391183,30.043036606391183 0 0,0 -0.4771528643616174,-0.1994499360013999 l 3.559251279724059 -8.313136675907211" fill="#ff5708" stroke="none" /><path d="M 91.7346041902142 119.30500536409082 l -2.930871446303035 6.845466362948086 a28.44650368703381,28.44650368703381 0 0,0 -0.4484785356690082,-0.19659981046803163 l 3.0482706566297866 -6.7940019991856015" fill="#ff4006" stroke="none" /><path d="M 91.40352486487194 119.15986991738527 l -11.685812582149074 26.04540179939521 a49.54682417707884,49.54682417707884 0 0,0 -0.7751294023930948,-0.355823890942275 l 12.132409980309589 -25.840390838118864" fill="#aaff21" stroke="none" /><path d="M 91.07499286063937 119.00905698771935 l -4.290873672467512 9.13898004712215 a31.096165270773433,31.096165270773433 0 0,0 -0.4825641112150421,-0.23166009875596816 l 4.447550451682797 -9.06376567186662" fill="#ff6609" stroke="none" /><path d="M 90.42595943632237 118.69057910512821 l -9.323012848269089 18.200519203959306 a41.44938795814393,41.44938795814393 0 0,0 -0.6322198117953439,-0.3307475249777161 l 9.634923562590927 -18.037342260036873" fill="#fff116" stroke="none" /><line stroke="#e1ed5e" stroke-width="0.3" x1="58.666819895761336" x2="56.23545636021788" y1="174.27360380694188" y2="178.64263932499728" /><path d="M 58.180547188652646 175.14741091055294 a86.0,86.0 0 0,1 -31.652253787137756,-30.449443065178592" fill="none" id="id92" stroke="none" /><text fill="#e1ed5e" style="font-size:6.75px; font-family:Arial;" text-anchor="middle"><textPath startOffset="22.20632615414155" xlink:href="#id92">August</textPath></text><path d="M 89.7882731507175 118.34994917583269 l -4.305525544128298 7.736808482647074 a29.854137773284364,29.854137773284364 0 0,0 -0.4468897629302907,-0.2537556704981962 l 4.438064073979796 -7.661549646354245" fill="#ff5507" stroke="none" /><path d="M 89.4739219176387 118.17145234162733 l -7.239935096818966 12.49849512220304 a35.443996695024694,35.443996695024694 0 0,0 -0.5253005024121679,-0.31035679599508403 l 7.454003470259517 -12.372019753914207" fill="#ffa30f" stroke="none" /><path d="M 89.1626897886671 117.98757091392108 l -15.850583476107841 26.30851094447436 a51.71447125783855,51.71447125783855 0 0,0 -0.7585301339008121,-0.4659511616121621 l 16.301092809940965 -26.031771316033822" fill="#91ff23" stroke="none" /><path d="M 88.8546689885994 117.79835938074946 l -4.42058761328675 7.059387194053353 a29.329258214409535,29.329258214409535 0 0,0 -0.42557898620930196,-0.27162464457159863 l 4.541448401542975 -6.98224812065795" fill="#ff4d07" stroke="none" /><path d="M 88.54995079064634 117.60387380957326 l -4.815795929360002 7.40404362313614 a29.832426190268635,29.832426190268635 0 0,0 -0.4280602290047881,-0.28369497837351554 l 4.942530857104752 -7.320050623671306" fill="#ff5407" stroke="none" /><path d="M 88.24862548938628 117.40417183066458 l -4.966552318050084 7.355627196738444 a29.87535314144327,29.87535314144327 0 0,0 -0.42372229774470405,-0.2914400600949959 l 5.092431500417678 -7.269046347278348" fill="#ff5507" stroke="none" /><path d="M 87.95078237400918 117.19931262002967 l -31.107007225293234 44.40281174665439 a75.21490191380295,75.21490191380295 0 0,0 -1.053985246274222,-0.7519904881727211 l 31.866719799416344 -43.860776996637455" fill="#42ffd5" stroke="none" /><path d="M 87.36589467227662 116.77436683061367 l -4.375637487919186 5.809556469272171 a28.273042677954383,28.273042677954383 0 0,0 -0.38622493820869946,-0.29614081314218066 l 4.474991154621372 -5.733376314302623" fill="#ff3e05" stroke="none" /><path d="M 87.07902340077011 116.55440617244103 l -14.003092020123216 17.94081671698129 a43.75872339557634,43.75872339557634 0 0,0 -0.5897894659700728,-0.46856442181406527 l 14.309838978810648 -17.697118381162095" fill="#f0ff19" stroke="none" /><path d="M 86.79598089348748 116.32954008644616 l -15.224876445291727 18.828754201208216 a45.21402171354265,45.21402171354265 0 0,0 -0.6009801937561338,-0.49456578493800785 l 15.546726767592551 -18.563893297413028" fill="#deff1b" stroke="none" /><path d="M 86.51685102203217 116.09983520530335 l -9.08743410281593 10.851040193463858 a35.15367555983922,35.15367555983922 0 0,0 -0.4605709415105304,-0.39250854822846803 l 9.272870520903517 -10.693007255012438" fill="#ff9f0e" stroke="none" /><path d="M 86.24171649860922 115.8653595955263 l -13.417180384750832 15.47201666113332 a41.479356167597885,41.479356167597885 0 0,0 -0.5353950802732715,-0.4724239090225855 l 13.681517817930692 -15.238769610338446" fill="#fff216" stroke="none" /><path d="M 85.97065885151581 115.62618273729859 l -4.8685095389946325 5.42265092205211 a28.287491211227245,28.287491211227245 0 0,0 -0.35952114993947343,-0.32841404630551724 l 4.961130238400961 -5.338044109160017" fill="#ff3e05" stroke="none" /><path d="M 85.70375840098266 115.38237550388516 l -27.678239647672292 29.781049277754374 a61.65705161565473,61.65705161565473 0 0,0 -0.7711951436451562,-0.7292131438903325 l 28.186770625708267 -29.300201497118113" fill="#30ff38" stroke="none" /><path d="M 85.44109423537348 115.13401014063109 l -5.239594908972524 5.44656884021142 a28.557676027807275,28.557676027807275 0 0,0 -0.35132747437241185,-0.34384787830484137 l 5.33257233572073 -5.3555708589840085" fill="#ff4206" stroke="none" /><path d="M 85.18274418774928 114.88116024355367 l -22.609611005607263 22.7071226063788 a53.04384382195738,53.04384382195738 0 0,0 -0.6414753057941053,-0.649811098047787 l 22.9971269364569 -22.314571014350346" fill="#83ff25" stroke="none" /><path d="M 84.9287848128048 114.62390073753433 l -6.3499289855651515 6.161462763413606 a29.84789361976357,29.84789361976357 0 0,0 -0.35461209110803926,-0.3718093598063214 l 6.4550476280521485 -6.051246287024785" fill="#ff5507" stroke="none" /><path d="M 84.43433777217949 114.09645910891817 l -46.69698668346152 42.28937732675451 a84.0,84.0 0 0,0 -0.9613646014066468,-1.0801033210365434 l 47.4180101345165 -41.4792998359771" fill="#4dd2ff" stroke="none" /><path d="M 84.19399662182784 113.82643327865904 l -4.422076737560227 3.8682485067301813 a26.875211415999562,26.875211415999562 0 0,0 -0.3015878512880578,-0.350814805428617 l 4.488007098419064 -3.791556602140034" fill="#ff2904" stroke="none" /><path d="M 83.95833913139862 113.55231037782056 l -7.023156166213311 5.933300359361451 a30.193953213358157,30.193953213358157 0 0,0 -0.33199545599960995,-0.3999099137871119 l 7.1242476221064575 -5.811529188460578" fill="#ff5a08" stroke="none" /><path d="M 83.72743513129214 113.27417163493432 l -5.6489958160312 4.608108225841007 a28.29011763626634,28.29011763626634 0 0,0 -0.3045661363533665,-0.3799930842851206 l 5.727479864439427 -4.510187307977627" fill="#ff3e05" stroke="none" /><path d="M 83.28015986056508 112.70617746262583 l -7.167095229806531 5.4466061351073805 a30.001820506103467,30.001820506103467 0 0,0 -0.30893122205148743,-0.4138638567567481 l 7.2597877185531035 -5.322429398841324" fill="#ff5708" stroke="none" /><path d="M 83.06392112726016 112.41649034213515 l -5.9509009449410675 4.362834199408178 a28.378857927079643,28.378857927079643 0 0,0 -0.2854375363571857,-0.396447772927702 l 6.025118273673861 -4.2597528210293385" fill="#ff3f05" stroke="none" /><path d="M 82.85270091963577 112.12312394758628 l -4.878288743424927 3.448945446830051 a26.974355677345976,26.974355677345976 0 0,0 -0.2647842480578116,-0.3814414578696787 l 4.936933898644873 -3.36446272677336" fill="#ff2b04" stroke="none" /><path d="M 82.6465618267979 111.8261652097733 l -16.999361673818587 11.58486621548674 a41.57151969466569,41.57151969466569 0 0,0 -0.39789268390402216,-0.5947955756482259 l 17.19625746313334 -11.290533725632693" fill="#fff316" stroke="none" /><path d="M 82.44556493220864 111.52570212397912 l -6.351112229470992 4.16994494155792 a28.597701452871156,28.597701452871156 0 0,0 -0.2666328982413032,-0.41382017921059816 l 6.421949991089341 -4.060003162425873" fill="#ff4306" stroke="none" /><path d="M 82.24976979558568 111.22182372390057 l -11.250682263728335 7.11276257734257 a34.31049371289496,34.31049371289496 0 0,0 -0.3113029658455607,-0.5019195019652557 l 11.371449869241852 -6.9180467440120506" fill="#ff930d" stroke="none" /><path d="M 82.05923443525364 110.91462005526583 l -12.37614771793569 7.529274578702906 a35.48651124383185,35.48651124383185 0 0,0 -0.3129895493860659,-0.5245884878962921 l 12.503918143019986 -7.315123996920503" fill="#ffa30f" stroke="none" /><line stroke="#e1ed5e" stroke-width="0.3" x1="26.63291911575756" x2="22.317208475507996" y1="142.92168965132927" y2="145.44649492493687" /><path d="M 25.769776987707644 143.4266507060508 a86.0,86.0 0 0,1 -11.730757126820373,-40.83630448921669" fill="none" id="id93" stroke="none" /><text fill="#e1ed5e" style="font-size:6.75px; font-family:Arial;" text-anchor="middle"><textPath startOffset="21.46611528233685" xlink:href="#id93">September</textPath></text><path d="M 79.58551787078972 104.9243191809786 l -5.140978138128524 1.2400910831019583 a26.288429077817383,26.288429077817383 0 0,0 -0.10232387216169193,-0.4408085632080294 l 5.1615625762207715 -1.1514138625453547" fill="#ff2103" stroke="none" /><path d="M 79.50377843672027 104.57218783832718 l -20.911168900498907 4.664752078176084 a42.425146364401826,42.425146364401826 0 0,0 -0.15286378485327437,-0.714128711860125 l 20.988366724076624 -4.304109546899795" fill="#fffe18" stroke="none" /><path d="M 79.4281124754447 104.21870165774334 l -13.413177706382308 2.750656445986198 a34.692313430053986,34.692313430053986 0 0,0 -0.1149307890741925,-0.5860296174079851 l 13.458538428432167 -2.519363101510258" fill="#ff980e" stroke="none" /><path d="M 79.35854240842038 103.8639653848113 l -21.427604821102037 4.011127748164893 a42.79980261794619,42.79980261794619 0 0,0 -0.12932379729948526,-0.7253165344784077 l 21.49347506074071 -3.641692462953271" fill="#fbff18" stroke="none" /><path d="M 79.29508885075956 103.50808413554451 l -14.254926808647873 2.4152473889075474 a35.458089717162935,35.458089717162935 0 0,0 -0.09678073791846359,-0.6026537474027112 l 14.294389300927628 -2.1695144118116225" fill="#ffa30f" stroke="none" /><path d="M 79.18660465613746 102.79330883721812 l -20.979496565774195 2.8156008277066125 a42.16759041965602,42.16759041965602 0 0,0 -0.09035609178959939,-0.7202269537148084 l 21.02485416681064 -2.4540561197043953" fill="#fffb17" stroke="none" /><path d="M 79.10278846688536 102.07522291339032 l -14.502379582231406 1.4401763776013625 a35.57371337531116,35.57371337531116 0 0,0 -0.05526698860919674,-0.6098666139786105 l 14.525021167117677 -1.1903283750741858" fill="#ffa40f" stroke="none" /><path d="M 79.07016306316243 101.71520430193888 l -20.1094463798871 1.6479731325419107 a41.17685924893006,41.17685924893006 0 0,0 -0.05181115832147733,-0.7069220911395765 l 20.13483409687291 -1.3015779049055736" fill="#ffee16" stroke="none" /><path d="M 79.04373962182676 101.35467743843564 l -8.875668743094616 0.5737506587683852 a29.894193918258356,29.894193918258356 0 0,0 -0.028774797445893348,-0.513793338212028 l 8.884229891428042 -0.42088560422091953" fill="#ff5507" stroke="none" /><path d="M 79.0235259727143 100.99374915477108 l -12.799397344979154 0.6063645528131725 a33.81375239208124,33.81375239208124 0 0,0 -0.022539067323178202,-0.5816331775168875 l 12.807938545153533 -0.3859541282822882" fill="#ff8c0c" stroke="none" /><path d="M 79.0095281055655 100.63252640178507 l -14.330324686084671 0.43182967756452995 a35.33682958254834,35.33682958254834 0 0,0 -0.013087983114458817,-0.6081471470867439 l 14.335634731884136 -0.18509271468765723" fill="#ffa10e" stroke="none" /><line stroke="#e1ed5e" stroke-width="0.3" x1="15.007084014347285" x2="10.007500721073583" y1="101.09737516637583" y2="101.16192664675087" /><path d="M 14.007167355692545 101.11028546245083 a86.0,86.0 0 0,1 10.666146001902534,-42.60595125391555" fill="none" id="id94" stroke="none" /><text fill="#e1ed5e" style="font-size:6.75px; font-family:Arial;" text-anchor="middle"><textPath startOffset="22.20632615414155" xlink:href="#id94">October</textPath></text><path d="M 79.00175016825051 100.2711162175752 l -19.1502124472265 0.24725551920062444 a40.151808584718154,40.151808584718154 0 0,0 -0.002974489402219153,-0.6911665826836149 l 19.151631233918224 0.08242054168666575" fill="#ffe115" stroke="none" /><path d="M 79.00019446554 99.90962569577889 l -8.91877687259988 -0.0383826532603822 a29.918859463591396,29.918859463591396 0 0,0 0.006649100198221417,-0.5149801379177431 l 8.916794765283942 0.19189904923859732" fill="#ff5607" stroke="none" /><path d="M 79.00486145842228 99.54816195383935 l -11.505517829834131 -0.24761116417515658 a32.50818195117088,32.50818195117088 0 0,0 0.016855191322658714,-0.5593417424713348 l 11.499550944055827 0.4456230540714859" fill="#ff7a0b" stroke="none" /><path d="M 79.01574976396665 99.18683210126434 l -10.505954388376528 -0.4071198521803209 a31.513839649941755,31.513839649941755 0 0,0 0.025670861291362024,-0.5418713088217813 l 10.497389918851667 0.5879022676251112" fill="#ff6c0a" stroke="none" /><path d="M 79.03285615573316 98.82574320788736 l -11.562823273325508 -0.6475714511022093 a32.58094257107083,32.58094257107083 0 0,0 0.036179444060786985,-0.5596799862193798 l 11.549963238260307 0.8465105015746008" fill="#ff7b0b" stroke="none" /><path d="M 79.05617556472873 98.46500227214037 l -7.428499702563544 -0.5444435518490016 a28.4484244382377,28.4484244382377 0 0,0 0.03999782933623819,-0.4880748286887223 l 7.418027389407809 0.6722322977455024" fill="#ff4006" stroke="none" /><path d="M 79.08570108090925 98.10471618934814 l -31.028245999213485 -2.8118242233571897 a52.15539127102669,52.15539127102669 0 0,0 0.08872097558900352,-0.8934081164701364 l 30.975247897942253 3.3455078705317565" fill="#8cff24" stroke="none" /><path d="M 79.16333360222342 97.38593545837743 l -9.060567211244797 -1.1366937024259502 a30.131590812263717,30.131590812263717 0 0,0 0.068992735285993,-0.5140760148784344 l 9.03965847690097 1.292488059369044" fill="#ff5908" stroke="none" /><path d="M 79.21141760316559 97.0276538004421 l -30.444019168961283 -4.352878082245254 a51.75363150522184,51.75363150522184 0 0,0 0.13368235725106378,-0.880799706518994 l 30.364580918270917 4.87627690115634" fill="#91ff24" stroke="none" /><path d="M 79.26566170972629 96.67025291283419 l -21.263235386236868 -3.414683174348293 a42.535673666539736,42.535673666539736 0 0,0 0.12231667389074306,-0.7219199332530931 l 21.2013068508259 3.780188895917214" fill="#ffff18" stroke="none" /><path d="M 79.32604984820605 96.31383870115002 l -8.8172174460204 -1.5721081590324442 a29.95627420047549,29.95627420047549 0 0,0 0.09488189965725315,-0.5068629019510136 l 8.788849822453287 1.7236491384460304" fill="#ff5608" stroke="none" /><path d="M 79.3925641242962 95.95851677861259 l -24.863279305243363 -4.876129507178586 a46.336915691956676,46.336915691956676 0 0,0 0.16023902107987764,-0.781382374515519 l 24.77566098824849 5.303387537857507" fill="#d0ff1d" stroke="none" /><path d="M 79.62865764111835 94.90015583598534 l -23.368505846683007 -5.850166182690926 a45.08965566112472,45.08965566112472 0 0,0 0.1949669585111851,-0.7512872231713547 l 23.264342556301514 6.251549831411144" fill="#dfff1b" stroke="none" /><path d="M 79.81627453868168 94.20196356495316 l -23.840560378264634 -6.848509605921089 a45.80472541617978,45.80472541617978 0 0,0 0.22421217415241884,-0.7559319893996098 l 23.71914230700051 7.257870982067239" fill="#d6ff1c" stroke="none" /><path d="M 79.91906864156998 93.8553929516997 l -8.504901357961183 -2.6024329198898717 a29.894155621034326,29.894155621034326 0 0,0 0.15480121386511464,-0.4907621511987833 l 8.458844660327864 2.7484452375150696" fill="#ff5507" stroke="none" /><path d="M 80.02781315780177 93.51064311812611 l -13.920884169043461 -4.523169455499073 a35.63728383174572,35.63728383174572 0 0,0 0.1945841622272107,-0.5817818779197087 l 13.840962713044478 4.762124436341104" fill="#ffa50f" stroke="none" /><path d="M 80.2630227832202 92.82701384747504 l -19.3937322585679 -7.048241045655969 a41.63478986456336,41.63478986456336 0 0,0 0.25059268559903575,-0.6714638105606138 l 19.26953498446724 7.381027993245924" fill="#fff417" stroke="none" /><path d="M 80.38941819471856 92.48833698450439 l -5.433763014999015 -2.0813557231506263 a26.81874747256341,26.81874747256341 0 0,0 0.16883863809366556,-0.4296759178377709 l 5.397130827023659 2.174580645884161" fill="#ff2903" stroke="none" /><path d="M 80.52162464483688 92.15188598940014 l -8.241646546408713 -3.3206764194600575 a29.885472957512658,29.885472957512658 0 0,0 0.19635938787074725,-0.47549983281594604 l 8.183265471651765 3.462050822729315" fill="#ff5507" stroke="none" /><path d="M 80.65960295795068 91.81776055985345 l -19.250779936250993 -8.14432560539017 a41.90269283419191,41.90269283419191 0 0,0 0.2867526782324718,-0.6618647170107825 l 19.107736548175843 8.474489466987551" fill="#fff717" stroke="none" /><path d="M 80.95270993114464 91.15688171328213 l -9.93905813283742 -4.614423700669165 a31.958000851305815,31.958000851305815 0 0,0 0.23594410348539505,-0.496958455188583 l 9.858155835510274 4.78482457149828" fill="#ff730a" stroke="none" /><path d="M 81.43458229118936 90.18545643968196 l -37.99879446392526 -20.087930654465108 a63.981779147567124,63.981779147567124 0 0,0 0.5231025370109401,-0.9692295555744265 l 37.64738382769585 20.739041193372007" fill="#33ff55" stroke="none" /><line stroke="#e1ed5e" stroke-width="0.3" x1="26.266209847984243" x2="21.928928074336255" y1="57.711370442889674" y2="55.22380399835377" /><path d="M 25.398753493254645 57.213857153982495 a86.0,86.0 0 0,1 29.58750427330803,-30.492523968695096" fill="none" id="id95" stroke="none" /><text fill="#e1ed5e" style="font-size:6.75px; font-family:Arial;" text-anchor="middle"><textPath startOffset="21.46611528233685" xlink:href="#id95">November</textPath></text><path d="M 81.78341655067845 89.55222093294921 l -5.006821859268316 -2.8715685770189823 a26.77184296589658,26.77184296589658 0 0,0 0.2327114728582906,-0.3977793416470657 l 4.9566507119397 2.9573273310199397" fill="#ff2803" stroke="none" /><path d="M 81.96595687620814 89.24020034530311 l -13.189859035951658 -7.8695742117474206 a36.359120406536164,36.359120406536164 0 0,0 0.32530020536177934,-0.5347080056848887 l 13.052443032303662 8.095449990639384" fill="#ffaf10" stroke="none" /><path d="M 82.15384107792192 88.93136811851018 l -11.038615646031117 -6.846424129733398 a33.98940178549415,33.98940178549415 0 0,0 0.31265783071741304,-0.4945496032544943 l 10.91913021906774 7.0354213807021075" fill="#ff8f0d" stroke="none" /><path d="M 82.54541684631803 88.32363383020206 l -21.31968376519765 -14.26195240957285 a46.65018912953573,46.65018912953573 0 0,0 0.452230341842836,-0.663592224361137 l 21.071028957686075 14.626822657204402" fill="#ccff1d" stroke="none" /><path d="M 82.7489923806493 88.02491185347247 l -4.860178049709992 -3.373777453312953 a26.91639290272085,26.91639290272085 0 0,0 0.26748150091420475,-0.37833361388289455 l 4.80138392899191 3.456937567527634" fill="#ff2a04" stroke="none" /><path d="M 82.95767976084542 87.72973835380427 l -9.284551711549652 -6.684763410712676 a32.440671411313346,32.440671411313346 0 0,0 0.33018020741703696,-0.450365431852862 l 9.168108891618981 6.843591286237038" fill="#ff790b" stroke="none" /><path d="M 83.17141714833178 87.43820079747576 l -4.797492886415447 -3.5811180802259392 a26.986680607793264,26.986680607793264 0 0,0 0.2810779210672313,-0.36986559654091294 l 4.735139025124107 3.663168452647879" fill="#ff2b04" stroke="none" /><path d="M 83.39014120810768 87.1503855733568 l -6.905328934107473 -5.342057112233597 a29.73047203068582,29.73047203068582 0 0,0 0.31662375007990284,-0.40208000895623586 l 6.812351103433599 5.460129515142881" fill="#ff5307" stroke="none" /><path d="M 83.6137871275137 86.86637796730984 l -5.5236768664521145 -4.42725141917975 a28.07895198836716,28.07895198836716 0 0,0 0.30552775572649865,-0.37454090251220273 l 5.446650618649223 4.521676491300034" fill="#ff3b05" stroke="none" /><path d="M 84.07557802195018 86.31012108654704 l -14.749106037144283 -12.67948538468149 a40.45007656836542,40.45007656836542 0 0,0 0.45844987343667576,-0.5240874564120033 l 14.528664300129764 12.931488397296436" fill="#ffe515" stroke="none" /><path d="M 84.5562425177563 85.77008943001954 l -5.45447709430576 -5.025766646958608 a28.416849112796335,28.416849112796335 0 0,0 0.33455112891991007,-0.3568758184288686 l 5.367158643415394 5.118911882265528" fill="#ff4006" stroke="none" /><path d="M 85.05521093208273 85.24692304244772 l -5.388970844263803 -5.3198409978301004 a28.57243124779085,28.57243124779085 0 0,0 0.3485349518030857,-0.34703823195600036 l 5.296600092293404 5.4118150804362095" fill="#ff4206" stroke="none" /><path d="M 85.31137513191541 84.99185889309783 l -4.255663641567582 -4.348235523049892 a27.084227575795733,27.084227575795733 0 0,0 0.3359950055861499,-0.3232269291653787 l 4.180185392369005 4.420845538977584" fill="#ff2c04" stroke="none" /><path d="M 85.83668400450813 84.49514656593479 l -2.094421702877506 -2.292803573864854 a24.105406655787895,24.105406655787895 0 0,0 0.3087661680922802,-0.2772133143520191 l 2.0546445471892545 2.328515896986152" fill="#ff0000" stroke="none" /><path d="M 86.10567301691215 84.25364557470407 l -26.452182517545058 -29.97809406320117 a60.98004606805317,60.98004606805317 0 0,0 0.7930489876186074,-0.6877242672283597 l 25.93223973127968 30.42898332384921" fill="#2fff30" stroke="none" /><line stroke="#e1ed5e" stroke-width="0.3" x1="56.762969772571076" x2="54.21961505331055" y1="26.818313649435495" y2="22.513508569990535" /><path d="M 56.25429882871897 25.957352633546506 a86.0,86.0 0 0,1 42.265352541879196,-11.944610805530505" fill="none" id="id96" stroke="none" /><text fill="#e1ed5e" style="font-size:6.75px; font-family:Arial;" text-anchor="middle"><textPath startOffset="22.20632615414155" xlink:href="#id96">December</textPath></text><path d="M 89.94658935756843 81.56283822128135 l -3.087910044684897 -5.662983347332545 a27.450160372907916,27.450160372907916 0 0,0 0.416791409928291,-0.22263553678308992 l 2.9899735882283007 5.715297610617384" fill="#ff3204" stroke="none" /><path d="M 90.26544431104013 81.39251694778311 l -3.1925916953671543 -6.10259962163103 a27.887260984982237,27.887260984982237 0 0,0 0.42725875008538466,-0.21885852661362007 l 3.0870724576930058 6.156650673557155" fill="#ff3805" stroke="none" /><path d="M 90.58718382345135 81.22770947309562 l -3.2201346309732735 -6.422020965307011 a28.184122794081137,28.184122794081137 0 0,0 0.4355503647993202,-0.21372267243255944 l 3.109112999163527 6.4764987978744" fill="#ff3d05" stroke="none" /><path d="M 91.23893434514133 80.91482961587045 l -3.022685733783876 -6.584641015097326 a28.245283040911687,28.245283040911687 0 0,0 0.4436094959933256,-0.19903464994577155 l 2.908894119323776 6.635695995559626" fill="#ff3d05" stroke="none" /><path d="M 91.56875222667455 80.76684994638697 l -2.314691396630867 -5.280215711375006 a26.76528179886191,26.76528179886191 0 0,0 0.42354942233720233,-0.1813417585024343 l 2.2234582165033565 5.319276997840227" fill="#ff2803" stroke="none" /><path d="M 91.90106846888425 80.62456947434976 l -3.1266928501874642 -7.480124984524785 a29.107310155873236,29.107310155873236 0 0,0 0.4639374391459392,-0.1892517302029858 l 2.9974715414531445 7.532837600911348" fill="#ff4a06" stroke="none" /><path d="M 92.91201910852362 80.23233633223022 l -2.6849502178886304 -7.48805529875976 a28.954868310024015,28.954868310024015 0 0,0 0.4706103630566136,-0.16418671499374662 l 2.5556578507687315 7.533162866925716" fill="#ff4806" stroke="none" /><path d="M 93.25333710446033 80.11325718540243 l -2.758680518813946 -8.131600886945632 a29.586806809836737,29.586806809836737 0 0,0 0.483698048229153,-0.15946764161271226 l 2.6182996483423837 8.177882252817579" fill="#ff5107" stroke="none" /><path d="M 93.59665428221793 80.00007090966166 l -2.710874343602735 -8.46702599460012 a29.89040881512418,29.89040881512418 0 0,0 0.4913622066017639,-0.15266862941982848 l 2.564726764290243 8.512434758902472" fill="#ff5507" stroke="none" /><path d="M 93.94186890950719 79.89281104454417 l -1.5922045358092138 -5.284593050073038 a26.519242610062697,26.519242610062697 0 0,0 0.4382112668694107,-0.12792588534332372 l 1.501003051216382 5.3112172643350615" fill="#ff2403" stroke="none" /></svg>