<?xml version="1.0" encoding="utf-8" ?>
<svg baseProfile="full" height="200mm" version="1.1" viewBox="0,0,200,200" width="200mm" xmlns="http://www.w3.org/2000/svg" xmlns:ev="http://www.w3.org/2001/xml-events" xmlns:xlink="http://www.w3.org/1999/xlink"><defs /><rect fill="#1a1a1a" height="200" width="200" x="0" y="0" /><text alignment-baseline="middle" fill="#e1ed5e" style="dominant-baseline: central; font-size:9.0px; font-family:Arial;" text-anchor="middle" x="100.0" y="100.0">2021</text><line stroke="#e1ed5e" stroke-width="0.3" x1="100.0" x2="100.0" y1="15.0" y2="10.0" /><path d="M 100.0 14.0 a86.0,86.0 0 0,1 42.46469731375804,11.215312516191453" fill="none" id="id73" stroke="none" /><text fill="#e1ed5e" style="font-size:6.75px; font-family:Arial;" text-anchor="middle"><textPath startOffset="22.20632615414155" xlink:href="#id73">January</textPath></text><path d="M 105.71112130821622 79.79150937346287 l 7.279230839344758 -25.75716050255702 a47.76599556838772,47.76599556838772 0 0,0 0.7892984629719032,0.23041786533045142 l -7.721519520040089 25.628044308307864" fill="#eaff1a" stroke="none" /><line stroke="#e1ed5e" stroke-width="0.3" x1="143.23703022742887" x2="145.7803849466894" y1="26.81831364943548" y2="22.513508569990506" /><path d="M 143.74570117128098 25.957352633546492 a86.0,86.0 0 0,1 28.547481713284135,27.462654790039103" fill="none" id="id74" stroke="none" /><text fill="#e1ed5e" style="font-size:6.75px; font-family:Arial;" text-anchor="middle"><textPath startOffset="19.985693538727396" xlink:href="#id74">February</textPath></text><path d="M 115.19652480421416 85.50635884689758 l 9.473781888901742 -9.035591809939676 a34.09177079826605,34.09177079826605 0 0,0 0.4013618949154516,0.4281448853469718 l -9.627911105787657 8.87117750771465" fill="#ff4b07" stroke="none" /><path d="M 115.68641384162765 86.03803664274999 l 9.29390700062287 -8.272202320968574 a33.44210748126155,33.44210748126155 0 0,0 0.37902350855449346,0.4332893911162042 l -9.434922372755212 8.110997373649424" fill="#ff4106" stroke="none" /><line stroke="#e1ed5e" stroke-width="0.3" x1="172.23445277983987" x2="176.4835382374775" y1="55.19839476539836" y2="52.563006222186495" /><path d="M 173.08426987136738 54.67131705675599 a86.0,86.0 0 0,1 12.851231095245387,41.99856678651699" fill="none" id="id75" stroke="none" /><text fill="#e1ed5e" style="font-size:6.75px; font-family:Arial;" text-anchor="middle"><textPath startOffset="22.20632615414155" xlink:href="#id75">March</textPath></text><path d="M 120.18372546131832 94.20196356495316 l 8.140056909319767 -2.3383367274808426 a29.469258830502838,29.469258830502838 0 0,0 0.1358578150665096,0.4887528451088274 l -8.17910149495264 2.197872578953063" fill="#ff0000" stroke="none" /><path d="M 120.28053869075195 94.5502522615342 l 10.357413563883444 -2.7832244501408714 a31.72484750815501,31.72484750815501 0 0,0 0.13717773926646487,0.5286017877152897 l -10.403787635020212 2.6045262368767315" fill="#ff2503" stroke="none" /><path d="M 120.91429891909075 98.10471618934814 l 21.730098300993692 -1.96921272250504 a42.81914230480485,42.81914230480485 0 0,0 0.06020272756932726,0.7346257642629167 l -21.760775512382516 1.5948730410343546" fill="#ffcf13" stroke="none" /><line stroke="#e1ed5e" stroke-width="0.3" x1="184.98032266829074" x2="189.97916517819016" y1="98.17113171792111" y2="98.06355123074" /><path d="M 185.9800911702706 98.14961562048488 a86.0,86.0 0 0,1 -9.607161424134198,41.387399972396054" fill="none" id="id76" stroke="none" /><text fill="#e1ed5e" style="font-size:6.75px; font-family:Arial;" text-anchor="middle"><textPath startOffset="21.466115282336823" xlink:href="#id76">April</textPath></text><path d="M 120.70491114924044 103.5080841355445 l 8.981590250929653 1.5217729766690322 a30.109596941035026,30.109596941035026 0 0,0 -0.09097909741151206,0.5102590940140387 l -8.954064711178951 -1.6761508214162892" fill="#ff0b01" stroke="none" /><path d="M 120.02730092923936 106.31721596034902 l 10.221319470741662 3.224113060693287 a31.717755210448484,31.717755210448484 0 0,0 -0.16871995416080493,0.5192666253136764 l -10.16430726556461 -3.3995785859847585" fill="#ff2503" stroke="none" /><path d="M 119.9155931802556 106.66101706037122 l 10.416091891521775 3.483791075859406 a31.983249544322632,31.983249544322632 0 0,0 -0.17912016203062273,0.5206070351502938 l -10.354580898547923 -3.662570814099" fill="#ff2a04" stroke="none" /><path d="M 119.79798401119884 107.00284435728193 l 11.174586669010418 3.9526191735366933 a32.85304119431951,32.85304119431951 0 0,0 -0.19316921617592048,0.5315187200389704 l -11.104893191829271 -4.144385690581795" fill="#ff3805" stroke="none" /><path d="M 119.54520255179757 107.68017299344265 l 23.381072595817972 9.187455685467333 a46.12138327607252,46.12138327607252 0 0,0 -0.2967084908300104,0.7364061413538574 l -23.21946149073057 -9.588561194664003" fill="#fffe18" stroke="none" /><path d="M 118.97047184881838 109.00673069616215 l 11.324725876146626 5.376711606710241 a33.53628509055205,33.53628509055205 0 0,0 -0.25207587556115013,0.5193509660640285 l -11.230496743970761 -5.570851528739546" fill="#ff4206" stroke="none" /><path d="M 118.81262510543309 109.33194174019688 l 11.543659200041793 5.726194750586232 a33.885859460988655,33.885859460988655 0 0,0 -0.2636986775500146,0.5203025079062 l -11.44338185270551 -5.924051470195126" fill="#ff4806" stroke="none" /><path d="M 118.64920377521936 109.65438752849418 l 11.453018152346823 5.929040024784333 a33.89671044931538,33.89671044931538 0 0,0 -0.27270305761137575,0.5158514141701965 l -11.349262586510555 -6.125306454040665" fill="#ff4806" stroke="none" /><line stroke="#e1ed5e" stroke-width="0.3" x1="174.80103733775053" x2="179.2010983576182" y1="140.37084112569926" y2="142.7455964860345" /><path d="M 175.68104954172406 140.8457921977663 a86.0,86.0 0 0,1 -30.038265399797805,32.042727171017184" fill="none" id="id77" stroke="none" /><text fill="#e1ed5e" style="font-size:6.75px; font-family:Arial;" text-anchor="middle"><textPath startOffset="22.206326154141568" xlink:href="#id77">May</textPath></text><path d="M 116.71984013943494 112.70617746262583 l 6.730562914575545 5.114865100549653 a29.453539030718463,29.453539030718463 0 0,0 -0.3102343829712602,0.40101976000602985 l -6.641521714386216 -5.229962854668935" fill="#ff0000" stroke="none" /><path d="M 116.498646956653 112.99209946851258 l 7.056899033894076 5.557057765311536 a29.98224442896008,29.98224442896008 0 0,0 -0.3227832581800485,0.40272174477443834 l -6.9601978636591735 -5.677707343664225" fill="#ff0901" stroke="none" /><line stroke="#e1ed5e" stroke-width="0.3" x1="143.8653032363475" x2="146.44561519142675" y1="172.8068346515853" y2="177.08958963109032" /><path d="M 144.38136562736335 173.6633856474863 a86.0,86.0 0 0,1 -40.68145358897372,12.25698825130547" fill="none" id="id78" stroke="none" /><text fill="#e1ed5e" style="font-size:6.75px; font-family:Arial;" text-anchor="middle"><textPath startOffset="21.466115282336833" xlink:href="#id78">June</textPath></text><path d="M 110.8373102113329 117.98757091392108 l 4.854342268772225 8.057149246191548 a30.406502688980304,30.406502688980304 0 0,0 -0.4506419317367888,0.26624719647636397 l -4.7149324660070535 -8.139515014961662" fill="#ff1001" stroke="none" /><path d="M 110.5260780823613 118.17145234162733 l 4.659998299578085 8.04468068261296 a30.296906552035292,30.296906552035292 0 0,0 -0.4535176158621665,0.25751913836925133 l -4.520831916794719 -8.123702986776838" fill="#ff0e01" stroke="none" /><path d="M 108.92500713936063 119.00905698771935 l 3.692266103208234 7.864026960849894 a29.687677999205228,29.687677999205228 0 0,0 -0.46444535019478,0.21320408066851362 l -3.5563527572460347 -7.926418111852482" fill="#ff0400" stroke="none" /><path d="M 108.59647513512805 119.15986991738527 l 3.56476920298511 7.94517673128575 a29.70823821228586,29.70823821228586 0 0,0 -0.4683706411633496,0.20531992494166015 l -3.427477887164007 -8.005361209521865" fill="#ff0400" stroke="none" /><path d="M 107.59598834532513 119.57807347666477 l 3.261249106052196 8.405617771029414 a30.01610535898798,30.01610535898798 0 0,0 -0.48330186088909227,0.18274340929192132 l -3.1160770244028293 -8.460509430427967" fill="#ff0901" stroke="none" /><path d="M 105.18746579009965 120.34920634021253 l 15.562397370298964 61.04761902063758 a84.0,84.0 0 0,0 -1.4041868610271555,0.3451149667438802 l -14.509257224528598 -61.306455245695496" fill="#4dd2ff" stroke="none" /><path d="M 104.48393922423573 120.51570834832081 l 3.830825626004541 17.527468002151263 a38.94121956677665,38.94121956677665 0 0,0 -0.6560826659561407,0.13748850162338475 l -3.5285514986190223 -17.59081248450119" fill="#ff960d" stroke="none" /><line stroke="#e1ed5e" stroke-width="0.3" x1="102.19456741930631" x2="102.32365962044197" y1="184.97166512339345" y2="189.96999836594603" /><path d="M 102.22038585953345 185.97133177190398 a86.0,86.0 0 0,1 -42.740103519485714,-10.115201625700543" fill="none" id="id79" stroke="none" /><text fill="#e1ed5e" style="font-size:6.75px; font-family:Arial;" text-anchor="middle"><textPath startOffset="22.20632615414155" xlink:href="#id79">July</textPath></text><path d="M 98.01472825383883 120.90594882070398 l -1.2715721852060102 13.39031952534994 a34.45055957249205,34.45055957249205 0 0,0 -0.5898713452840613,-0.06114257677710552 l 1.5018761270956646 -13.366447580117073" fill="#ff5107" stroke="none" /><path d="M 96.22490169976321 120.6578951692458 l -2.0663457132798713 11.307348771733574 a32.4946039884989,32.4946039884989 0 0,0 -0.5493636555992799,-0.1052868520921194 l 2.2606769834508462 -11.270104721292986" fill="#ff3204" stroke="none" /><path d="M 94.81253420990036 120.34920634021253 l -2.7850411839040174 10.925060522888588 a32.27445793929004,32.27445793929004 0 0,0 -0.5371538810885941,-0.14186722211115096 l 2.972685507804101 -10.875501951473856" fill="#ff2e04" stroke="none" /><path d="M 94.46302465271185 120.25689768951611 l -3.025666684637643 11.069332375355527 a32.47539882194167,32.47539882194167 0 0,0 -0.537960907310745,-0.15203312595227844 l 3.215758760053002 -11.015610456064728" fill="#ff3104" stroke="none" /><path d="M 91.7346041902142 119.30500536409082 l -5.096094140600809 11.902651365314352 a33.94771350525202,33.94771350525202 0 0,0 -0.5352088611538598,-0.23461983639127187 l 5.300223676412412 -11.813166975628627" fill="#ff4906" stroke="none" /><path d="M 91.40352486487194 119.15986991738527 l -5.317959676270563 11.85269706729938 a33.99104010030017,33.99104010030017 0 0,0 -0.5317687871476967,-0.2441089685675346 l 5.5211964591856795 -11.75940102839777" fill="#ff4a06" stroke="none" /><path d="M 91.07499286063937 119.00905698771935 l -4.0527502103675594 8.631809308713606 a30.53587521990662,30.53587521990662 0 0,0 -0.473869281223471,-0.22748605197606553 l 4.200732159591272 -8.56076898023798" fill="#ff1202" stroke="none" /><line stroke="#e1ed5e" stroke-width="0.3" x1="58.666819895761336" x2="56.23545636021788" y1="174.27360380694188" y2="178.64263932499728" /><path d="M 58.180547188652646 175.14741091055294 a86.0,86.0 0 0,1 -31.652253787137756,-30.449443065178592" fill="none" id="id80" stroke="none" /><text fill="#e1ed5e" style="font-size:6.75px; font-family:Arial;" text-anchor="middle"><textPath startOffset="22.20632615414155" xlink:href="#id80">August</textPath></text><line stroke="#e1ed5e" stroke-width="0.3" x1="26.63291911575756" x2="22.317208475507996" y1="142.92168965132927" y2="145.44649492493687" /><path d="M 25.769776987707644 143.4266507060508 a86.0,86.0 0 0,1 -11.730757126820373,-40.83630448921669" fill="none" id="id81" stroke="none" /><text fill="#e1ed5e" style="font-size:6.75px; font-family:Arial;" text-anchor="middle"><textPath startOffset="21.46611528233685" xlink:href="#id81">September</textPath></text><line stroke="#e1ed5e" stroke-width="0.3" x1="15.007084014347285" x2="10.007500721073583" y1="101.09737516637583" y2="101.16192664675087" /><path d="M 14.007167355692545 101.11028546245083 a86.0,86.0 0 0,1 10.666146001902534,-42.60595125391555" fill="none" id="id82" stroke="none" /><text fill="#e1ed5e" style="font-size:6.75px; font-family:Arial;" text-anchor="middle"><textPath startOffset="22.20632615414155" xlink:href="#id82">October</textPath></text><path d="M 79.03285615573316 98.82574320788736 l -8.690435853528397 -0.4867045031608021 a29.7040540323282,29.7040540323282 0 0,0 0.032984808800327205,-0.5102603927191035 l 8.680770453723657 0.6362239601329174" fill="#ff0400" stroke="none" /><path d="M 79.26566170972629 96.67025291283419 l -8.554263338699748 -1.3737372775598116 a29.663866075579655,29.663866075579655 0 0,0 0.0853021739246506,-0.5034582591825036 l 8.529349303254875 1.5207813250581432" fill="#ff0300" stroke="none" /><path d="M 79.3925641242962 95.95851677861259 l -32.17335887913047 -6.3097656045109805 a53.78624961091453,53.78624961091453 0 0,0 0.1859997769922125,-0.9070009690903122 l 32.05997980622326 6.862642229764695" fill="#9bff22" stroke="none" /><path d="M 79.46518482838121 95.60439243477599 l -16.685341087245405 -3.57160319674098 a38.06332196826544,38.06332196826544 0 0,0 0.14265700420243527,-0.6395033776120316 l 16.62138969604093 3.858284743902971" fill="#ff890c" stroke="none" /><path d="M 79.81627453868168 94.20196356495316 l -24.799069204624885 -7.123853675042595 a46.801998461343885,46.801998461343885 0 0,0 0.2290937831053865,-0.7723903480112132 l 24.67276952440779 7.549673409800348" fill="#f7ff18" stroke="none" /><path d="M 79.91906864156998 93.8553929516997 l -9.29997005058896 -2.8457176861889537 a30.725613198731494,30.725613198731494 0 0,0 0.15910675920101652,-0.5044119065099545 l 9.249607807619741 3.0053797591253226" fill="#ff1502" stroke="none" /><path d="M 80.02781315780177 93.51064311812611 l -42.657004050303385 -13.86010079823042 a65.85222835807276,65.85222835807276 0 0,0 0.35956165308075505,-1.0750435768404165 l 42.412105103450855 14.59231747799316" fill="#33ff56" stroke="none" /><path d="M 80.14247586403 93.16781622104843 l -27.071678834199922 -9.31428730659188 a49.62921135714022,49.62921135714022 0 0,0 0.2848880252829554,-0.8054168109089894 l 26.907337728107155 9.77890174392748" fill="#d1ff1c" stroke="none" /><path d="M 80.2630227832202 92.82701384747504 l -15.787320836318711 -5.737567232337259 a37.79759437938817,37.79759437938817 0 0,0 0.22749726167768267,-0.6095795567737421 l 15.6862189861394 6.008469926140342" fill="#ff850c" stroke="none" /><path d="M 80.52162464483688 92.15188598940014 l -11.253747311502238 -4.534294587548341 a33.13287500792018,33.13287500792018 0 0,0 0.2176961048668199,-0.5271683854351465 l 11.174029519749219 4.727337543436798" fill="#ff3c05" stroke="none" /><path d="M 80.65960295795068 91.81776055985345 l -26.348744231215516 -11.147223801985659 a49.609734725326774,49.609734725326774 0 0,0 0.33949427439379154,-0.7835995926296563 l 26.152959246979044 11.599122539201915" fill="#d1ff1c" stroke="none" /><path d="M 80.803312248108 91.48605970444005 l -10.836270020072792 -4.806003888268324 a32.85421533978435,32.85421533978435 0 0,0 0.23373064998813775,-0.5149945050771538 l 10.751937053121303 4.991820402187549" fill="#ff3805" stroke="none" /><path d="M 80.95270993114464 91.15688171328213 l -14.861924330940061 -6.8999713004660155 a37.38555457608447,37.38555457608447 0 0,0 0.2760154240811385,-0.5813588758240568 l 14.74095071301717 7.154772591930604" fill="#ff7f0b" stroke="none" /><path d="M 81.10775173730289 90.83032412892265 l -41.537280430025845 -20.16082960657669 a67.17147080122126,67.17147080122126 0 0,0 0.5138297237813522,-1.0358493688284516 l 41.18409069329108 20.872838563904107" fill="#35ff68" stroke="none" /><path d="M 81.43458229118936 90.18545643968196 l -10.98678650576725 -5.808126509192079 a33.42754244692365,33.42754244692365 0 0,0 0.2732970619603589,-0.5063779491822562 l 10.88518134458842 5.996385441706808" fill="#ff4106" stroke="none" /><line stroke="#e1ed5e" stroke-width="0.3" x1="26.266209847984243" x2="21.928928074336255" y1="57.711370442889674" y2="55.22380399835377" /><path d="M 25.398753493254645 57.213857153982495 a86.0,86.0 0 0,1 29.58750427330803,-30.492523968695096" fill="none" id="id83" stroke="none" /><text fill="#e1ed5e" style="font-size:6.75px; font-family:Arial;" text-anchor="middle"><textPath startOffset="21.46611528233685" xlink:href="#id83">November</textPath></text><path d="M 81.78341655067845 89.55222093294921 l -11.209729835554858 -6.429129866696634 a33.92252892544565,33.92252892544565 0 0,0 0.2948680701352698,-0.5040251147504597 l 11.097402090949265 6.621134393800985" fill="#ff4906" stroke="none" /><path d="M 81.96595687620814 89.24020034530311 l -27.85819648281267 -16.621265172688595 a53.4398761898967,53.4398761898967 0 0,0 0.4781194513153402,-0.7859026649173352 l 27.56796123321111 17.098335610813006" fill="#a0ff22" stroke="none" /><path d="M 82.15384107792192 88.93136811851018 l -31.38683652690362 -19.46689710417197 a57.933637649587,57.933637649587 0 0,0 0.5329133353802913,-0.842940917157314 l 31.047095595277362 20.0042856690435" fill="#69ff28" stroke="none" /><path d="M 82.34701348167596 88.62581576622439 l -27.994845209002428 -18.037657632191646 a54.30267933863832,54.30267933863832 0 0,0 0.5130397280888471,-0.781394703511889 l 27.68020884555566 18.5168703996812" fill="#95ff23" stroke="none" /><path d="M 82.54541684631803 88.32363383020206 l -25.399404633210207 -16.991110379491587 a51.55859269746575,51.55859269746575 0 0,0 0.49981276465497004,-0.7334135584753559 l 25.1031674028865 17.425801961237358" fill="#b8ff1f" stroke="none" /><path d="M 82.95767976084542 87.72973835380427 l -11.76473967069334 -8.47046833606191 a35.49682494035894,35.49682494035894 0 0,0 0.3612856488958677,-0.49279321907298923 l 11.617191409283837 8.6717239988064" fill="#ff6109" stroke="none" /><path d="M 83.17141714833178 87.43820079747576 l -13.727515085607559 -10.24698809014273 a38.130249132604874,38.130249132604874 0 0,0 0.39714299478807097,-0.5225936285625221 l 13.549096150595378 10.48176649458628" fill="#ff8a0c" stroke="none" /><path d="M 83.39014120810768 87.1503855733568 l -37.919883648910464 -29.335341744718093 a68.9424639669918,68.9424639669918 0 0,0 0.7342238447626144,-0.9323897212496957 l 37.40930572355388 29.983723859920836" fill="#38ff7e" stroke="none" /><path d="M 83.6137871275137 86.86637796730984 l -26.03156192722328 -20.86441192563629 a54.36114358611668,54.36114358611668 0 0,0 0.5915049181847335,-0.7251150893656834 l 25.66855851696215 21.309411184610056" fill="#94ff23" stroke="none" /><path d="M 83.84228863543731 86.58626213691792 l -37.85406295642666 -31.425519746797114 a70.19850987240821,70.19850987240821 0 0,0 0.7798365382024841,-0.9230804881256038 l 37.30751580473705 32.07245918455183" fill="#3aff8e" stroke="none" /><path d="M 84.07557802195018 86.31012108654704 l -25.732148810932202 -22.121368165838774 a54.93373560273824,54.93373560273824 0 0,0 0.622603620834057,-0.7117435665316959 l 25.347553326520302 22.561027288573413" fill="#8dff24" stroke="none" /><path d="M 84.31358615837235 86.03803664274999 l -11.776883033039615 -10.48221799003979 a36.76616211906405,36.76616211906405 0 0,0 0.42483538325392184,-0.4691138410761355 l 11.594704009169648 10.68338461838548" fill="#ff750a" stroke="none" /><path d="M 84.5562425177563 85.77008943001954 l -13.184732879517023 -12.148440557961337 a38.928239988758996,38.928239988758996 0 0,0 0.45830157254274645,-0.4888841634355532 l 12.973663985003821 12.373594138274939" fill="#ff960d" stroke="none" /><path d="M 84.80347519578584 85.50635884689758 l -24.034659958889808 -22.922986746574257 a54.213373823251985,54.213373823251985 0 0,0 0.6498782655492584,-0.6697566785608213 l 23.636517429637433 23.3333076206852" fill="#96ff23" stroke="none" /><path d="M 85.05521093208273 85.24692304244772 l -35.73854433511357 -35.280089436572 a71.21880386713126,71.21880386713126 0 0,0 0.8687479955078447,-0.8650173155279303 l 35.12596053943842 35.890042602750036" fill="#3bff9b" stroke="none" /><path d="M 85.31137513191541 84.99185889309783 l -22.67282489169309 -23.166018488631092 a53.41483304268241,53.41483304268241 0 0,0 0.6626409070125404,-0.6374600275363544 l 22.270700741068122 23.55286160292976" fill="#a0ff22" stroke="none" /><path d="M 85.57189188830299 84.74124197986013 l -34.24927014708019 -36.22105694626854 a70.84954836217182,70.84954836217182 0 0,0 0.893352468714198,-0.8302737586006168 l 33.620709794571134 36.805235290943806" fill="#3aff97" stroke="none" /><path d="M 85.83668400450813 84.49514656593479 l -26.12527247417615 -28.599836420090554 a59.73603625961082,59.73603625961082 0 0,0 0.7651589237335218,-0.6869672366138246 l 25.629102562846654 29.04530266547366" fill="#54ff2b" stroke="none" /><path d="M 86.10567301691215 84.25364557470407 l -11.853234141332063 -13.433196591862085 a38.915075503186,38.915075503186 0 0,0 0.5060927831451966,-0.4388786744224135 l 11.620247559540093 13.63524025970418" fill="#ff960d" stroke="none" /><path d="M 86.65592168130627 83.78471172551755 l -32.12996616385446 -39.04328580464058 a71.56394854155756,71.56394854155756 0 0,0 0.9579229866827049,-0.7745737694856801 l 31.453139778607255 39.590565671390394" fill="#3bff9f" stroke="none" /><path d="M 86.93701828274178 83.55741782278169 l -20.59946572067194 -25.92887406949775 a54.115623178327944,54.115623178327944 0 0,0 0.7343424220515941,-0.573165908357755 l 20.15009074346092 26.279618367078726" fill="#97ff23" stroke="none" /><path d="M 87.22198572758235 83.33499621200491 l -29.621328027355776 -38.63194493739835 a69.68110766766088,69.68110766766088 0 0,0 0.9581279928291822,-0.7216421401225073 l 28.9519538807682 39.13610366702672" fill="#39ff88" stroke="none" /><path d="M 87.51073957382395 83.11751280151077 l -19.355441437555783 -26.163918530017657 a53.54510325821771,53.54510325821771 0 0,0 0.7456912492469596,-0.5417764053393633 l 18.902204871955043 26.493214170173687" fill="#9eff22" stroke="none" /><path d="M 88.09926311788651 82.69761687909137 l -13.834261384732567 -20.113518435416843 a45.41189078938696,45.41189078938696 0 0,0 0.6478661570772971,-0.43744212127080645 l 13.48599053324873 20.348672468986315" fill="#fff417" stroke="none" /><path d="M 88.39885842347998 82.49532879139004 l -7.544141651159624 -11.383165896536036 a34.65615389049283,34.65615389049283 0 0,0 0.500093208967309,-0.3252745341099454 l 7.347081416408027 11.511339354805516" fill="#ff5407" stroke="none" /><path d="M 88.70189139769569 82.29822771554957 l -19.371375669227376 -30.350892614297273 a57.005928370241186,57.005928370241186 0 0,0 0.8316916501848446,-0.5208052350462135 l 18.84606486667029 30.679842190666417" fill="#74ff27" stroke="none" /><path d="M 89.00827224532344 82.1063720568725 l -27.337464446891204 -44.503141693354394 a73.22898221259743,73.22898221259743 0 0,0 1.0797367021568185,-0.650529281793072 l 26.567365678516737 44.967117584606086" fill="#3effb4" stroke="none" /><line stroke="#e1ed5e" stroke-width="0.3" x1="56.762969772571076" x2="54.21961505331055" y1="26.818313649435495" y2="22.513508569990535" /><path d="M 56.25429882871897 25.957352633546506 a86.0,86.0 0 0,1 42.265352541879196,-11.944610805530505" fill="none" id="id84" stroke="none" /><text fill="#e1ed5e" style="font-size:6.75px; font-family:Arial;" text-anchor="middle"><textPath startOffset="22.20632615414155" xlink:href="#id84">December</textPath></text><path d="M 89.3179101791058 81.91981866633112 l -16.650139908052072 -28.181521950855327 a53.732634150404834,53.732634150404834 0 0,0 0.8003687397853408,-0.46362523431118713 l 16.16257443580141 28.463951342556562" fill="#9cff22" stroke="none" /><path d="M 89.63071344664047 81.73862282372117 l -25.027787831873574 -44.07650141924653 a71.68656765966819,71.68656765966819 0 0,0 1.0782885647998155,-0.600066418872843 l 24.265375178001715 44.50078323567956" fill="#3cffa1" stroke="none" /><path d="M 89.94658935756843 81.56283822128135 l -16.19427506236248 -29.699022534071155 a54.82730382804284,54.82730382804284 0 0,0 0.8324741624318603,-0.44467886716513155 l 15.680655853402314 29.973380127738036" fill="#8fff24" stroke="none" /><path d="M 90.58718382345135 81.22770947309562 l -15.001527423202957 -29.91804215164725 a54.46841901280746,54.46841901280746 0 0,0 0.841741286198649,-0.4130387934954059 l 14.484314869993883 30.171836105277485" fill="#93ff23" stroke="none" /><path d="M 90.91171255644093 81.06846463323043 l -26.4255735099901 -55.046309065201946 a82.06068356179469,82.06068356179469 0 0,0 1.2786687455746322,-0.6003521211232938 l 25.47412655311586 55.49302616896525" fill="#4ae6ff" stroke="none" /><path d="M 91.23893434514133 80.91482961587045 l -20.5443655100657 -44.753998159572454 a70.24420072940764,70.24420072940764 0 0,0 1.103228260693709,-0.4949863622413495 l 19.770955130905218 45.101004852330334" fill="#3aff8f" stroke="none" /><path d="M 91.56875222667455 80.76684994638697 l -13.276238839585083 -30.285421637968607 a54.06758656925607,54.06758656925607 0 0,0 0.8555970092401132,-0.36632198757079415 l 12.752958072554662 30.509463153502185" fill="#98ff23" stroke="none" /><path d="M 91.90106846888425 80.62456947434976 l -19.7698062979217 -47.29617813896661 a72.26181529764828,72.26181529764828 0 0,0 1.1517711996641906,-0.46983639159556845 l 18.95275122866913 47.629475416745755" fill="#3cffa8" stroke="none" /><path d="M 92.23578459929587 80.48803036053334 l -18.722375082737226 -47.050525434926215 a71.63871317916104,71.63871317916104 0 0,0 1.1496882085303253,-0.4460611634317816 l 17.909703709207225 47.36582930224855" fill="#3cffa0" stroke="none" /><path d="M 92.91201910852362 80.23233633223022 l -11.728514255432819 -32.70964308084462 a55.74879562108789,55.74879562108789 0 0,0 0.9060984379654864,-0.316119953296952 l 11.163733813404047 32.90668388731378" fill="#83ff25" stroke="none" /><path d="M 93.25333710446033 80.11325718540243 l -10.568284059296131 -31.15151154473414 a53.89536896707008,53.89536896707008 0 0,0 0.8811050460942159,-0.29048648062176774 l 10.030496190959505 31.32881174961514" fill="#9aff23" stroke="none" /><path d="M 93.59665428221793 80.00007090966166 l -14.15956428939626 -44.22536189973211 a67.43679463558851,67.43679463558851 0 0,0 1.1085794250337055,-0.3444410236460985 l 13.396199491651824 44.46254305826073" fill="#36ff6b" stroke="none" /><path d="M 93.94186890950719 79.89281104454417 l -15.13777369902357 -50.2429002582769 a73.47381460239012,73.47381460239012 0 0,0 1.2141015432478621,-0.35442953333046795 l 14.270681938052288 50.49602812052606" fill="#3effb7" stroke="none" /><path d="M 94.28887869178378 79.79150937346287 l -8.958902363662645 -31.700586394422853 a53.94220862832223,53.94220862832223 0 0,0 0.8957029527919185,-0.24482945237309603 l 8.411901521647003 31.850102387622247" fill="#9aff23" stroke="none" /><path d="M 94.63758080256005 79.69619591428918 l -14.355653958048839 -54.35501678526631 a77.21879267904839,77.21879267904839 0 0,0 1.2880503191403092,-0.3283527059855592 l 13.41789475022353 54.594072487420725" fill="#43ffe3" stroke="none" /><path d="M 95.33964822691252 79.52364482259891 l -4.444766829476485 -19.52913185795749 a41.02855320021655,41.02855320021655 0 0,0 0.6899777181005151,-0.15080240474820414 l 4.107946387222449 19.602747760801563" fill="#ffb510" stroke="none" /><path d="M 95.692805502759 79.44645832069477 l -6.758223488310944 -32.24962983074832 a53.95014732802039,53.95014732802039 0 0,0 0.9105592584403449,-0.1826496211463759 l 6.202097820403463 32.36118340797191" fill="#99ff23" stroke="none" /><path d="M 96.04723909329186 79.375362276772 l -8.463442752557063 -44.16038429406014 a65.96409016342801,65.96409016342801 0 0,0 1.117007252101126,-0.20412593559080983 l 7.7020403793530425 44.29952571100168" fill="#34ff58" stroke="none" /><path d="M 96.40284397218896 79.31037775812273 l -9.100581561779059 -52.34346056686906 a74.1286970372695,74.1286970372695 0 0,0 1.259025772389188,-0.20775004019331003 l 8.198226583250985 52.492356870002" fill="#3fffbf" stroke="none" /><path d="M 96.75951476605007 79.25152402106235 l -5.059751153598996 -32.397038619393776 a53.78977268970979,53.78977268970979 0 0,0 0.9160424404539113,-0.13500084364168471 l 4.501339732716437 32.47933394719643" fill="#9bff22" stroke="none" /><path d="M 97.11714578562143 79.19881850522333 l -7.460806844301693 -53.833314390906615 a75.34785531258959,75.34785531258959 0 0,0 1.2862426841944918,-0.16699121582066334 l 6.533049431599344 53.953763929891416" fill="#41ffcd" stroke="none" /><path d="M 97.47563105711357 79.15227682838746 l -4.443154837719954 -36.69418542262748 a57.96220865616828,57.96220865616828 0 0,0 0.9915216803529948,-0.1114090136735455 l 3.8108664538572414 36.765230389771624" fill="#69ff28" stroke="none" /><path d="M 98.19473922651362 79.07773832637324 l -1.3907340536490826 -16.11806018067744 a37.177948114514365,37.177948114514365 0 0,0 0.638061773326147,-0.04952587385116647 l 1.1130820909606014 16.13961131671707" fill="#ff7b0b" stroke="none" /><path d="M 98.55514903715128 79.0497635885617 l -3.602617222592718 -52.237694027919936 a73.36177544933999,73.36177544933999 0 0,0 1.2605577498394043,-0.07604028590420162 l 2.702897423913691 52.291967583204446" fill="#3effb5" stroke="none" /></svg>