<?xml version="1.0" encoding="utf-8" ?>
<svg baseProfile="full" height="200mm" version="1.1" viewBox="0,0,200,200" width="200mm" xmlns="http://www.w3.org/2000/svg" xmlns:ev="http://www.w3.org/2001/xml-events" xmlns:xlink="http://www.w3.org/1999/xlink"><defs /><rect fill="#1a1a1a" height="200" width="200" x="0" y="0" /><text alignment-baseline="middle" fill="#e1ed5e" style="dominant-baseline: central; font-size:9.0px; font-family:Arial;" text-anchor="middle" x="100.0" y="100.0">2024</text><line stroke="#e1ed5e" stroke-width="0.3" x1="100.0" x2="100.0" y1="15.0" y2="10.0" /><path d="M 100.0 14.0 a86.0,86.0 0 0,1 42.35913384403234,11.155469271406648" fill="none" id="id109" stroke="none" /><text fill="#e1ed5e" style="font-size:6.75px; font-family:Arial;" text-anchor="middle"><textPath startOffset="22.145653131862478" xlink:href="#id109">January</textPath></text><path d="M 101.80034050326958 79.07731436759882 l 0.6186727860360786 -7.189915567664373 a28.216484039081923,28.216484039081923 0 0,0 0.4822337353031579,0.045668036109733245 l -0.7420060847242494 7.178235776049456" fill="#ff0000" stroke="none" /><path d="M 102.15924093988457 79.11130261209362 l 0.8321236651755497 -8.050041618837039 a29.092935181944412,29.092935181944412 0 0,0 0.4963311520355132,0.05561494083329285 l -0.9701907188118596 8.034570917496774" fill="#ff0e01" stroke="none" /><path d="M 102.51750503828377 79.15144685158666 l 7.006291532739186 -58.02214461233831 a79.44362571279123,79.44362571279123 0 0,0 1.3525170524633252,0.17511041077610487 l -8.001286407093303 57.89332260536181" fill="#47fffd" stroke="none" /><path d="M 102.87502721639298 79.19773525538626 l 3.4247135563240163 -24.77952127441077 a46.01506221323156,46.01506221323156 0 0,0 0.7815436883504909,0.11486000825251193 l -3.8495823502821893 24.717080192859374" fill="#f6ff19" stroke="none" /><path d="M 103.23170211078529 79.25015418208739 l 6.824488872696395 -43.818114120704095 a65.34637272053493,65.34637272053493 0 0,0 1.106913089074924,0.18214212757744797 l -7.57567946482439 43.69450599463098" fill="#33ff55" stroke="none" /><path d="M 103.58742460773223 79.30868818359171 l 10.1909750093365 -58.778835707631195 a80.65574154082422,80.65574154082422 0 0,0 1.3621804792482748,0.24823465993825014 l -11.198490222135828 58.59523287376158" fill="#48f4ff" stroke="none" /><path d="M 103.94208987418118 79.37332000966035 l 11.293198486713893 -59.090786533937305 a81.1602641721233,81.1602641721233 0 0,0 1.3662113628610262,0.27328053555297976 l -12.305906335105876 58.88821660172147" fill="#49efff" stroke="none" /><path d="M 104.29559338865022 79.4440306129975 l 10.896593885500106 -52.144146353508155 a74.27051489559301,74.27051489559301 0 0,0 1.2457555563464897,0.2715066253425046 l -11.79011185846573 51.94940827003194" fill="#40ffc3" stroke="none" /><path d="M 104.9986988182912 79.60360301121754 l 14.996096454873593 -61.18919096634738 a84.0,84.0 0 0,0 1.3975788270984224,0.3552590726589293 l -16.04428057519741 60.92274666185318" fill="#4dd2ff" stroke="none" /><path d="M 105.3480935250658 79.69241777938227 l 13.45982517022472 -51.109148528982644 a73.85179237235596,73.85179237235596 0 0,0 1.223191760067371,0.3333863534985126 l -14.335198331226783 50.870561681339986" fill="#3fffbe" stroke="none" /><path d="M 105.69591212413111 79.78721728523813 l 16.381922680506975 -58.133664349961954 a81.3977675205313,81.3977675205313 0 0,0 1.3416677257962735,0.39053992130435194 l -17.37745041868485 57.84388073435508" fill="#49edff" stroke="none" /><path d="M 106.04205211174951 79.88797359093562 l 7.169318237422201 -23.864328717991054 a45.91797160985956,45.91797160985956 0 0,0 0.7529658877804616,0.2332707567779687 l -7.5779247580742926 23.73774137340644" fill="#f8ff18" stroke="none" /><path d="M 106.38641147887787 79.99465700312896 l 15.341740837642712 -48.05778466377064 a71.44719693619005,71.44719693619005 0 0,0 1.1651924004499512,0.3830218856897421 l -16.164455975740406 47.78734185667888" fill="#3cffa1" stroke="none" /><line stroke="#e1ed5e" stroke-width="0.3" x1="143.13028292997686" x2="145.6673583964461" y1="26.7553504044142" y2="22.446841604673864" /><path d="M 143.63769802327073 25.89364864446614 a86.0,86.0 0 0,1 29.32050498858742,28.57503671076993" fill="none" id="id110" stroke="none" /><text fill="#e1ed5e" style="font-size:6.75px; font-family:Arial;" text-anchor="middle"><textPath startOffset="20.669276256404974" xlink:href="#id110">February</textPath></text><path d="M 115.41159269507618 85.73525988315684 l 18.192558735883907 -16.838760766802487 a45.78937388318214,45.78937388318214 0 0,0 0.5289813038605178,0.5814431168278845 l -18.478937740586304 16.52398007441693" fill="#f9ff18" stroke="none" /><path d="M 117.42321728460499 88.27688183743584 l 39.950879645466685 -26.880734776579658 a69.15232794554572,69.15232794554572 0 0,0 0.6542322645009223,0.9905910336055417 l -40.40643634888833 26.19096386463506" fill="#39ff85" stroke="none" /><path d="M 117.81537515405839 88.88188828441811 l 7.247433286282469 -4.522934388488557 a29.542963462504535,29.542963462504535 0 0,0 0.26480629278890017,0.4325411783051693 l -7.324007543526771 4.397856094058834" fill="#ff1502" stroke="none" /><line stroke="#e1ed5e" stroke-width="0.3" x1="172.87174338648825" x2="177.1583165268699" y1="56.24261187166439" y2="53.66864786411523" /><path d="M 173.72905801456457 55.72781907015455 a86.0,86.0 0 0,1 12.242430191666344,42.057860355516425" fill="none" id="id111" stroke="none" /><text fill="#e1ed5e" style="font-size:6.75px; font-family:Arial;" text-anchor="middle"><textPath startOffset="22.145653131862474" xlink:href="#id111">March</textPath></text><path d="M 119.31412917781788 91.75594674310238 l 9.189149510674964 -3.9223015055011636 a30.991242056400928,30.991242056400928 0 0,0 0.20465163423508678,0.491089421352689 l -9.255126989446534 3.763979574707197" fill="#ff2c04" stroke="none" /><line stroke="#e1ed5e" stroke-width="0.3" x1="184.99686870605535" x2="189.99668451229388" y1="99.2704041080226" y2="99.22748670261217" /><path d="M 185.99683186730306 99.26182062694052 a86.0,86.0 0 0,1 -10.086455211305974,41.156179273409016" fill="none" id="id112" stroke="none" /><text fill="#e1ed5e" style="font-size:6.75px; font-family:Arial;" text-anchor="middle"><textPath startOffset="21.40746469413373" xlink:href="#id112">April</textPath></text><line stroke="#e1ed5e" stroke-width="0.3" x1="174.33088141563837" x2="178.70328620479359" y1="141.23008692659167" y2="143.65538615756765" /><path d="M 175.20536237346943 141.71514677278685 a86.0,86.0 0 0,1 -30.301960400862466,31.631185727798858" fill="none" id="id113" stroke="none" /><text fill="#e1ed5e" style="font-size:6.75px; font-family:Arial;" text-anchor="middle"><textPath startOffset="22.145653131862474" xlink:href="#id113">May</textPath></text><line stroke="#e1ed5e" stroke-width="0.3" x1="143.1302829299769" x2="145.66735839644613" y1="173.24464959558577" y2="177.55315839532614" /><path d="M 143.63769802327073 174.10635135553383 a86.0,86.0 0 0,1 -40.68552437913181,11.842963189579606" fill="none" id="id114" stroke="none" /><text fill="#e1ed5e" style="font-size:6.75px; font-family:Arial;" text-anchor="middle"><textPath startOffset="21.407464694133747" xlink:href="#id114">June</textPath></text><line stroke="#e1ed5e" stroke-width="0.3" x1="101.45913802915013" x2="101.54496967792366" y1="184.9874750549273" y2="189.98673829345242" /><path d="M 101.47630435890484 185.9873277026323 a86.0,86.0 0 0,1 -42.54439059252881,-10.42667462771756" fill="none" id="id115" stroke="none" /><text fill="#e1ed5e" style="font-size:6.75px; font-family:Arial;" text-anchor="middle"><textPath startOffset="22.145653131862474" xlink:href="#id115">July</textPath></text><line stroke="#e1ed5e" stroke-width="0.3" x1="58.13341422392154" x2="55.67067388415222" y1="173.97424548756322" y2="178.32567169271397" /><path d="M 57.64086615596768 174.84453072859336 a86.0,86.0 0 0,1 -31.369924170532247,-30.572349798747897" fill="none" id="id116" stroke="none" /><text fill="#e1ed5e" style="font-size:6.75px; font-family:Arial;" text-anchor="middle"><textPath startOffset="22.145653131862474" xlink:href="#id116">August</textPath></text><line stroke="#e1ed5e" stroke-width="0.3" x1="26.387840678322732" x2="22.057713659400548" y1="142.50000000000003" y2="145.00000000000006" /><path d="M 25.521815274538298 143.00000000000003 a86.0,86.0 0 0,1 -11.493303480769221,-40.785679425670985" fill="none" id="id117" stroke="none" /><text fill="#e1ed5e" style="font-size:6.75px; font-family:Arial;" text-anchor="middle"><textPath startOffset="21.40746469413373" xlink:href="#id117">September</textPath></text><line stroke="#e1ed5e" stroke-width="0.3" x1="15.003131293944662" x2="10.003315487706104" y1="100.72959589197737" y2="100.7725132973878" /><path d="M 14.003168132696942 100.73817937305945 a86.0,86.0 0 0,1 10.791469493833604,-42.45332614584628" fill="none" id="id118" stroke="none" /><text fill="#e1ed5e" style="font-size:6.75px; font-family:Arial;" text-anchor="middle"><textPath startOffset="22.145653131862435" xlink:href="#id118">October</textPath></text><line stroke="#e1ed5e" stroke-width="0.3" x1="26.387840678322718" x2="22.05771365940052" y1="57.49999999999999" y2="54.99999999999999" /><path d="M 25.521815274538284 56.99999999999999 a86.0,86.0 0 0,1 29.574782752854787,-30.34633250058573" fill="none" id="id119" stroke="none" /><text fill="#e1ed5e" style="font-size:6.75px; font-family:Arial;" text-anchor="middle"><textPath startOffset="21.40746469413373" xlink:href="#id119">November</textPath></text><line stroke="#e1ed5e" stroke-width="0.3" x1="56.869717070023135" x2="54.33264160355391" y1="26.7553504044142" y2="22.446841604673864" /><path d="M 56.362301976729285 25.89364864446614 a86.0,86.0 0 0,1 42.16139366436587,-11.88097634709845" fill="none" id="id120" stroke="none" /><text fill="#e1ed5e" style="font-size:6.75px; font-family:Arial;" text-anchor="middle"><textPath startOffset="22.145653131862474" xlink:href="#id120">December</textPath></text></svg>