<?xml version="1.0" encoding="utf-8" ?>
<svg baseProfile="full" height="200mm" version="1.1" viewBox="0,0,200,200" width="200mm" xmlns="http://www.w3.org/2000/svg" xmlns:ev="http://www.w3.org/2001/xml-events" xmlns:xlink="http://www.w3.org/1999/xlink"><defs /><rect fill="#1a1a1a" height="200" width="200" x="0" y="0" /><text alignment-baseline="middle" fill="#e1ed5e" style="dominant-baseline: central; font-size:9.0px; font-family:Arial;" text-anchor="middle" x="100.0" y="100.0">2018</text><line stroke="#e1ed5e" stroke-width="0.3" x1="100.0" x2="100.0" y1="15.0" y2="10.0" /><path d="M 100.0 14.0 a86.0,86.0 0 0,1 42.46469731375804,11.215312516191453" fill="none" id="id37" stroke="none" /><text fill="#e1ed5e" style="font-size:6.75px; font-family:Arial;" text-anchor="middle"><textPath startOffset="22.20632615414155" xlink:href="#id37">January</textPath></text><path d="M 100.72285384407766 79.0124445844662 l 0.43249897604406945 -12.557305050329544 a33.56475091242604,33.56475091242604 0 0,0 0.5772484524091055,0.024857532635111097 l -0.6485882608425064 12.54799979117024" fill="#ff910d" stroke="none" /><path d="M 101.08401301168833 79.027996857942 l 0.3949797895164712 -7.641529481170549 a28.651730643829872,28.651730643829872 0 0,0 0.49231579917708945,0.029697833462491975 l -0.5264576375331725 7.633598378327752" fill="#ff4d07" stroke="none" /><path d="M 101.44485096284872 79.0497635885617 l 0.5232157062683359 -7.586590605087217 a28.604611211921586,28.604611211921586 0 0,0 0.490922976678691,0.038105071374019736 l -0.653728872309368 7.5764602715247324" fill="#ff4c07" stroke="none" /><path d="M 102.16513564639614 79.11191278185805 l 6.4954069391883955 -62.66426165442583 a84.0,84.0 0 0,0 1.436933185961099,0.1614561861175967 l -7.57310682865922 62.54316951483763" fill="#4dd2ff" stroke="none" /><line stroke="#e1ed5e" stroke-width="0.3" x1="143.23703022742887" x2="145.7803849466894" y1="26.81831364943548" y2="22.513508569990506" /><path d="M 143.74570117128098 25.957352633546492 a86.0,86.0 0 0,1 28.547481713284135,27.462654790039103" fill="none" id="id38" stroke="none" /><text fill="#e1ed5e" style="font-size:6.75px; font-family:Arial;" text-anchor="middle"><textPath startOffset="19.985693538727396" xlink:href="#id38">February</textPath></text><path d="M 116.60985879189232 87.15038557335679 l 1.8728896424893597 -1.448893098440372 a23.367911912139483,23.367911912139483 0 0,0 0.2433868839004022,0.3202686097230805 l -1.8975524666138754 1.416439712836258" fill="#ff0000" stroke="none" /><path d="M 116.82858285166822 87.43820079747576 l 5.668662735284875 -4.231408173530284 a28.07379334851014,28.07379334851014 0 0,0 0.28573424986394713,0.38974119569981525 l -5.740659597662448 4.133204534158976" fill="#ff4506" stroke="none" /><path d="M 117.04232023915458 87.72973835380427 l 3.719244930417708 -2.6778107547623575 a25.582952464379133,25.582952464379133 0 0,0 0.2542304441653847,0.35959093384553165 l -3.7647879943869755 2.613393320585033" fill="#ff2103" stroke="none" /><line stroke="#e1ed5e" stroke-width="0.3" x1="172.23445277983987" x2="176.4835382374775" y1="55.19839476539836" y2="52.563006222186495" /><path d="M 173.08426987136738 54.67131705675599 a86.0,86.0 0 0,1 12.851231095245387,41.99856678651699" fill="none" id="id39" stroke="none" /><text fill="#e1ed5e" style="font-size:6.75px; font-family:Arial;" text-anchor="middle"><textPath startOffset="22.20632615414155" xlink:href="#id39">March</textPath></text><path d="M 118.73160827565052 90.50648371742162 l 6.330741565418215 -3.208533792062039 a28.09739232837793,28.09739232837793 0 0,0 0.21493165427017336,0.4332890997013504 l -6.3850332326417965 3.0990851038617393" fill="#ff4506" stroke="none" /><path d="M 118.89224826269711 90.83032412892265 l 8.328052366475438 -4.042162678368075 a30.257188306237964,30.257188306237964 0 0,0 0.2233871011556775,0.4705102058473505 l -8.396397661472871 3.8982100568801843" fill="#ff6409" stroke="none" /><path d="M 119.04729006885535 91.15688171328212 l 8.44747076877156 -3.921921856694218 a30.313497379570457,30.313497379570457 0 0,0 0.21565553682121327,0.47516838916087606 l -8.513728622556119 3.775931458691279" fill="#ff6509" stroke="none" /><path d="M 119.196687751892 91.48605970444005 l 8.435473355845387 -3.741224394785287 a30.227890913383945,30.227890913383945 0 0,0 0.2068585117197756,0.47745796539582436 l -8.498622577407843 3.5954672848028597" fill="#ff6309" stroke="none" /><path d="M 119.34039704204932 91.81776055985345 l 8.493635771417077 -3.593357543179185 a30.22247618867181,30.22247618867181 0 0,0 0.19857363250642868,0.48086180183356125 l -8.554231090809703 3.4466211708923207" fill="#ff6309" stroke="none" /><path d="M 119.47837535516314 92.15188598940014 l 13.531476616976667 -5.452024066968672 a35.588537481961374,35.588537481961374 0 0,0 0.22404924787581718,0.5701808976242657 l -13.623319414734185 5.218294164448622" fill="#ffad10" stroke="none" /><path d="M 119.7369772167798 92.82701384747503 l 7.11650719724046 -2.5863437455230858 a28.57191182320434,28.57191182320434 0 0,0 0.16401218788862193,0.46368454127988157 l -7.159972465938891 2.46346157781659" fill="#ff4c07" stroke="none" /><path d="M 119.85752413597 93.16781622104841 l 8.996259128057496 -3.095254738964322 a30.51384676133891,30.51384676133891 0 0,0 0.166609535575649,0.49814130490922937 l -9.048205957404914 2.939940331132778" fill="#ff6709" stroke="none" /><path d="M 119.97218684219823 93.5106431181261 l 9.001363418039105 -2.924720267471262 a30.46459360070837,30.46459360070837 0 0,0 0.15775511872891587,0.5001268368443327 l -9.050374020536227 2.76934326420051" fill="#ff6709" stroke="none" /><path d="M 120.18372546131832 94.20196356495316 l 8.71395031943395 -2.503195039096917 a30.066361760558777,30.066361760558777 0 0,0 0.13861055139808115,0.49865590231044205 l -8.755747641398393 2.352827833367523" fill="#ff6109" stroke="none" /><path d="M 120.37134235888165 94.90015583598534 l 9.295616910018154 -2.3271022996088155 a30.58247874251021,30.58247874251021 0 0,0 0.12344719448026699,0.5117683182181125 l -9.33429690475924 2.1667487497312967" fill="#ff6809" stroke="none" /><path d="M 120.53481517161879 95.60439243477599 l 9.345549259050465 -2.000474154792092 a30.557258382890453,30.557258382890453 0 0,0 0.10567093422251751,0.5152890035374365 l -9.378599489187978 1.8393094950912439" fill="#ff6809" stroke="none" /><path d="M 120.6074358757038 95.95851677861258 l 9.056110573560991 -1.776063706073575 a30.22862617124537,30.22862617124537 0 0,0 0.09574453271332703,0.511471122230114 l -9.085340830184178 1.6199145063808984" fill="#ff6309" stroke="none" /><path d="M 120.73433829027371 96.67025291283417 l 9.128475067120437 -1.4659504846252287 a30.24543497486259,30.24543497486259 0 0,0 0.07812555227386535,0.5147497764811167 l -9.152356512833602 1.3086015957520296" fill="#ff6409" stroke="none" /><path d="M 120.83666639777658 97.38593545837742 l 9.348867324005433 -1.1728624008024775 a30.422150840072167,30.422150840072167 0 0,0 0.06071340964661884,0.5201554167977978 l -9.367671086655639 1.011763245679827" fill="#ff6609" stroke="none" /><path d="M 120.91429891909075 98.10471618934814 l 9.386039846741353 -0.8505764136049545 a30.424501272746348,30.424501272746348 0 0,0 0.04277614783867976,0.5219773516411922 l -9.399290478399529 0.6888851447559936" fill="#ff6609" stroke="none" /><line stroke="#e1ed5e" stroke-width="0.3" x1="184.98032266829074" x2="189.97916517819016" y1="98.17113171792111" y2="98.06355123074" /><path d="M 185.9800911702706 98.14961562048488 a86.0,86.0 0 0,1 -9.607161424134198,41.387399972396054" fill="none" id="id40" stroke="none" /><text fill="#e1ed5e" style="font-size:6.75px; font-family:Arial;" text-anchor="middle"><textPath startOffset="21.466115282336823" xlink:href="#id40">April</textPath></text><path d="M 120.99824983174949 100.27111621757518 l 7.284628640041279 0.09405455117224448 a28.28523580139352,28.28523580139352 0 0,0 -0.010476228143001034,0.4867891562572224 l -7.281930349213271 -0.2194335232195817" fill="#ff4806" stroke="none" /><path d="M 120.9904718944345 100.63252640178507 l 7.443461523953742 0.22430109995861616 a28.446840299215662,28.446840299215662 0 0,0 -0.018961671014831427,0.4893164746016949 l -7.438497720087707 -0.3523948215743173" fill="#ff4a06" stroke="none" /><path d="M 120.13307415673323 105.97154293290107 l 3.252908959001883 0.964824614178551 a24.392978519189224,24.392978519189224 0 0,0 -0.12286305076967716,0.40152355872384654 l -3.235819135726073 -1.0206751454544547" fill="#ff0f01" stroke="none" /><path d="M 119.54520255179757 107.68017299344265 l 6.41518134434811 2.520807977217311 a27.892679053813143,27.892679053813143 0 0,0 -0.17943942959655923,0.44535394853814575 l -6.370839300494158 -2.6308612935982705" fill="#ff4206" stroke="none" /><path d="M 119.41010516605496 108.01547362559984 l 7.126204403522724 2.9427920641544483 a28.709916623001643,28.709916623001643 0 0,0 -0.19256017078097148,0.45515536237132 l -7.074493251549444 -3.0650219521919317" fill="#ff4e07" stroke="none" /><path d="M 119.26925614724726 108.34839909993367 l 6.982162945328672 3.0250198763743756 a28.609293308026757,28.609293308026757 0 0,0 -0.19966414256329784,0.45018993168600285 l -6.929057718034101 -3.1447581445530663" fill="#ff4c07" stroke="none" /><path d="M 119.12269723197855 108.67885076344098 l 6.970537963703669 3.163583985773573 a28.654845729240865,28.654845729240865 0 0,0 -0.20771404145377204,0.4473975661828087 l -6.915049305410066 -3.2831016192352123" fill="#ff4d07" stroke="none" /><path d="M 118.97047184881838 109.00673069616215 l 6.953601561483248 3.3014053172638023 a28.697522441975728,28.697522441975728 0 0,0 -0.21570526003295334,0.44441672545546973 l -6.895743044835581 -3.4206109986845474" fill="#ff4e07" stroke="none" /><path d="M 118.81262510543309 109.33194174019688 l 6.908589626551004 3.4269835039280814 a28.711862716898125,28.711862716898125 0 0,0 -0.22343479990997708,0.44085805748734463 l -6.848576156854758 -3.5453957731181203" fill="#ff4e07" stroke="none" /><line stroke="#e1ed5e" stroke-width="0.3" x1="174.80103733775053" x2="179.2010983576182" y1="140.37084112569926" y2="142.7455964860345" /><path d="M 175.68104954172406 140.8457921977663 a86.0,86.0 0 0,1 -30.038265399797805,32.042727171017184" fill="none" id="id41" stroke="none" /><text fill="#e1ed5e" style="font-size:6.75px; font-family:Arial;" text-anchor="middle"><textPath startOffset="22.206326154141568" xlink:href="#id41">May</textPath></text><path d="M 118.12598468904814 110.60418214915192 l 6.614018689705904 3.8693764850145462 a28.662722597782235,28.662722597782235 0 0,0 -0.2528040180793266,0.423714075560903 l -6.546433795928349 -3.9826526544615533" fill="#ff4d07" stroke="none" /><path d="M 117.94076556474637 110.91462005526583 l 6.506493919603366 3.9583544396742143 a28.61597222919859,28.61597222919859 0 0,0 -0.2596359323781867,0.41861579287425044 l -6.437393347557217 -4.069766563913738" fill="#ff4d07" stroke="none" /><path d="M 117.35343817320211 111.8261652097733 l 5.094389749681191 3.471767048200364 a27.16489848729293,27.16489848729293 0 0,0 -0.2666546443430106,0.38413590321925 l -5.033874198176045 -3.5589442136066336" fill="#ff3805" stroke="none" /><path d="M 117.14729908036423 112.12312394758627 l 6.263685163322173 4.428419382418498 a28.67102666217516,28.67102666217516 0 0,0 -0.2883762002090126,0.4005293199950864 l -6.1865291707375585 -4.535582307864715" fill="#ff4d07" stroke="none" /><path d="M 116.93607887273984 112.41649034213515 l 6.338958231563408 4.647333910808137 a28.86003205718989,28.86003205718989 0 0,0 -0.29717413215170374,0.39811331351981905 l -6.2580228327166125 -4.755760103837271" fill="#ff5007" stroke="none" /><path d="M 116.71984013943494 112.70617746262583 l 6.129998471964434 4.658468488983867 a28.699234372919292,28.699234372919292 0 0,0 -0.3022892854452681,0.39074965044376053 l -6.048902369301098 -4.763296133540879" fill="#ff4e07" stroke="none" /><path d="M 116.498646956653 112.99209946851258 l 6.061855545782294 4.77349630072544 a28.715721585890137,28.715721585890137 0 0,0 -0.30914810918997826,0.38570979990932536 l -5.978789524537461 -4.877133934213015" fill="#ff4e07" stroke="none" /><path d="M 116.27256486870786 113.27417163493432 l 5.947193104504604 4.851359490789399 a28.67494591063282,28.67494591063282 0 0,0 -0.3152933196953047,0.37979111466257337 l -5.862803784915755 -4.953011862565742" fill="#ff4d07" stroke="none" /><path d="M 115.80600337817218 113.82643327865902 l 5.770312316575302 5.047628823889254 a28.66648948180184,28.66648948180184 0 0,0 -0.3280827170761936,0.3686044106161076 l -5.68257074985077 -5.146207404246228" fill="#ff4d07" stroke="none" /><path d="M 115.32070863581623 114.36230785411682 l 5.652978801106238 5.29935160077917 a28.748502869228176,28.748502869228176 0 0,0 -0.34155062493026056,0.35811446473797454 l -5.560921624797014 -5.395873182099652" fill="#ff4e07" stroke="none" /><path d="M 114.0293411484842 115.62618273729858 l 7.83366651709552 8.725306712811504 a32.725924625960076,32.725924625960076 0 0,0 -0.42241010133662366,0.3727278016492388 l -7.682314062852309 -8.858857656233031" fill="#ff860c" stroke="none" /><path d="M 113.75828350139079 115.86535959552629 l 7.915888335704191 9.12820374367803 a33.08244146393581,33.08244146393581 0 0,0 -0.4334343698022719,0.3693821731033341 l -7.757588489324872 -9.263110307004311" fill="#ff8b0c" stroke="none" /><path d="M 113.48314897796784 116.09983520530334 l 7.375149057527793 8.806450528342515 a32.486792177492255,32.486792177492255 0 0,0 -0.43181114878565463,0.3553511778972574 l -7.222467780197447 -8.93209682509695" fill="#ff830c" stroke="none" /><path d="M 113.20401910651253 116.32954008644616 l 7.485014292087741 9.256790674438216 a32.90435267215837,32.90435267215837 0 0,0 -0.4434919276590587,0.352336809408725 l -7.324564871711331 -9.384261397852066" fill="#ff880c" stroke="none" /><path d="M 112.92097659922987 116.55440617244103 l 7.772733779736453 9.958457170155333 a33.632745529791784,33.632745529791784 0 0,0 -0.4594413559231492,0.35228004013740627 l -7.60016369531981 -10.090776552120111" fill="#ff920d" stroke="none" /><path d="M 112.04921762599082 117.19931262002967 l 6.471889014537523 9.23811369819236 a32.27954308104813,32.27954308104813 0 0,0 -0.4578209368671061,0.3148934150113789 l -6.311911193047534 -9.348147902568833" fill="#ff800b" stroke="none" /><path d="M 111.7513745106137 117.40417183066458 l 6.791056510666403 10.057777863912108 a33.13578774084587,33.13578774084587 0 0,0 -0.4754595820713803,0.31510868497833106 l -6.616922229855058 -10.173184569981757" fill="#ff8c0c" stroke="none" /><path d="M 111.45004920935366 117.60387380957326 l 6.647678575862585 10.22047090247348 a33.19219651729291,33.19219651729291 0 0,0 -0.4816317289930308,0.30740015705990925 l -6.470765044822624 -10.333385488357198" fill="#ff8c0c" stroke="none" /><path d="M 111.1453310114006 117.79835938074945 l 6.474832096944444 10.33988030266198 a33.1998596449713,33.1998596449713 0 0,0 -0.4869641585704341,0.29913315926227035 l -6.295888738441701 -10.44980192875263" fill="#ff8c0c" stroke="none" /><line stroke="#e1ed5e" stroke-width="0.3" x1="143.8653032363475" x2="146.44561519142675" y1="172.8068346515853" y2="177.08958963109032" /><path d="M 144.38136562736335 173.6633856474863 a86.0,86.0 0 0,1 -40.68145358897372,12.25698825130547" fill="none" id="id42" stroke="none" /><text fill="#e1ed5e" style="font-size:6.75px; font-family:Arial;" text-anchor="middle"><textPath startOffset="21.466115282336833" xlink:href="#id42">June</textPath></text><path d="M 107.59598834532513 119.57807347666477 l 4.727646565723073 12.185144003333312 a34.07013299214522,34.07013299214522 0 0,0 -0.5485774546334353,0.20742505343550352 l -4.517198890329363 -12.264717306875445" fill="#ff980e" stroke="none" /><path d="M 106.91757812671514 119.82793768551818 l 5.026830599525727 14.408465225441834 a36.26017352552371,36.26017352552371 0 0,0 -0.591093089844525,0.2005308689433371 l -4.778067776743975 -14.492859081283294" fill="#ffb510" stroke="none" /><path d="M 104.13013068566511 120.58985236759428 l 2.4447734639189753 12.187876976633135 a33.430658167909954,33.430658167909954 0 0,0 -0.565188872180524,0.10831979251425052 l -2.234616977166747 -12.228153967495853" fill="#ff900d" stroke="none" /><path d="M 103.7750983002368 120.6578951692458 l 4.0183774276528075 21.989154466708335 a43.35330560145029,43.35330560145029 0 0,0 -0.7352535419068122,0.1278332527930965 l -3.639274914273945 -22.05506629802244" fill="#eeff19" stroke="none" /><path d="M 102.70371172650421 120.8252237178851 l 1.3716497730270192 10.565073600804062 a31.65374128136459,31.65374128136459 0 0,0 -0.5409361763670578,0.06549983767839196 l -1.189586173608581 -10.587118967207806" fill="#ff770b" stroke="none" /><path d="M 101.98527174616119 120.90594882070398 l 1.1921526970478176 12.553990817195814 a33.610468408878205,33.610468408878205 0 0,0 -0.5764286276583757,0.04973668747953582 l -0.9758797516479001 -12.572651756954015" fill="#ff920d" stroke="none" /><path d="M 101.62511606390274 120.93702456842531 l 0.9569331002035024 12.32855441794421 a33.3656368616613,33.3656368616613 0 0,0 -0.5729948172686803,0.039517077381808395 l -0.7445755221558917 -12.343199839842303" fill="#ff8f0d" stroke="none" /><line stroke="#e1ed5e" stroke-width="0.3" x1="102.19456741930631" x2="102.32365962044197" y1="184.97166512339345" y2="189.96999836594603" /><path d="M 102.22038585953345 185.97133177190398 a86.0,86.0 0 0,1 -42.740103519485714,-10.115201625700543" fill="none" id="id43" stroke="none" /><text fill="#e1ed5e" style="font-size:6.75px; font-family:Arial;" text-anchor="middle"><textPath startOffset="22.20632615414155" xlink:href="#id43">July</textPath></text><path d="M 99.81925306533755 120.99922214144158 l -0.10432799248173792 12.12085114353987 a33.12130012720859,33.12130012720859 0 0,0 -0.5700653804350614,-0.009814192504063214 l 0.3129530628094673 -12.117259473756647" fill="#ff8b0c" stroke="none" /><path d="M 99.45781275523022 120.99299961872073 l -0.3409234128223296 13.200246122409418 a34.20464791145888,34.20464791145888 0 0,0 -0.5884496746925961,-0.02026739660603681 l 0.5680934391895688 -13.192421927377287" fill="#ff9a0e" stroke="none" /><path d="M 98.73552117531835 120.96189622390904 l -1.378064811627378 22.844867788455492 a43.88639436208895,43.88639436208895 0 0,0 -0.753669909624328,-0.05197748957125341 l 1.771097482030636 -22.817761954367953" fill="#e8ff1a" stroke="none" /><path d="M 97.65516085044442 120.86867818915974 l -1.0667354628971946 9.493768087412349 a30.553510194968737,30.553510194968737 0 0,0 -0.5221341399282895,-0.06322317290985895 l 1.2299970258768735 -9.473999385777141" fill="#ff6809" stroke="none" /><path d="M 97.2962882734958 120.8252237178851 l -1.5805337095305225 12.173993170932414 a33.27616375472694,33.27616375472694 0 0,0 -0.567392515978704,-0.07863543262226458 l 1.7898548166960577 -12.144983172817545" fill="#ff8d0d" stroke="none" /><path d="M 96.93821686468263 120.77559828337769 l -1.5431077078237643 10.470691237381605 a31.583787431091245,31.583787431091245 0 0,0 -0.5371712457998988,-0.08389510110930837 l 1.7231148172321802 -10.44257782892519" fill="#ff760a" stroke="none" /><path d="M 96.58105272829116 120.7198165907248 l -1.9428613382170967 11.774305770134886 a32.93352364342445,32.93352364342445 0 0,0 -0.5585384913645324,-0.09710907611013779 l 2.145248801053679 -11.739118115503741" fill="#ff890c" stroke="none" /><path d="M 96.22490169976321 120.6578951692458 l -1.5562766741980578 8.51617569479168 a29.657207722540424,29.657207722540424 0 0,0 -0.5013937715655369,-0.09609330964776654 l 1.7026380603352897 -8.488125186795447" fill="#ff5b08" stroke="none" /><path d="M 90.42595943632237 118.69057910512821 l -3.437884117465221 6.711486610525205 a28.540762542898346,28.540762542898346 0 0,0 -0.43532694720577947,-0.22774248395592087 l 3.552901967197496 -6.651314707624567" fill="#ff4c07" stroke="none" /><line stroke="#e1ed5e" stroke-width="0.3" x1="58.666819895761336" x2="56.23545636021788" y1="174.27360380694188" y2="178.64263932499728" /><path d="M 58.180547188652646 175.14741091055294 a86.0,86.0 0 0,1 -31.652253787137756,-30.449443065178592" fill="none" id="id44" stroke="none" /><text fill="#e1ed5e" style="font-size:6.75px; font-family:Arial;" text-anchor="middle"><textPath startOffset="22.20632615414155" xlink:href="#id44">August</textPath></text><path d="M 86.24171649860922 115.8653595955263 l -3.517863515243447 4.0566230279872935 a26.369502221163316,26.369502221163316 0 0,0 -0.340364534623478,-0.30033212829935685 l 3.5871704027735127 -3.995467757915648" fill="#ff2c04" stroke="none" /><path d="M 85.97065885151581 115.62618273729859 l -4.497531980645964 5.0094481168142115 a27.732188674716912,27.732188674716912 0 0,0 -0.35246350721676833,-0.32196705701342004 l 4.583095037329587 -4.931288293214216" fill="#ff4006" stroke="none" /><path d="M 85.70375840098266 115.38237550388516 l -3.4841813115333653 3.748886368939736 a26.117975031089983,26.117975031089983 0 0,0 -0.32667886280679653,-0.3088952550503511 l 3.5481960087309785 -3.688356477143454" fill="#ff2903" stroke="none" /><path d="M 85.44109423537348 115.13401014063109 l -4.755093018336371 4.942928206458711 a27.85882270271192,27.85882270271192 0 0,0 -0.3427299129523776,-0.335433354908528 l 4.839472883664543 -4.860344748627613" fill="#ff4206" stroke="none" /><path d="M 85.18274418774928 114.88116024355367 l -4.476642814861371 4.495949852335446 a27.3445958079743,27.3445958079743 0 0,0 -0.33068649807153516,-0.3349836766598979 l 4.55336993798844 -4.418225681694884" fill="#ff3a05" stroke="none" /><path d="M 84.43433777217949 114.09645910891817 l -4.382613673622892 3.968949957682657 a26.912686900117027,26.912686900117027 0 0,0 -0.3080107680299154,-0.34605336308134615 l 4.450283291301146 -3.892922424860447" fill="#ff3405" stroke="none" /><path d="M 83.95833913139862 113.55231037782056 l -5.351802463401385 4.521307903146303 a28.005998484322014,28.005998484322014 0 0,0 -0.30793795604788143,-0.3709311053192017 l 5.428836419342803 -4.42851554071334" fill="#ff4406" stroke="none" /><path d="M 83.50135304334701 112.99209946851258 l -5.525253736962252 4.350941403133526 a28.032717821107063,28.032717821107063 0 0,0 -0.2952688608037355,-0.3816748052318143 l 5.599329414984057 -4.25518860378846" fill="#ff4406" stroke="none" /><path d="M 83.28015986056508 112.70617746262583 l -22.82860240874934 17.34850758202883 a49.67256185380839,49.67256185380839 0 0,0 -0.5114824692989316,-0.6852143528964544 l 23.123846144743354 -16.95298034962307" fill="#a4ff21" stroke="none" /><path d="M 82.85270091963577 112.12312394758628 l -15.59001332383326 11.022124416420784 a40.092819123648496,40.092819123648496 0 0,0 -0.39355701730769294,-0.5669482363010983 l 15.777431248303087 -10.752134917932672" fill="#ffe715" stroke="none" /><path d="M 82.6465618267979 111.8261652097733 l -9.131264487442348 6.222849980782967 a32.0500612225886,32.0500612225886 0 0,0 -0.3067601322445847,-0.4585647759443492 l 9.237027725097663 -6.064748290632797" fill="#ff7d0b" stroke="none" /><path d="M 82.44556493220864 111.52570212397912 l -6.324692977393584 4.152598873250588 a28.566096659468062,28.566096659468062 0 0,0 -0.266338228486908,-0.4133628452080198 l 6.395236069257538 -4.04311442812112" fill="#ff4c07" stroke="none" /><path d="M 82.24976979558568 111.22182372390057 l -7.285752436668698 4.6061053067324345 a29.619651655672204,29.619651655672204 0 0,0 -0.26874242862491093,-0.43329836439549657 l 7.3639595049615645 -4.480010610971673" fill="#ff5b08" stroke="none" /><path d="M 82.05923443525364 110.91462005526583 l -7.587527545014426 4.616022655991221 a29.881342207514408,29.881342207514408 0 0,0 -0.26355219222082293,-0.44172863365587345 l 7.66586061293348 -4.484731928449237" fill="#ff5e08" stroke="none" /><line stroke="#e1ed5e" stroke-width="0.3" x1="26.63291911575756" x2="22.317208475507996" y1="142.92168965132927" y2="145.44649492493687" /><path d="M 25.769776987707644 143.4266507060508 a86.0,86.0 0 0,1 -11.730757126820373,-40.83630448921669" fill="none" id="id45" stroke="none" /><text fill="#e1ed5e" style="font-size:6.75px; font-family:Arial;" text-anchor="middle"><textPath startOffset="21.46611528233685" xlink:href="#id45">September</textPath></text><path d="M 81.87401531095188 110.60418214915194 l -7.651060392758059 4.47607340681413 a29.864195297759395,29.864195297759395 0 0,0 -0.2557626624198852,-0.4459437602280484 l 7.726975051330322 -4.343709800727775" fill="#ff5e08" stroke="none" /><path d="M 81.69416730710424 110.29060199501025 l -39.255817857440654 22.06761114539801 a66.03330653328769,66.03330653328769 0 0,0 -0.548465067682127,-0.9956234102910742 l 39.6298593345743 -21.388617216709115" fill="#36ff70" stroke="none" /><path d="M 81.18737489456691 109.33194174019688 l -10.736055016387285 5.325585311511908 a32.984353809241696,32.984353809241696 0 0,0 -0.24792727768841386,-0.5108036256720918 l 10.826135550690417 -5.139992729874532" fill="#ff890c" stroke="none" /><path d="M 81.02952815118164 109.00673069616217 l -10.909710269733232 5.179672026911781 a33.07686964721799,33.07686964721799 0 0,0 -0.23976853122794595,-0.5164400854550876 l 10.997253417801005 -4.991111874177867" fill="#ff8b0c" stroke="none" /><path d="M 80.73074385275274 108.34839909993369 l -10.835755169992698 4.694587482620175 a32.80901103971021,32.80901103971021 0 0,0 -0.22005319109495064,-0.5201407410866549 l 10.914959342279955 -4.5073722158673615" fill="#ff870c" stroke="none" /><path d="M 80.45479744820244 107.68017299344265 l -19.04018456584373 7.481729130471853 a41.45739228452994,41.45739228452994 0 0,0 -0.2552703797869353,-0.6664304102766752 l 19.166149225224178 -7.152875153362021" fill="#fff817" stroke="none" /><path d="M 80.20201598880116 107.00284435728193 l -6.001234208606749 2.1227266923085195 a27.36559350232097,27.36559350232097 0 0,0 -0.15325927202635029,-0.4454431835835942 l 6.036884311576328 -2.0191108056356284" fill="#ff3b05" stroke="none" /><path d="M 80.0844068197444 106.66101706037122 l -8.145440981018535 2.7243437264325077 a29.588961375801404,29.588961375801404 0 0,0 -0.15739601285990085,-0.48441511759594336 l 8.191129244894684 -2.5837297088587605" fill="#ff5a08" stroke="none" /><path d="M 79.86692584326677 105.97154293290107 l -5.761674262237488 1.7089335167841548 a27.009770716834225,27.009770716834225 0 0,0 -0.12837019016943554,-0.4468734725666153 l 5.7902370892930275 -1.6095025687129436" fill="#ff3605" stroke="none" /><path d="M 79.76711848015287 105.62410040840567 l -60.61659859531481 16.84949504506606 a83.91484330854864,83.91484330854864 0 0,0 -0.37486727972635653,-1.3950206019127755 l 60.89765395138294 -15.803583509977747" fill="#4dd3ff" stroke="none" /><line stroke="#e1ed5e" stroke-width="0.3" x1="15.007084014347285" x2="10.007500721073583" y1="101.09737516637583" y2="101.16192664675087" /><path d="M 14.007167355692545 101.11028546245083 a86.0,86.0 0 0,1 10.666146001902534,-42.60595125391555" fill="none" id="id46" stroke="none" /><text fill="#e1ed5e" style="font-size:6.75px; font-family:Arial;" text-anchor="middle"><textPath startOffset="22.20632615414155" xlink:href="#id46">October</textPath></text><path d="M 81.43458229118936 90.18545643968196 l -7.686075888689678 -4.063217310842164 a29.693992033687646,29.693992033687646 0 0,0 0.24277228257406608,-0.4498201688900049 l 7.61499550689714 4.194918463064642" fill="#ff5c08" stroke="none" /><path d="M 81.6062741919709 89.86733742301443 l -10.052059148194157 -5.537438396960972 a32.47637212358207,32.47637212358207 0 0,0 0.2739495790588609,-0.48732573303023746 l 9.955251927842866 5.709647639925995" fill="#ff830c" stroke="none" /><line stroke="#e1ed5e" stroke-width="0.3" x1="26.266209847984243" x2="21.928928074336255" y1="57.711370442889674" y2="55.22380399835377" /><path d="M 25.398753493254645 57.213857153982495 a86.0,86.0 0 0,1 29.58750427330803,-30.492523968695096" fill="none" id="id47" stroke="none" /><text fill="#e1ed5e" style="font-size:6.75px; font-family:Arial;" text-anchor="middle"><textPath startOffset="21.46611528233685" xlink:href="#id47">November</textPath></text><path d="M 81.96595687620814 89.24020034530311 l -9.275773538034844 -5.534281149628783 a31.801307447343767,31.801307447343767 0 0,0 0.2845220601523223,-0.4676794568518868 l 9.179135679596305 5.693128379687745" fill="#ff790b" stroke="none" /><path d="M 82.15384107792192 88.93136811851018 l -13.042700042190376 -8.089407145707888 a36.347655598155136,36.347655598155136 0 0,0 0.3343506667961676,-0.5288624603852317 l 12.901521779148245 8.312717253807335" fill="#ffb710" stroke="none" /><path d="M 82.7489923806493 88.02491185347247 l -6.967788966316991 -4.836812370568553 a29.482030239701682,29.482030239701682 0 0,0 0.2929775073136278,-0.41439590681794547 l 6.883498839199485 4.956034777718284" fill="#ff5908" stroke="none" /><path d="M 82.95767976084542 87.72973835380427 l -8.736470826959245 -6.290151892865953 a31.765311576802368,31.765311576802368 0 0,0 0.32330641471981786,-0.44098958633877866 l 8.626901799725793 6.439603922876233" fill="#ff790b" stroke="none" /><path d="M 83.17141714833178 87.43820079747576 l -15.580647854062544 -11.630270446009181 a40.442730728979875,40.442730728979875 0 0,0 0.4212284882602697,-0.5542873147021256 l 15.378143425578164 11.896742536592333" fill="#ffeb16" stroke="none" /><path d="M 84.07557802195018 86.31012108654704 l -5.855870794931003 -5.034164645092414 a28.722307714720017,28.722307714720017 0 0,0 0.32553061585353515,-0.37213776757750056 l 5.768348315499624 5.134217968872858" fill="#ff4e07" stroke="none" /><path d="M 84.31358615837235 86.03803664274999 l -7.985886727738089 -7.107976303158601 a31.691010894883963,31.691010894883963 0 0,0 0.36619168233094274,-0.40435800180449005 l 7.862351404791101 7.244387092232647" fill="#ff780b" stroke="none" /><path d="M 84.80347519578584 85.50635884689758 l -7.678272180832685 -7.323129669355534 a31.61056510451467,31.61056510451467 0 0,0 0.37892899434978633,-0.3905196374764263 l 7.55107892277978 7.454213502382085" fill="#ff770a" stroke="none" /><path d="M 85.05521093208273 85.24692304244772 l -7.5442477429660375 -7.44746995310581 a31.600966121522227,31.600966121522227 0 0,0 0.38547791430759926,-0.38382254963908474 l 7.414934028491125 7.576228353395004" fill="#ff760a" stroke="none" /><path d="M 86.10567301691215 84.25364557470407 l -7.08074400935878 -8.024563183367356 a31.701894692526416,31.701894692526416 0 0,0 0.4122849540559953,-0.35752944943395654 l 6.941565256656011 8.145257626220992" fill="#ff780b" stroke="none" /><path d="M 86.37877921826538 84.01681056812374 l -6.950480566493473 -8.155718882833696 a31.715639532991652,31.715639532991652 0 0,0 0.4185595455757294,-0.3505315822915434 l 6.809063483958633 8.274151622519053" fill="#ff780b" stroke="none" /><path d="M 86.65592168130627 83.78471172551755 l -6.794905593338631 -8.25694741610786 a31.693358810717747,31.693358810717747 0 0,0 0.4242331166556478,-0.3430336768998177 l 6.651769078118482 8.372687190271812" fill="#ff780b" stroke="none" /><path d="M 86.93701828274178 83.55741782278169 l -6.564700865538215 -8.263093050789616 a31.553388281495465,31.553388281495465 0 0,0 0.4281756397447754,-0.3341978784302543 l 6.421492670634013 8.374869318443093" fill="#ff760a" stroke="none" /><path d="M 87.80319425747018 82.90503203632743 l -6.205511183428975 -8.697606333847107 a31.684415051196737,31.684415051196737 0 0,0 0.44670326938886384,-0.3129441871322131 l 6.054876774456451 8.803135363743262" fill="#ff780b" stroke="none" /><path d="M 88.09926311788651 82.69761687909137 l -6.0717090453844405 -8.827607663507214 a31.714117219473312,31.714117219473312 0 0,0 0.4524476495235683,-0.3054946726411058 l 5.918856701454333 8.930814248446985" fill="#ff780b" stroke="none" /><path d="M 88.39885842347998 82.49532879139004 l -5.811626969366702 -8.769017998345161 a31.52001353071239,31.52001353071239 0 0,0 0.4548382594062518,-0.2958394560671155 l 5.659821684176163 8.867756378571812" fill="#ff750a" stroke="none" /><path d="M 89.00827224532344 82.1063720568725 l -3.9364456420041303 -6.4082094560974925 a28.520688314620585,28.520688314620585 0 0,0 0.4205279523709312,-0.2533633859841147 l 3.82555562341555 6.475019451540226" fill="#ff4b07" stroke="none" /><line stroke="#e1ed5e" stroke-width="0.3" x1="56.762969772571076" x2="54.21961505331055" y1="26.818313649435495" y2="22.513508569990535" /><path d="M 56.25429882871897 25.957352633546506 a86.0,86.0 0 0,1 42.265352541879196,-11.944610805530505" fill="none" id="id48" stroke="none" /><text fill="#e1ed5e" style="font-size:6.75px; font-family:Arial;" text-anchor="middle"><textPath startOffset="22.20632615414155" xlink:href="#id48">December</textPath></text><path d="M 89.94658935756843 81.56283822128135 l -5.026702496550902 -9.218575709146828 a31.499994099717533,31.499994099717533 0 0,0 0.4782823406201948,-0.25548186239291754 l 4.867275109402402 9.303736298041494" fill="#ff750a" stroke="none" /><path d="M 90.26544431104013 81.39251694778311 l -4.916966172780373 -9.398720152384312 a31.60719080846109,31.60719080846109 0 0,0 0.4842515314001514,-0.2480524428146795 l 4.754454153791457 9.481965120511498" fill="#ff770a" stroke="none" /><path d="M 90.58718382345135 81.22770947309562 l -6.387822869452559 -12.739446355972065 a35.25123764689197,35.25123764689197 0 0,0 0.5447637852314393,-0.2673132235299227 l 6.167587817210693 12.847514739636818" fill="#ffa80f" stroke="none" /><path d="M 90.91171255644093 81.06846463323043 l -9.55653190753534 -19.90692117901555 a43.0819567277739,43.0819567277739 0 0,0 0.6713026162464306,-0.3151855795130469 l 9.212451079989302 20.068471741168608" fill="#f2ff19" stroke="none" /><path d="M 91.23893434514133 80.91482961587045 l -5.803284953582824 -12.641918973105811 a34.91029228934653,34.91029228934653 0 0,0 0.5482875545989511,-0.2460006435499461 l 5.584815280517099 12.739939947172287" fill="#ffa30f" stroke="none" /><path d="M 91.56875222667455 80.76684994638697 l -7.34302576040663 -16.75072540795974 a39.28952785095513,39.28952785095513 0 0,0 0.6217403930296398,-0.2661967889882455 l 7.053601609586682 16.874641724910774" fill="#ffdd14" stroke="none" /><path d="M 92.57280143429618 80.3572730644239 l -3.634712850114618 -9.61273236098885 a31.276952901847444,31.276952901847444 0 0,0 0.5052235819183607,-0.1860781089777325 l 3.468706942423688 9.673873737772904" fill="#ff720a" stroke="none" /><path d="M 93.25333710446033 80.11325718540243 l -4.3459322791487836 -12.810249876606063 a34.5273659400503,34.5273659400503 0 0,0 0.5644684680924587,-0.1860963791377557 l 4.1247809888139155 12.883159980003054" fill="#ff9e0e" stroke="none" /><path d="M 93.59665428221793 80.00007090966166 l -3.577622662062885 -11.174189666902553 a32.73294074919062,32.73294074919062 0 0,0 0.5380899971816019,-0.16718718141221328 l 3.3847472921705544 11.234116983197291" fill="#ff860c" stroke="none" /><path d="M 93.94186890950719 79.89281104454417 l -9.441103975046834 -31.33541660600306 a53.72678991498277,53.72678991498277 0 0,0 0.8877962700389359,-0.2591720762010359 l 8.900317487284477 31.4932870111228" fill="#77ff27" stroke="none" /><path d="M 94.28887869178378 79.79150937346287 l -5.642901559999134 -19.967098775797314 a41.74915351377707,41.74915351377707 0 0,0 0.6932389501608051,-0.18948839233200443 l 5.2983647206146065 20.061273708955614" fill="#fffc17" stroke="none" /><path d="M 94.98787191387505 79.60689891045804 l -2.531619958798584 -10.300531202105942 a31.607075122829357,31.607075122829357 0 0,0 0.5294581120289107,-0.12530562901172032 l 2.3539381598071394 10.342582743258534" fill="#ff770a" stroke="none" /><path d="M 95.692805502759 79.44645832069477 l -2.1885001610170614 -10.443324373543717 a31.67017136347041,31.67017136347041 0 0,0 0.5345225023402806,-0.10722018544283607 l 2.0084112492096446 10.479448515063764" fill="#ff770b" stroke="none" /><path d="M 96.40284397218896 79.31037775812273 l -4.196235046806771 -24.135321705628012 a45.49739052230274,45.49739052230274 0 0,0 0.7727423998189932,-0.1275091170825101 l 3.780163440848892 24.20397708565015" fill="#d5ff1c" stroke="none" /><path d="M 97.11714578562143 79.19881850522333 l -1.8820128566297707 -13.579629108889153 a34.7094237343336,34.7094237343336 0 0,0 0.5925151043208755,-0.07692546583820942 l 1.6479830238010376 13.6100128978915" fill="#ffa10e" stroke="none" /></svg>