<?xml version="1.0" encoding="utf-8" ?>
<svg baseProfile="full" height="200mm" version="1.1" viewBox="0,0,200,200" width="200mm" xmlns="http://www.w3.org/2000/svg" xmlns:ev="http://www.w3.org/2001/xml-events" xmlns:xlink="http://www.w3.org/1999/xlink"><defs /><rect fill="#1a1a1a" height="200" width="200" x="0" y="0" /><text alignment-baseline="middle" fill="#e1ed5e" style="dominant-baseline: central; font-size:9.0px; font-family:Arial;" text-anchor="middle" x="100.0" y="100.0">2015</text><line stroke="#e1ed5e" stroke-width="0.3" x1="100.0" x2="100.0" y1="15.0" y2="10.0" /><path d="M 100.0 14.0 a86.0,86.0 0 0,1 42.46469731375804,11.215312516191453" fill="none" id="id1" stroke="none" /><text fill="#e1ed5e" style="font-size:6.75px; font-family:Arial;" text-anchor="middle"><textPath startOffset="22.20632615414155" xlink:href="#id1">January</textPath></text><line stroke="#e1ed5e" stroke-width="0.3" x1="143.23703022742887" x2="145.7803849466894" y1="26.81831364943548" y2="22.513508569990506" /><path d="M 143.74570117128098 25.957352633546492 a86.0,86.0 0 0,1 28.547481713284135,27.462654790039103" fill="none" id="id2" stroke="none" /><text fill="#e1ed5e" style="font-size:6.75px; font-family:Arial;" text-anchor="middle"><textPath startOffset="19.985693538727396" xlink:href="#id2">February</textPath></text><line stroke="#e1ed5e" stroke-width="0.3" x1="172.23445277983987" x2="176.4835382374775" y1="55.19839476539836" y2="52.563006222186495" /><path d="M 173.08426987136738 54.67131705675599 a86.0,86.0 0 0,1 12.851231095245387,41.99856678651699" fill="none" id="id3" stroke="none" /><text fill="#e1ed5e" style="font-size:6.75px; font-family:Arial;" text-anchor="middle"><textPath startOffset="22.20632615414155" xlink:href="#id3">March</textPath></text><line stroke="#e1ed5e" stroke-width="0.3" x1="184.98032266829074" x2="189.97916517819016" y1="98.17113171792111" y2="98.06355123074" /><path d="M 185.9800911702706 98.14961562048488 a86.0,86.0 0 0,1 -9.607161424134198,41.387399972396054" fill="none" id="id4" stroke="none" /><text fill="#e1ed5e" style="font-size:6.75px; font-family:Arial;" text-anchor="middle"><textPath startOffset="21.466115282336823" xlink:href="#id4">April</textPath></text><path d="M 120.99513854157772 99.54816195383933 l 7.768654865306498 -0.1671898391470616 a28.770453709955703,28.770453709955703 0 0,0 0.006393881080212261,0.495213135966611 l -7.770381753504426 0.03344044511998788" fill="#ff3a05" stroke="none" /><path d="M 120.99980553446 99.90962569577887 l 8.840120799907002 -0.038044150704697424 a29.84020266251579,29.84020266251579 0 0,0 -0.0022105944839931053,0.5136643062371729 l -8.839465908133505 -0.11412963373616011" fill="#ff4906" stroke="none" /><path d="M 120.89721153311464 102.0752229133903 l 12.092110801959466 1.200821715744986 a33.151589049991344,33.151589049991344 0 0,0 -0.061279447071599706,0.5673715733300363 l -12.069649053386815 -1.4087896109598137" fill="#ff790b" stroke="none" /><path d="M 120.76222939487914 103.15116336523771 l 14.63010536702156 2.2204673296547113 a35.79765042877473,35.79765042877473 0 0,0 -0.0977075485983447,0.6084249983910309 l -14.589716064061927 -2.4719715577389474" fill="#ff9e0e" stroke="none" /><path d="M 120.70491114924044 103.5080841355445 l 14.265973280515842 2.417119019866709 a35.46929362465885,35.46929362465885 0 0,0 -0.10717394610478746,0.6010884059882803 l -14.222252892071866 -2.662326176588208" fill="#ff9a0e" stroke="none" /><path d="M 120.32669344350535 105.2749913415812 l 11.592674855184432 3.0084213970572127 a32.97667356156529,32.97667356156529 0 0,0 -0.1473145325076046,0.5482121778120299 l -11.539172246335049 -3.207524508044791" fill="#ff770a" stroke="none" /><path d="M 120.13307415673323 105.97154293290107 l 23.535744360241456 6.980787276242312 a45.549188450675594,45.549188450675594 0 0,0 -0.22942307962639727,0.7497678985496146 l -23.412094508108925 -7.384882147343984" fill="#e0ff1b" stroke="none" /><path d="M 120.02730092923936 106.31721596034902 l 6.683430883721994 2.108156081426679 a28.008036132979427,28.008036132979427 0 0,0 -0.14898641285098813,0.45853303009428503 l -6.646152219854759 -2.222888011498759" fill="#ff2e04" stroke="none" /><path d="M 119.9155931802556 106.66101706037122 l 7.230251726871775 2.418247333512427 a28.623939939425824,28.623939939425824 0 0,0 -0.16030656149555905,0.4659259055441974 l -7.187554334432985 -2.542345942145925" fill="#ff3705" stroke="none" /><path d="M 119.54520255179757 107.68017299344265 l 7.207435836987337 2.832119745011797 a28.74390299489702,28.74390299489702 0 0,0 -0.1849155309833188,0.458945183088277 l -7.157617691746625 -2.9557642959428874" fill="#ff3905" stroke="none" /><path d="M 119.26925614724726 108.34839909993367 l 13.020193456239095 5.640994675684815 a35.18965322229531,35.18965322229531 0 0,0 -0.24558844785439374,0.5537371164549019 l -12.921163923653427 -5.864280128632404" fill="#ff960d" stroke="none" /><path d="M 118.97047184881838 109.00673069616215 l 7.493772552323505 3.5578657091375185 a29.29548283526726,29.29548283526726 0 0,0 -0.22019983625935588,0.4536768837313628 l -7.431419459449435 -3.686331548834157" fill="#ff4106" stroke="none" /><path d="M 118.81262510543309 109.33194174019688 l 6.970365391671471 3.4576271720939764 a28.780821251938253,28.780821251938253 0 0,0 -0.22397143303025555,0.44191688554405134 l -6.909815288854946 -3.577098269340722" fill="#ff3a05" stroke="none" /><line stroke="#e1ed5e" stroke-width="0.3" x1="174.80103733775053" x2="179.2010983576182" y1="140.37084112569926" y2="142.7455964860345" /><path d="M 175.68104954172406 140.8457921977663 a86.0,86.0 0 0,1 -30.038265399797805,32.042727171017184" fill="none" id="id5" stroke="none" /><text fill="#e1ed5e" style="font-size:6.75px; font-family:Arial;" text-anchor="middle"><textPath startOffset="22.206326154141568" xlink:href="#id5">May</textPath></text><path d="M 118.30583269289576 110.29060199501025 l 16.2696298038735 9.145952971742924 a39.66411824106411,39.66411824106411 0 0,0 -0.3396910709538748,0.5922800148536619 l -16.109786736767244 -9.424652832454901" fill="#ffd213" stroke="none" /><path d="M 117.94076556474637 110.91462005526583 l 7.762274346681703 4.722333333714975 a30.085886591184618,30.085886591184618 0 0,0 -0.27297263059810306,0.4401187969019162 l -7.6798370764156365 -4.855248461982165" fill="#ff4d07" stroke="none" /><path d="M 117.55443506779139 111.5257021239791 l 7.6826349288681755 5.044181790838605 a30.190573942322267,30.190573942322267 0 0,0 -0.2889624575368943,0.43195966707656697 l -7.59466936592056 -5.175678372120979" fill="#ff4f07" stroke="none" /><path d="M 117.35343817320211 111.8261652097733 l 7.435623180859317 5.067290256650986 a29.99810661377617,29.99810661377617 0 0,0 -0.29446583258177816,0.4241999941336282 l -7.347296441115404 -5.194531512971633" fill="#ff4c07" stroke="none" /><path d="M 116.93607887273984 112.41649034213515 l 14.1275917672129 10.357480503800291 a38.51759833788938,38.51759833788938 0 0,0 -0.39661888926344896,0.531335816700951 l -13.947211611254358 -10.599129200010557" fill="#ffc312" stroke="none" /><path d="M 116.71984013943494 112.70617746262583 l 14.366325706108071 10.91763332576107 a39.04400265267522,39.04400265267522 0 0,0 -0.41125081977578143,0.5315971217285896 l -14.176268069114222 -11.163308441602911" fill="#ffca12" stroke="none" /><path d="M 116.0416608686014 113.55231037782055 l 5.868380075220484 4.957722822209232 a28.682245784215645,28.682245784215645 0 0,0 -0.32186600292296996,0.3744028769967251 l -5.782171562726736 -5.058002798367485" fill="#ff3805" stroke="none" /><path d="M 115.80600337817218 113.82643327865902 l 3.9105777049819195 3.4208104620307047 a26.195629144178824,26.195629144178824 0 0,0 -0.2998041734617835,0.3368331670865353 l -3.8511146818717976 -3.4876177988581065" fill="#ff1302" stroke="none" /><path d="M 115.07121518719521 114.62390073753431 l 12.937669807972746 12.553679095998538 a39.02715060417037,39.02715060417037 0 0,0 -0.471967179680885,0.47810026122719407 l -12.719662003236326 -12.774519851206398" fill="#ffca12" stroke="none" /><path d="M 114.55890576462653 115.13401014063108 l 4.452519721925992 4.6284026912730285 a27.42238611006247,27.42238611006247 0 0,0 -0.3429941984101269,0.324322423215203 l -4.372189689125058 -4.704359751234152" fill="#ff2603" stroke="none" /><path d="M 114.29624159901734 115.38237550388516 l 5.322457710532584 5.72682285339866 a28.81825147169218,28.81825147169218 0 0,0 -0.3662668714938978,0.3345761030059716 l -5.223091289571822 -5.817591722991215" fill="#ff3a05" stroke="none" /><path d="M 112.63410532772338 116.77436683061366 l 6.08254966810393 8.075832577896385 a31.11021672819944,31.11021672819944 0 0,0 -0.4305284073690741,0.3184946232910711 l -5.942636290316291 -8.179337149927225" fill="#ff5c08" stroke="none" /><path d="M 112.34349029814194 116.9893568818739 l 5.230330209932809 7.198931939045714 a29.898369242054876,29.898369242054876 0 0,0 -0.4189653814200099,0.2989206754223677 l -5.1056375006639145 -7.287896876312301" fill="#ff4a06" stroke="none" /><path d="M 111.7513745106137 117.40417183066458 l 4.775261780155157 7.072319623816095 a29.53351216852855,29.53351216852855 0 0,0 -0.4237711643547048,0.2808524201989895 l -4.6528159170604875 -7.153470065106403" fill="#ff4506" stroke="none" /><path d="M 111.45004920935366 117.60387380957326 l 5.392339649776151 8.29045054718819 a30.88983807622354,30.88983807622354 0 0,0 -0.44822360922137855,0.2860775143711616 l -5.248834238507842 -8.382042490383162" fill="#ff5908" stroke="none" /><line stroke="#e1ed5e" stroke-width="0.3" x1="143.8653032363475" x2="146.44561519142675" y1="172.8068346515853" y2="177.08958963109032" /><path d="M 144.38136562736335 173.6633856474863 a86.0,86.0 0 0,1 -40.68145358897372,12.25698825130547" fill="none" id="id6" stroke="none" /><text fill="#e1ed5e" style="font-size:6.75px; font-family:Arial;" text-anchor="middle"><textPath startOffset="21.466115282336833" xlink:href="#id6">June</textPath></text><path d="M 110.8373102113329 117.98757091392108 l 3.8374357189049086 6.369306200096863 a28.43599182135911,28.43599182135911 0 0,0 -0.42143782257052903,0.24899289401689406 l -3.7272300253059973 -6.434417666407507" fill="#ff3505" stroke="none" /><path d="M 110.5260780823613 118.17145234162733 l 4.380404696442514 7.562010708606633 a29.739104717400807,29.739104717400807 0 0,0 -0.44516782088450135,0.2527779068646702 l -4.2495881086368135 -7.636291781265932" fill="#ff4806" stroke="none" /><path d="M 109.89434966115114 118.52300852407294 l 3.0279974643718264 5.66865178250686 a27.426692903473793,27.426692903473793 0 0,0 -0.41833425002831703,0.21885270791713887 l -2.929972311817014 -5.719933909368716" fill="#ff2603" stroke="none" /><path d="M 109.2508944713604 118.85261126421891 l 11.917330573530748 24.286602912348084 a48.052945292904525,48.052945292904525 0 0,0 -0.7457069588683538,0.3579846567940718 l -11.49751094666216 -24.488141845641714" fill="#c2ff1e" stroke="none" /><path d="M 107.59598834532513 119.57807347666477 l 2.6083689279684257 6.722869520652138 a28.211141591738762,28.211141591738762 0 0,0 -0.45423938469120273,0.17175446757111462 l -2.492259322516948 -6.766772238329883" fill="#ff3104" stroke="none" /><path d="M 105.88484417918355 120.15858648285463 l 2.075065747830375 7.108156318431437 a28.40484868887107,28.40484868887107 0 0,0 -0.4705315015982381,0.13297690236379525 l -1.9524030781275308 -7.142822014133752" fill="#ff3405" stroke="none" /><path d="M 105.53697534728816 120.25689768951611 l 2.1297063869114146 7.791482114780016 a29.077304181432574,29.077304181432574 0 0,0 -0.4839426527946616,0.12781365308939507 l -1.9952732913052558 -7.826987117172995" fill="#ff3e05" stroke="none" /><path d="M 105.18746579009965 120.34920634021253 l 2.1669895694185586 8.500589626893602 a29.77244936142808,29.77244936142808 0 0,0 -0.4976914549275433,0.1223204508482513 l -2.020344829747804 -8.536631336055883" fill="#ff4806" stroke="none" /><path d="M 104.83641907484287 120.43548508189849 l 1.9536959230335624 8.255017456487769 a29.483056110069988,29.483056110069988 0 0,0 -0.49486586729139687,0.1126298602505821 l -1.8113099063493034 -8.287424050316035" fill="#ff4406" stroke="none" /><path d="M 104.13013068566511 120.58985236759428 l 3.5674144070858675 17.784554912721426 a39.13882132321413,39.13882132321413 0 0,0 -0.6616928141539312,0.12681500267477167 l -3.260753978360232 -17.843327113744667" fill="#ffcb13" stroke="none" /><path d="M 103.7750983002368 120.6578951692458 l 1.582006922545041 8.656975411979753 a29.800339151794233,29.800339151794233 0 0,0 -0.5054010209234884,0.08787044575405771 l -1.432756930149503 -8.682924436254817" fill="#ff4906" stroke="none" /><path d="M 103.41894727170886 120.7198165907248 l 1.2007465444204102 7.276873901568632 a28.375275319828287,28.375275319828287 0 0,0 -0.4826014621179537,0.07537242318247221 l -1.0753092186939393 -7.2964646320982105" fill="#ff3404" stroke="none" /><path d="M 103.06178313531738 120.77559828337769 l 1.278794853552193 8.677207689138706 a29.77093208033898,29.77093208033898 0 0,0 -0.507624742461341,0.07035216381795424 l -1.1292415199040213 -8.697934418449263" fill="#ff4806" stroke="none" /><path d="M 102.70371172650421 120.8252237178851 l 1.100796132084026 8.478835037666043 a29.549993901773526,29.549993901773526 0 0,0 -0.5049848790640696,0.061146636246222526 l -0.9546838299685761 -8.496527202637617" fill="#ff4506" stroke="none" /><path d="M 101.26447882468166 120.96189622390904 l 0.39291332265050644 6.5135201425494 a27.52536018366136,27.52536018366136 0 0,0 -0.4731896879770613,0.02445850190319595 l -0.28073556625996554 -6.519318451214797" fill="#ff2703" stroke="none" /><path d="M 100.90346689309514 120.98055641714683 l 0.6290371145054566 14.607672699713607 a35.621210257478126,35.621210257478126 0 0,0 -0.6128199197497602,0.021106757120966477 l -0.3774968430810441 -14.616336255260666" fill="#ff9c0e" stroke="none" /><line stroke="#e1ed5e" stroke-width="0.3" x1="102.19456741930631" x2="102.32365962044197" y1="184.97166512339345" y2="189.96999836594603" /><path d="M 102.22038585953345 185.97133177190398 a86.0,86.0 0 0,1 -42.740103519485714,-10.115201625700543" fill="none" id="id7" stroke="none" /><text fill="#e1ed5e" style="font-size:6.75px; font-family:Arial;" text-anchor="middle"><textPath startOffset="22.20632615414155" xlink:href="#id7">July</textPath></text><path d="M 100.54218724476979 120.99299961872073 l 0.19473788150060425 7.540074598819517 a28.542588932074626,28.542588932074626 0 0,0 -0.4912591521369122,0.008457471816259065 l -0.0649190394710241 -7.542309547914936" fill="#ff3605" stroke="none" /><path d="M 100.18074693466247 120.99922214144158 l 0.06146096289208927 7.14054938308128 a28.14081388513817,28.14081388513817 0 0,0 -0.4844157951090845,0.0 l 0.06146096289208435 -7.14054938308128" fill="#ff3004" stroke="none" /><path d="M 99.81925306533755 120.99922214144158 l -0.05410682530932829 6.286143918073396 a27.286376771024482,27.286376771024482 0 0,0 -0.4696379277059329,-0.008085242829862376 l 0.16230444290792911 -6.284281197964374" fill="#ff2403" stroke="none" /><path d="M 99.09653310690486 120.98055641714683 l -0.890570295370889 20.68106808148034 a41.700234115628305,41.700234115628305 0 0,0 -0.7168705745567953,-0.03705402031709739 l 1.2464289383411733 -20.662674254401043" fill="#ffed16" stroke="none" /><path d="M 98.37488393609728 120.93702456842531 l -0.5192518243976945 6.68973031901861 a27.709852025070088,27.709852025070088 0 0,0 -0.47523146006524003,-0.04100497004412599 l 0.6343276022044761 -6.67980109669582" fill="#ff2a04" stroke="none" /><path d="M 97.65516085044442 120.86867818915974 l -1.0618298729390572 9.45010915320198 a30.509576525087624,30.509576525087624 0 0,0 -0.5213833499604302,-0.06313226270053329 l 1.2243406459508768 -9.430431361776098" fill="#ff5307" stroke="none" /><path d="M 97.2962882734958 120.8252237178851 l -1.2115930145654892 9.332243277273067 a30.410564394293907,30.410564394293907 0 0,0 -0.5185311254984959,-0.07186368912771207 l 1.372052731250816 -9.31000502265275" fill="#ff5207" stroke="none" /><path d="M 96.22490169976321 120.6578951692458 l -1.6135170782058323 8.829403635204176 a29.97562287058779,29.97562287058779 0 0,0 -0.5067769948782875,-0.09712501720783465 l 1.765261687655815 -8.800321419647874" fill="#ff4b07" stroke="none" /><path d="M 95.86986931433489 120.58985236759428 l -1.986969525978234 9.905596774648401 a31.10291519112632,31.10291519112632 0 0,0 -0.5240227128122918,-0.10981405444722024 l 2.1571837002199126 -9.869926739474641" fill="#ff5c08" stroke="none" /><path d="M 95.51606077576429 120.51570834832081 l -2.1884270027585906 10.012876599110868 a31.249239510101468,31.249239510101468 0 0,0 -0.5245108225765343,-0.11937695555778799 l 2.3604579747279875 -9.973722909975393" fill="#ff5e08" stroke="none" /><path d="M 94.81253420990036 120.34920634021253 l -2.246277435992966 8.811617250493022 a30.093424046454523,30.093424046454523 0 0,0 -0.5008542529886858,-0.1322801604077794 l 2.397622131793141 -8.771645740781661" fill="#ff4d07" stroke="none" /><path d="M 94.46302465271185 120.25689768951611 l -5.475339463882312 20.031404219553938 a41.76623454678075,41.76623454678075 0 0,0 -0.6918652964027305,-0.1955280436190643 l 5.819335928389656 -19.934187382596352" fill="#ffee16" stroke="none" /><path d="M 93.76903079525671 120.05430185196036 l -3.001448462790649 9.660126938211361 a31.115668308972232,31.115668308972232 0 0,0 -0.5101171634290197,-0.1633234067608948 l 3.167286971310609 -9.60703068479076" fill="#ff5c08" stroke="none" /><path d="M 93.42475214034765 119.94407469862007 l -2.8152197995133834 8.539138778184059 a29.991237600723213,29.991237600723213 0 0,0 -0.48890039892374726,-0.16586155972269984 l 2.9617899313743563 -8.489414231563236" fill="#ff4c07" stroke="none" /><path d="M 93.08242187328487 119.8279376855182 l -2.9652097359994816 8.499216458840115 a30.001619253927863,30.001619253927863 0 0,0 -0.4861411515022012,-0.174312920854985 l 3.1110704481314095 -8.446915996945172" fill="#ff4c07" stroke="none" /><path d="M 92.7421414339146 119.70592522655815 l -3.1365613559693486 8.516126759215847 a30.075375040117763,30.075375040117763 0 0,0 -0.4842561868031769,-0.18310425369420677 l 3.2826877635328087 -8.460874255415007" fill="#ff4d07" stroke="none" /><path d="M 92.40401165467489 119.57807347666478 l -2.4804619458641737 6.393199149928549 a27.857527749526604,27.857527749526604 0 0,0 -0.4455598306973845,-0.1772974519414189 l 2.5901428526034165 -6.349554853581063" fill="#ff2c04" stroke="none" /><path d="M 92.06813273071674 119.44442032107085 l -4.543542451807744 11.138177957377968 a33.02924711782078,33.02924711782078 0 0,0 -0.5245807897668769,-0.21927481266731708 l 4.734594701072083 -11.058318101690677" fill="#ff770b" stroke="none" /><path d="M 91.40352486487194 119.15986991738527 l -4.376891603303117 9.755239495674342 a31.692140932714548,31.692140932714548 0 0,0 -0.4958039323355293,-0.2275992676880039 l 4.544163531406066 -9.678453157652264" fill="#ff6409" stroke="none" /><path d="M 91.07499286063937 119.00905698771935 l -4.549153517126721 9.689081151720021 a31.70388206619461,31.70388206619461 0 0,0 -0.4919949305041493,-0.23618746512468403 l 4.715261115631112 -9.609339410095775" fill="#ff6409" stroke="none" /><path d="M 90.7491055286396 118.85261126421891 l -4.864183805539655 9.912832395553506 a32.041944131193986,32.041944131193986 0 0,0 -0.49305852553536395,-0.247229780430518 l 5.03409623875778 -9.827634774213687" fill="#ff6909" stroke="none" /><path d="M 90.42595943632237 118.69057910512821 l -1.7987457251141632 3.5115371656983387 a24.94542512914606,24.94542512914606 0 0,0 -0.38048793377188816,-0.1990533039791461 l 1.858924561412547 -3.480054442774476" fill="#ff0000" stroke="none" /><line stroke="#e1ed5e" stroke-width="0.3" x1="58.666819895761336" x2="56.23545636021788" y1="174.27360380694188" y2="178.64263932499728" /><path d="M 58.180547188652646 175.14741091055294 a86.0,86.0 0 0,1 -31.652253787137756,-30.449443065178592" fill="none" id="id8" stroke="none" /><text fill="#e1ed5e" style="font-size:6.75px; font-family:Arial;" text-anchor="middle"><textPath startOffset="22.20632615414155" xlink:href="#id8">August</textPath></text><path d="M 89.7882731507175 118.34994917583269 l -11.836012662491093 21.26870743869184 a45.340277563317045,45.340277563317045 0 0,0 -0.6787034361982588,-0.3853855241449866 l 12.20036486561056 -21.06181874875222" fill="#e3ff1b" stroke="none" /><path d="M 89.4739219176387 118.17145234162733 l -6.126514429999414 10.576367010955389 a33.222672302382016,33.222672302382016 0 0,0 -0.49237919194270274,-0.29090630548470997 l 6.3076614929704995 -10.46934213317693" fill="#ff7a0b" stroke="none" /><path d="M 89.1626897886671 117.98757091392108 l -3.580402042301839 5.942686365930937 a27.93792476381379,27.93792476381379 0 0,0 -0.40978390180861374,-0.25172274181879184 l 3.682165144042761 -5.880175157283768" fill="#ff2d04" stroke="none" /><path d="M 88.8546689885994 117.79835938074946 l -4.530402042644384 7.234753603260922 a29.536170240095572,29.536170240095572 0 0,0 -0.42858136047605766,-0.273540901881064 l 4.6542652051673645 -7.155698272556053" fill="#ff4506" stroke="none" /><path d="M 88.24862548938628 117.40417183066458 l -4.759436994400005 7.048882596069477 a29.50523288081135,29.50523288081135 0 0,0 -0.418472880054666,-0.2878294627410417 l 4.880066759077561 -6.965912343963334" fill="#ff4406" stroke="none" /><path d="M 87.95078237400918 117.19931262002967 l -4.543500755237259 6.485490784904021 a28.918648232742537,28.918648232742537 0 0,0 -0.4052365662117719,-0.28912553029394394 l 4.654464649297918 -6.406320992765858" fill="#ff3c05" stroke="none" /><path d="M 87.65650970185807 116.9893568818739 l -12.018843131309966 16.54251839091419 a41.447677250210376,41.447677250210376 0 0,0 -0.5735865690548423,-0.42432563126858736 l 12.301814670783374 -16.333182810905836" fill="#ffea16" stroke="none" /><path d="M 87.36589467227662 116.77436683061367 l -11.46999736248266 15.228774678826083 a40.065057506176416,40.065057506176416 0 0,0 -0.5473101899894477,-0.4196541151801411 l 11.730436280965595 -15.029081221818576" fill="#ffd814" stroke="none" /><path d="M 86.79598089348748 116.32954008644616 l -13.389305724772164 16.558685866677617 a42.2946844405529,42.2946844405529 0 0,0 -0.5621766586254515,-0.46263311725667866 l 13.672352511942304 -16.325757630563757" fill="#fff517" stroke="none" /><path d="M 86.51685102203217 116.09983520530335 l -8.062223874080786 9.626866540825416 a33.556910973271336,33.556910973271336 0 0,0 -0.4396507003893881,-0.37467986489009175 l 8.226740051047232 -9.486662285712372" fill="#ff7f0b" stroke="none" /><path d="M 86.24171649860922 115.8653595955263 l -16.736284437213314 19.299440287195594 a46.54548124742098,46.54548124742098 0 0,0 -0.6007861252264989,-0.5301239033073808 l 17.066012915346402 -19.008493242115925" fill="#d4ff1c" stroke="none" /><path d="M 85.97065885151581 115.62618273729859 l -7.6774745717106345 8.55133675550229 a32.49212670071418,32.49212670071418 0 0,0 -0.41296015500955513,-0.3772293104104557 l 7.823534276187044 -8.417914678505257" fill="#ff700a" stroke="none" /><path d="M 85.70375840098266 115.38237550388516 l -8.503310448699349 9.14933574968363 a33.49066184184803,33.49066184184803 0 0,0 -0.4188950832565866,-0.39609144733189433 l 8.659541366346753 -9.001609665605805" fill="#ff7e0b" stroke="none" /><path d="M 85.44109423537348 115.13401014063109 l -23.30119367365199 24.221634994208273 a54.61001678681066,54.61001678681066 0 0,0 -0.6718333541729148,-0.6575303392353247 l 23.7146769802007 -23.81695455205038" fill="#76ff27" stroke="none" /><path d="M 85.18274418774928 114.88116024355367 l -6.373460482474174 6.400948188208963 a30.032891908452992,30.032891908452992 0 0,0 -0.3631968788974026,-0.36791652079527193 l 6.48269798642711 -6.290291173433026" fill="#ff4c07" stroke="none" /><path d="M 84.9287848128048 114.62390073753433 l -10.979628183771275 10.653752248917835 a36.29884544778417,36.29884544778417 0 0,0 -0.43125353008237627,-0.45216760216247853 l 11.161388265232608 -10.463177530172857" fill="#ffa50f" stroke="none" /><path d="M 84.43433777217949 114.09645910891817 l -12.824644887954442 11.614159398007136 a38.30202921695757,38.30202921695757 0 0,0 -0.4383597029907876,-0.4925017733294594 l 13.022663440593567 -11.391683454936812" fill="#ffc011" stroke="none" /><path d="M 84.19399662182784 113.82643327865904 l -13.697125502907976 11.981674769025432 a39.198125653844485,39.198125653844485 0 0,0 -0.43987294862448895,-0.5116716148410803 l 13.901340961103244 -11.744126055022821" fill="#ffcc13" stroke="none" /><path d="M 83.95833913139862 113.55231037782056 l -25.58681837575547 21.616247036357745 a54.49548343479674,54.49548343479674 0 0,0 -0.5992011958490521,-0.7217764407396294 l 25.95511557149806 -21.172609338504355" fill="#77ff27" stroke="none" /><path d="M 83.72743513129214 113.27417163493432 l -8.898865546088734 7.259154876201475 a32.48412545751938,32.48412545751938 0 0,0 -0.3497180432622775,-0.4363270305770524 l 9.022501501405872 -7.104900012046163" fill="#ff700a" stroke="none" /><path d="M 83.50135304334701 112.99209946851258 l -7.129397543161731 5.614147770704044 a30.07452282600808,30.07452282600808 0 0,0 -0.3167752106920276,-0.4094746615475714 l 7.2249795710718265 -5.490595115043219" fill="#ff4d07" stroke="none" /><path d="M 83.28015986056508 112.70617746262583 l -16.90610585166837 12.847729365939704 a42.23394840646094,42.23394840646094 0 0,0 -0.4348864526608688,-0.5826014714676248 l 17.12475357102433 -12.554815014962772" fill="#fff417" stroke="none" /><path d="M 83.06392112726016 112.41649034213515 l -7.315351109179062 5.363165056030189 a30.070716689919855,30.070716689919855 0 0,0 -0.30245442965043606,-0.42008274937247964 l 7.406585331205106 -5.23644870120657" fill="#ff4d07" stroke="none" /><line stroke="#e1ed5e" stroke-width="0.3" x1="26.63291911575756" x2="22.317208475507996" y1="142.92168965132927" y2="145.44649492493687" /><path d="M 25.769776987707644 143.4266507060508 a86.0,86.0 0 0,1 -11.730757126820373,-40.83630448921669" fill="none" id="id9" stroke="none" /><text fill="#e1ed5e" style="font-size:6.75px; font-family:Arial;" text-anchor="middle"><textPath startOffset="21.46611528233685" xlink:href="#id9">September</textPath></text><path d="M 81.87401531095188 110.60418214915194 l -4.574351136905727 2.6761168290756125 a26.299649951324373,26.299649951324373 0 0,0 -0.22523521645890085,-0.39271658502899365 l 4.619738349517005 -2.596980398188312" fill="#ff1502" stroke="none" /><path d="M 81.69416730710424 110.29060199501025 l -7.28822335942523 4.097066060900257 a29.360870172670566,29.360870172670566 0 0,0 -0.24386801891167006,-0.4426912905791198 l 7.357667787788417 -3.971004251923315" fill="#ff4206" stroke="none" /><path d="M 81.35079622478065 109.6543875284942 l -8.005548482719403 4.144341407916905 a30.014675380430823,30.014675380430823 0 0,0 -0.23357324650492364,-0.4608621744538586 l 8.075700399010593 -4.005925021760362" fill="#ff4c07" stroke="none" /><path d="M 81.18737489456691 109.33194174019688 l -6.750653458535275 3.3486397794168723 a28.535563050597304,28.535563050597304 0 0,0 -0.2144878903905781,-0.44190858341919964 l 6.807294605540572 -3.2319422400323883" fill="#ff3605" stroke="none" /><path d="M 81.02952815118164 109.00673069616217 l -13.342392121674218 6.334651749318542 a35.769808404771496,35.769808404771496 0 0,0 -0.259289180475349,-0.5584858272955106 l 13.449455918989393 -6.1040458547442045" fill="#ff9e0e" stroke="none" /><path d="M 80.73074385275274 108.34839909993369 l -10.244793396446921 4.4385534821032655 a32.16496971556007,32.16496971556007 0 0,0 -0.21573354401980044,-0.5099303714041178 l 10.319677921659029 -4.261548585032989" fill="#ff6b09" stroke="none" /><path d="M 80.58989483394504 108.01547362559985 l -13.021282169223475 5.377185899097197 a35.0878641931269,35.0878641931269 0 0,0 -0.2257275582753931,-0.5602372878572021 l 13.111912341756257 -5.152249243397189" fill="#ff940d" stroke="none" /><path d="M 80.32549172779594 107.34259656027581 l -25.29820827690003 9.441381431501357 a48.00257442090498,48.00257442090498 0 0,0 -0.2822453976320454,-0.7766181147085847 l 25.456977935537303 -9.004515519786654" fill="#c2ff1e" stroke="none" /><path d="M 80.20201598880116 107.00284435728193 l -32.522333276397646 11.503637842188185 a55.496896169732516,55.496896169732516 0 0,0 -0.31080684970248423,-0.9033501906968391 l 32.71553095704336 -10.94211494840205" fill="#6cff28" stroke="none" /><path d="M 80.0844068197444 106.66101706037122 l -10.99070768103567 3.6759784509713542 a32.58915324352829,32.58915324352829 0 0,0 -0.17335528333909725,-0.5335327016150934 l 11.052355215391016 -3.4862468493784573" fill="#ff710a" stroke="none" /><path d="M 79.86692584326677 105.97154293290107 l -8.341786162845477 2.4742040793533024 a29.7009816809903,29.7009816809903 0 0,0 -0.14116079349875096,-0.4913992407254771 l 8.383139593230332 -2.330247363123229" fill="#ff4706" stroke="none" /><path d="M 79.76711848015287 105.62410040840567 l -20.320176772842895 5.6483657246209535 a42.09060500409262,42.09060500409262 0 0,0 -0.18802860111297356,-0.6997243730978937 l 20.414393450297645 -5.297750418347522" fill="#fff216" stroke="none" /><path d="M 79.67330655649465 105.27499134158121 l -8.088831598599153 2.0991371156705374 a29.35676811099134,29.35676811099134 0 0,0 -0.12272343280993653,-0.49021910960909904 l 8.123766345704148 -1.9595901666640465" fill="#ff4206" stroke="none" /><path d="M 79.50377843672027 104.57218783832718 l -16.194406581841516 3.61256188580024 a37.5924503288914,37.5924503288914 0 0,0 -0.1354508995637753,-0.6327815088355905 l 16.254191520129734 -3.3332665575484857" fill="#ffb710" stroke="none" /><path d="M 79.4281124754447 104.21870165774334 l -33.84037213689818 6.9396857173255455 a55.544609191869675,55.544609191869675 0 0,0 -0.18401153258660888,-0.9382708402948031 l 33.954813602460455 -6.356151149962788" fill="#6cff28" stroke="none" /><path d="M 79.23777060512086 103.15116336523772 l -13.9057130238911 2.1105235191747953 a35.06496229030866,35.06496229030866 0 0,0 -0.08543486055480058,-0.5975312157344502 l 13.9399819354625 -1.8708468314599442" fill="#ff940d" stroke="none" /><path d="M 79.1416061653843 102.43462659150553 l -17.48028986198011 2.0403286495901685 a38.59896231762495,38.59896231762495 0 0,0 -0.07134870864846786,-0.6606004299231002 l 17.51282087212963 -1.7391318977822863" fill="#ffc412" stroke="none" /><path d="M 79.10278846688536 102.07522291339032 l -11.202647813045209 1.1124925158284165 a32.25775100190535,32.25775100190535 0 0,0 -0.05011534045860664,-0.5530186059167649 l 11.220137749780891 -0.9194925213630855" fill="#ff6c0a" stroke="none" /><path d="M 79.07016306316243 101.71520430193888 l -20.27119285787641 1.6612282886001235 a41.33914794941187,41.33914794941187 0 0,0 -0.05201535955750697,-0.7097082547665633 l 20.296784776098253 -1.3120468973367996" fill="#ffe815" stroke="none" /><path d="M 79.0235259727143 100.99374915477108 l -14.996539136610537 0.7104529613562754 a36.01335836800652,36.01335836800652 0 0,0 -0.02400524790559281,-0.6194687835220396 l 15.006546517367331 -0.452206930820239" fill="#ffa10e" stroke="none" /><path d="M 79.0095281055655 100.63252640178507 l -21.117670297260112 0.6363593955575225 a42.12725614139461,42.12725614139461 0 0,0 -0.015603007500971523,-0.7250104477294216 l 21.12549536744609 -0.2727591320379721" fill="#fff316" stroke="none" /><line stroke="#e1ed5e" stroke-width="0.3" x1="15.007084014347285" x2="10.007500721073583" y1="101.09737516637583" y2="101.16192664675087" /><path d="M 14.007167355692545 101.11028546245083 a86.0,86.0 0 0,1 10.666146001902534,-42.60595125391555" fill="none" id="id10" stroke="none" /><text fill="#e1ed5e" style="font-size:6.75px; font-family:Arial;" text-anchor="middle"><textPath startOffset="22.20632615414155" xlink:href="#id10">October</textPath></text><path d="M 79.00019446554 99.90962569577889 l -11.390959174344202 -0.049021882993309146 a32.391064658608016,32.391064658608016 0 0,0 0.007198517533873284,-0.5575331160431264 l 11.388427649692613 0.24509125709690752" fill="#ff6e0a" stroke="none" /><path d="M 79.01574976396665 99.18683210126434 l -11.319403044073974 -0.4386420808347897 a32.32789884088264,32.32789884088264 0 0,0 0.02633398583618849,-0.555868819888458 l 11.310175450004287 0.6334220073462569" fill="#ff6d0a" stroke="none" /><path d="M 79.12142395522702 97.74499172005258 l -11.686176096054615 -1.262175341891873 a32.7541396257522,32.7541396257522 0 0,0 0.06536735378030643,-0.5600275680194332 l 11.662718389270719 1.4631466482361681" fill="#ff730a" stroke="none" /><path d="M 79.16333360222342 97.38593545837743 l -8.124618073355462 -1.0192741782366208 a29.188304994827327,29.188304994827327 0 0,0 0.06683288023197666,-0.4979825859937675 l 8.10586919406565 1.1589751062950475" fill="#ff4006" stroke="none" /><path d="M 79.21141760316559 97.0276538004421 l -34.80648613864396 -4.976622494947859 a56.16046428556989,56.16046428556989 0 0,0 0.14506543853355786,-0.9557999897207091 l 34.71566480667111 5.57502159706066" fill="#65ff29" stroke="none" /><path d="M 79.32604984820605 96.31383870115002 l -8.651696779432335 -1.5425958563105653 a29.788143099605648,29.788143099605648 0 0,0 0.09434937020665336,-0.5040181083319942 l 8.62386168531582 1.6912920421051323" fill="#ff4906" stroke="none" /><path d="M 79.3925641242962 95.95851677861259 l -30.010976138313303 -5.88568404395478 a51.58267426893329,51.58267426893329 0 0,0 0.17837952971416324,-0.8698419370868068 l 29.905217312684144 6.401401637204989" fill="#98ff23" stroke="none" /><path d="M 79.71946130924805 94.55025226153421 l -11.69303667841916 -3.1421305501648678 a33.107852458513655,33.107852458513655 0 0,0 0.15263229124386474,-0.5490995609225562 l 11.637217616608934 3.3429414145063663" fill="#ff790b" stroke="none" /><path d="M 79.81627453868168 94.20196356495316 l -10.887361556841691 -3.1275355537844 a32.32767055972144,32.32767055972144 0 0,0 0.15824256636451656,-0.533515267187548 l 10.831913093365468 3.3144802077184874" fill="#ff6d0a" stroke="none" /><path d="M 79.91906864156998 93.8553929516997 l -6.295512969700966 -1.9263774511161378 a27.583647441642192,27.583647441642192 0 0,0 0.14283668556903817,-0.45283132689802874 l 6.261420800363724 2.034458944440581" fill="#ff2803" stroke="none" /><path d="M 80.02781315780177 93.51064311812611 l -7.353443686362268 -2.3892786888386093 a28.731868254273312,28.731868254273312 0 0,0 0.15687970328704187,-0.4690503448027217 l 7.311226689303453 2.515502136563653" fill="#ff3905" stroke="none" /><path d="M 80.14247586403 93.16781622104843 l -10.670130511682467 -3.6711672664751434 a32.284022077024474,32.284022077024474 0 0,0 0.18532092383111398,-0.5239272072545539 l 10.605356507041543 3.854292100156308" fill="#ff6d0a" stroke="none" /><path d="M 80.2630227832202 92.82701384747504 l -18.313895023191343 -6.655797083682311 a40.48585091135685,40.48585091135685 0 0,0 0.24367741837155737,-0.6529343324455293 l 18.196613016318157 6.970054553157182" fill="#ffdd14" stroke="none" /><path d="M 80.52162464483688 92.15188598940014 l -19.768027642051784 -7.96481902985756 a42.312279536344874,42.312279536344874 0 0,0 0.27800842640116363,-0.6732194559609904 l 19.62799752876442 8.303913056271861" fill="#fff517" stroke="none" /><path d="M 80.65960295795068 91.81776055985345 l -20.390109377843036 -8.62633568367586 a43.13978834062923,43.13978834062923 0 0,0 0.2952184933318488,-0.6814049854733222 l 20.238600174668505 8.976039813735781" fill="#feff18" stroke="none" /><path d="M 80.95270993114464 91.15688171328213 l -13.018973943329572 -6.044341538159808 a35.353666680225594,35.353666680225594 0 0,0 0.26101411125804114,-0.5497622852068702 l 12.91300163822978 6.26754623900721" fill="#ff980e" stroke="none" /><path d="M 81.43458229118936 90.18545643968196 l -8.061452138924878 -4.261658661164911 a30.118593374663572,30.118593374663572 0 0,0 0.24624374025533,-0.45625225275033704 l 7.986900299451076 4.399791897247721" fill="#ff4d07" stroke="none" /><line stroke="#e1ed5e" stroke-width="0.3" x1="26.266209847984243" x2="21.928928074336255" y1="57.711370442889674" y2="55.22380399835377" /><path d="M 25.398753493254645 57.213857153982495 a86.0,86.0 0 0,1 29.58750427330803,-30.492523968695096" fill="none" id="id11" stroke="none" /><text fill="#e1ed5e" style="font-size:6.75px; font-family:Arial;" text-anchor="middle"><textPath startOffset="21.46611528233685" xlink:href="#id11">November</textPath></text><path d="M 81.78341655067845 89.55222093294921 l -27.349585982931824 -15.685841020623597 a52.52848651556333,52.52848651556333 0 0,0 0.4565984299110512,-0.7804747252736542 l 27.07552787855045 16.15429515825114" fill="#8dff24" stroke="none" /><path d="M 82.34701348167596 88.62581576622439 l -4.819002516108462 -3.104982966159861 a26.732687368974744,26.732687368974744 0 0,0 0.2525645295204484,-0.3846731059160265 l 4.764841351230094 3.1874741360535546" fill="#ff1b02" stroke="none" /><path d="M 83.6137871275137 86.86637796730984 l -14.687745816559545 -11.772293181349948 a39.82330374614193,39.82330374614193 0 0,0 0.43331833126158464,-0.5311970379904818 l 14.482928993221568 12.023374388948511" fill="#ffd413" stroke="none" /><path d="M 84.80347519578584 85.50635884689758 l -14.86304597897027 -14.17558669739536 a41.539167314873225,41.539167314873225 0 0,0 0.49794727948423667,-0.5131784423101021 l 14.616834435782915 14.429329335255586" fill="#ffeb16" stroke="none" /><path d="M 85.05521093208273 85.24692304244772 l -4.543951684268202 -4.485661763759542 a27.385033936309046,27.385033936309046 0 0,0 0.33405072884217046,-0.3326162088515502 l 4.466065155258718 4.563213823261202" fill="#ff2503" stroke="none" /><path d="M 85.83668400450813 84.49514656593479 l -4.531589850951388 -4.960818249388965 a27.71900470908573,27.71900470908573 0 0,0 0.355052747691409,-0.31876986253205875 l 4.445526115664007 5.038087120690302" fill="#ff2a04" stroke="none" /><path d="M 86.37877921826538 84.01681056812374 l -27.64772466112505 -32.44193950748401 a63.624829828922884,63.624829828922884 0 0,0 0.8396734309211977,-0.703202350681364 l 27.08519369324474 32.91304301555918" fill="#32ff4d" stroke="none" /><path d="M 86.93701828274178 83.55741782278169 l -4.526767041835902 -5.69791343917862 a28.277213574674313,28.277213574674313 0 0,0 0.3837183475993401,-0.29949825674085906 l 4.428016139077137 5.774990085142701" fill="#ff3204" stroke="none" /><path d="M 88.09926311788651 82.69761687909137 l -5.904137087431898 -8.583976177025617 a31.418420309957366,31.418420309957366 0 0,0 0.4482291063821649,-0.30264629348085936 l 5.755503286643193 8.68433438280514" fill="#ff6008" stroke="none" /><path d="M 88.70189139769569 82.29822771554957 l -33.89432580691294 -53.105316853351276 a84.0,84.0 0 0,0 1.225523390511031,-0.7674226347082791 l 32.97518326402967 53.68088382938249" fill="#4dd2ff" stroke="none" /><path d="M 89.00827224532344 82.1063720568725 l -5.455713193962919 -8.881451964241894 a31.423291008501934,31.423291008501934 0 0,0 0.4633258524054315,-0.2791486418859295 l 5.3020252753398385 8.974047215586443" fill="#ff6008" stroke="none" /><line stroke="#e1ed5e" stroke-width="0.3" x1="56.762969772571076" x2="54.21961505331055" y1="26.818313649435495" y2="22.513508569990535" /><path d="M 56.25429882871897 25.957352633546506 a86.0,86.0 0 0,1 42.265352541879196,-11.944610805530505" fill="none" id="id12" stroke="none" /><text fill="#e1ed5e" style="font-size:6.75px; font-family:Arial;" text-anchor="middle"><textPath startOffset="22.20632615414155" xlink:href="#id12">December</textPath></text><path d="M 89.63071344664047 81.73862282372117 l -7.347823148633093 -12.940270215438154 a35.880897092317525,35.880897092317525 0 0,0 0.5397100501879994,-0.3003480585979507 l 7.123989009373049 13.06483367159629" fill="#ff9f0e" stroke="none" /><path d="M 94.98787191387505 79.60689891045804 l -2.7287682230415515 -11.102678396521103 a32.433094226483824,32.433094226483824 0 0,0 0.5432949670185335,-0.12858036553690927 l 2.5372495690604837 11.148004674198884" fill="#ff6f0a" stroke="none" /><path d="M 96.04723909329186 79.375362276772 l -1.2322773460499366 -6.4297523773039575 a27.54677195960221,27.54677195960221 0 0,0 0.4664650717476457,-0.08524351029218033 l 1.1214171531993975 6.450011368946875" fill="#ff2703" stroke="none" /><path d="M 96.40284397218896 79.31037775812273 l -2.5498127148947693 -14.665658495445058 a35.88566706553854,35.88566706553854 0 0,0 0.6094937790714894,-0.10057169589101393 l 2.296989729684394 14.707376454275698" fill="#ff9f0e" stroke="none" /><path d="M 97.11714578562143 79.19881850522333 l -2.498350393210845 -18.026801253953764 a39.19910212446773,39.19910212446773 0 0,0 0.6691571793970488,-0.08687580682537997 l 2.187678485305939 18.06713538394328" fill="#ffcc13" stroke="none" /><path d="M 97.47563105711357 79.15227682838746 l -1.3379061586487597 -11.049215806470874 a32.1299219596238,32.1299219596238 0 0,0 0.549625608644341,-0.061756841188775925 l 1.1475138464947008 11.07060860113025" fill="#ff6b09" stroke="none" /></svg>