<?xml version="1.0" encoding="utf-8" ?>
<svg baseProfile="full" height="200mm" version="1.1" viewBox="0,0,200,200" width="200mm" xmlns="http://www.w3.org/2000/svg" xmlns:ev="http://www.w3.org/2001/xml-events" xmlns:xlink="http://www.w3.org/1999/xlink"><defs /><rect fill="#1a1a1a" height="200" width="200" x="0" y="0" /><text alignment-baseline="middle" fill="#e1ed5e" style="dominant-baseline: central; font-size:9.0px; font-family:Arial;" text-anchor="middle" x="100.0" y="100.0">2020</text><line stroke="#e1ed5e" stroke-width="0.3" x1="100.0" x2="100.0" y1="15.0" y2="10.0" /><path d="M 100.0 14.0 a86.0,86.0 0 0,1 42.35913384403234,11.155469271406648" fill="none" id="id61" stroke="none" /><text fill="#e1ed5e" style="font-size:6.75px; font-family:Arial;" text-anchor="middle"><textPath startOffset="22.145653131862478" xlink:href="#id61">January</textPath></text><path d="M 101.44090949804482 79.04949213459386 l 0.20345042069997465 -2.9581244657479786 a23.965112549051007,23.965112549051007 0 0,0 0.41018116637286045,0.03175061644426004 l -0.2542005818480686 2.954196082308665" fill="#ff1b02" stroke="none" /><path d="M 101.80034050326958 79.07731436759882 l 0.924634945817883 -10.74565964657578 a31.785367449608508,31.785367449608508 0 0,0 0.5432277264586806,0.05144423048737474 l -1.1089622356615765 10.72820366058322" fill="#ff870c" stroke="none" /><path d="M 102.87502721639298 79.19773525538626 l 0.8140839859235345 -5.89030618665872 a26.946296301793843,26.946296301793843 0 0,0 0.457669875605068,0.06726171098620606 l -0.9150789671362846 5.875463402373632" fill="#ff4506" stroke="none" /><path d="M 103.94208987418118 79.37332000966035 l 0.45818896513379775 -2.397438277807612 a23.440829249183054,23.440829249183054 0 0,0 0.3945912153169024,0.07892929423488725 l -0.49927666598165704 2.389219586909866" fill="#ff1302" stroke="none" /><path d="M 104.64783097203109 79.52079915486377 l 1.1837178392047212 -5.21567921013502 a26.348317263017048,26.348317263017048 0 0,0 0.44022749193585714,0.10389248941954707 l -1.2730774848804634 5.1945905770692455" fill="#ff3d05" stroke="none" /><path d="M 106.04205211174951 79.88797359093562 l 1.7855089536763862 -5.943378601473601 a27.205786930286347,27.205786930286347 0 0,0 0.4461222652163182,0.13820981814896585 l -1.8872718517643345 5.911852195517989" fill="#ff4906" stroke="none" /><path d="M 106.38641147887787 79.99465700312896 l 3.671897392199132 -11.502166282772428 a33.07404901660523,33.07404901660523 0 0,0 0.5393861791481589,0.17730695065684723 l -3.8688063089950333 11.43743841071356" fill="#ff990e" stroke="none" /><path d="M 107.74402155503746 80.48000691201159 l 1.460054558916325 -3.680291266698927 a24.959331145882185,24.959331145882185 0 0,0 0.3969074898970413,0.16141882080324488 l -1.523016510003806 3.6546851893163885" fill="#ff2904" stroke="none" /><path d="M 108.4095320186766 80.7573450057729 l 3.479823347741634 -7.9625168169567475 a29.689697612219128,29.689697612219128 0 0,0 0.4652610265452606,0.20810533929235053 l -3.615997777142526 7.901607726754545" fill="#ff6b09" stroke="none" /><path d="M 108.73861861582097 80.90454125486305 l 10.3511284921157 -22.6190838365404 a45.87506411378135,45.87506411378135 0 0,0 0.7132726754770434,0.33384762737197365 l -10.737889881464248 22.438059977597895" fill="#c7ff1e" stroke="none" /><path d="M 109.3889696526874 81.21577127319529 l 4.815860498909698 -9.634947014874069 a31.77147697970847,31.77147697970847 0 0,0 0.48575982781609867,0.24803242925870528 l -4.980547548439376 9.55085663394253" fill="#ff870c" stroke="none" /><path d="M 110.34350942703115 81.72400993836675 l 3.0148019427064323 -5.326866160019545 a27.120827872151597,27.120827872151597 0 0,0 0.40320603521654286,0.2327911129711528 l -3.1058004457833728 5.274328149772221" fill="#ff4806" stroke="none" /><line stroke="#e1ed5e" stroke-width="0.3" x1="143.13028292997686" x2="145.6673583964461" y1="26.7553504044142" y2="22.446841604673864" /><path d="M 143.63769802327073 25.89364864446614 a86.0,86.0 0 0,1 29.32050498858742,28.57503671076993" fill="none" id="id62" stroke="none" /><text fill="#e1ed5e" style="font-size:6.75px; font-family:Arial;" text-anchor="middle"><textPath startOffset="20.669276256404974" xlink:href="#id62">February</textPath></text><path d="M 112.7482090630111 83.31218511350987 l 10.374972274037033 -13.581171747798683 a38.090590268631516,38.090590268631516 0 0,0 0.5162001520679412,0.4014003604567377 l -10.6065823707402 13.401070335721155" fill="#ffd914" stroke="none" /><path d="M 113.03279911837588 83.53348406188908 l 11.736499791767553 -14.82868408569927 a39.91124795130217,39.91124795130217 0 0,0 0.5335739103089672,0.42980937242958694 l -11.989324472431779 14.625026419476276" fill="#fff016" stroke="none" /><path d="M 113.31354834802062 83.75963576809568 l 11.013863944882113 -13.435123183528859 a38.37261448236761,38.37261448236761 0 0,0 0.5058345025728768,0.42198513267379606 l -11.242872781616883 13.244075866943193" fill="#ffdd14" stroke="none" /><path d="M 113.59037401385872 83.9905735841838 l 12.087796312551912 -14.23939366185466 a39.67819990124879,39.67819990124879 0 0,0 0.5154774828158059,0.44525717237938306 l -12.33045327513058 14.029792357010557" fill="#ffed16" stroke="none" /><path d="M 114.13192950727249 84.46653392183569 l 13.267660419977348 -14.583482953567174 a40.71569902582249,40.71569902582249 0 0,0 0.5129600858273158,0.47478819739234657 l -13.51605027711863 14.353577010042452" fill="#fffa17" stroke="none" /><path d="M 114.65682725009322 84.96080404539774 l 35.02906881334491 -35.942910495024805 a71.18892783058249,71.18892783058249 0 0,0 0.8678543200911474,0.8604368063710071 l -35.64091505356602 35.336293678425136" fill="#3dffad" stroke="none" /><path d="M 114.91283532996326 85.21462403516908 l 17.585715553097128 -17.43541119512625 a45.76390427734641,45.76390427734641 0 0,0 0.5483239212881513,0.5626286479426117 l -17.88242627553609 17.130959855115897" fill="#c8ff1d" stroke="none" /><path d="M 115.41159269507618 85.73525988315684 l 24.954129450447102 -23.097169675812697 a55.002762000504504,55.002762000504504 0 0,0 0.6354188819699716,0.6984366602894712 l -25.34694603325895 22.665395439965554" fill="#63ff29" stroke="none" /><path d="M 115.8921839302757 86.27271002978787 l 12.289428698775195 -10.61531580910963 a37.23930378647472,37.23930378647472 0 0,0 0.41372057259974926,0.48736179423692516 l -12.469843834882056 10.402787232423153" fill="#ffcf13" stroke="none" /><path d="M 116.1254893667686 86.54754324733833 l 19.227018253877475 -16.039862459985276 a46.03907783186479,46.03907783186479 0 0,0 0.5010656037044328,0.611218564391871 l -19.499530676820537 15.70744161389491" fill="#c5ff1e" stroke="none" /><path d="M 116.35404254752997 86.82634096563983 l 49.062127642589914 -39.52097710308052 a84.0,84.0 0 0,0 0.8949342774337627,1.130720224341287 l -49.73332835066524 38.672936934824556" fill="#4dd2ff" stroke="none" /><path d="M 117.01052211995028 87.68569379921539 l 9.291108327190738 -6.726045919043243 a32.47015203267469,32.47015203267469 0 0,0 0.32297735752678336,0.45430810092402446 l -9.405200783247482 6.565560591409715" fill="#ff910d" stroke="none" /><path d="M 117.21940702142032 87.97951657250589 l 16.258098026963776 -11.349415090344557 a40.82763158693706,40.82763158693706 0 0,0 0.39624239709240916,0.5781294992053327 l -16.450530160871512 11.068650856069176" fill="#fffb17" stroke="none" /><path d="M 117.42321728460499 88.27688183743584 l 7.89527983377213 -5.312296627305649 a30.516088435384145,30.516088435384145 0 0,0 0.2887048091354638,0.4371358778927763 l -7.985309081828318 5.175980871073814" fill="#ff760a" stroke="none" /><path d="M 117.62189284568427 88.57770195909679 l 12.441221654953397 -8.06424956616508 a35.82619699495036,35.82619699495036 0 0,0 0.3300826330880286,0.5189447244824741 l -12.577821979667316 7.849491167003934" fill="#ffbd11" stroke="none" /><path d="M 117.81537515405839 88.88188828441811 l 27.651793871745898 -17.25676449380181 a53.594748428543866,53.594748428543866 0 0,0 0.4803927900574019,0.7846855196390041 l -27.9439546262587 16.77954185803825" fill="#72ff27" stroke="none" /><line stroke="#e1ed5e" stroke-width="0.3" x1="172.87174338648825" x2="177.1583165268699" y1="56.24261187166439" y2="53.66864786411523" /><path d="M 173.72905801456457 55.72781907015455 a86.0,86.0 0 0,1 12.242430191666344,42.057860355516425" fill="none" id="id63" stroke="none" /><text fill="#e1ed5e" style="font-size:6.75px; font-family:Arial;" text-anchor="middle"><textPath startOffset="22.145653131862474" xlink:href="#id63">March</textPath></text><path d="M 118.00360718960297 89.18935116829356 l 52.12257073231205 -31.298106121656158 a81.79748207407378,81.79748207407378 0 0,0 0.7125195198351024,1.2100139163257038 l -52.652163962276916 30.3987410370369" fill="#4ae6ff" stroke="none" /><path d="M 118.18653347947321 89.5 l 15.12447009412429 -8.732116880193106 a38.46423376038621,38.46423376038621 0 0,0 0.3252364074220459,0.5746615683641007 l -15.272139866567711 8.471198541729887" fill="#ffde14" stroke="none" /><path d="M 118.36410011445183 89.81374322990088 l 10.743258488041977 -5.959104384353822 a33.28529722898518,33.28529722898518 0 0,0 0.2728675574954949,0.5020455720782017 l -10.843971395152813 5.773803978801016" fill="#ff9b0e" stroke="none" /><path d="M 118.53625476483649 90.13048839642627 l 4.247919811582303 -2.261778034632665 a25.812531828838146,25.812531828838146 0 0,0 0.204892417866416,0.3929082273368015 l -4.286120298423664 2.188523564191365" fill="#ff3505" stroke="none" /><path d="M 118.70294669586156 90.45014215332178 l 24.934998718045904 -12.731988014334275 a48.997458453690086,48.997458453690086 0 0,0 0.3760673621890514,0.7523866419169141 l -25.14988599344669 12.302069516253612" fill="#a4ff21" stroke="none" /><path d="M 118.8641267826498 90.77261029715802 l 4.478628222069195 -2.190721490336259 a25.98571673881858,25.98571673881858 0 0,0 0.19256745339707065,0.4023919146829225 l -4.515574933426177 2.113517073588233" fill="#ff3805" stroke="none" /><path d="M 119.0197475246899 91.09779779509293 l 24.750561035213856 -11.584512293570013 a48.32748061270415,48.32748061270415 0 0,0 0.34523204125342577,0.7543943146024126 l -24.945777541322332 11.157928996752915" fill="#abff21" stroke="none" /><path d="M 119.16976305983485 91.42560881287824 l 21.43620965766912 -9.588143922296137 a44.4828360374596,44.4828360374596 0 0,0 0.30580068360017415,0.699731808910222 l -21.597644223286267 9.218750043610065" fill="#d7ff1c" stroke="none" /><path d="M 119.31412917781788 91.75594674310238 l 15.721441326731723 -6.710548447694009 a38.09371749675057,38.09371749675057 0 0,0 0.2515530524917942,0.6036357513069798 l -15.83432022376 6.439680186945751" fill="#ffd914" stroke="none" /><path d="M 119.4528033332814 92.08871423366111 l 5.6624392071487435 -2.302864730330798 a27.112806535533153,27.112806535533153 0 0,0 0.17163868696289994,0.4326416138353599 l -5.701136569077768 2.2053220992818727" fill="#ff4806" stroke="none" /><path d="M 119.58574465831526 92.42381321644754 l 5.585954352922119 -2.160767143677046 a26.989307195504654,26.989307195504654 0 0,0 0.16343865430353924,0.4335404482203704 l -5.622223691040099 2.064558415262518" fill="#ff4606" stroke="none" /><path d="M 120.99303781780057 99.45929381324524 l 18.958125891138394 -0.4882940738534871 a39.96441321018956,39.96441321018956 0 0,0 0.011777262131925384,0.6859664758618768 l -18.963714584868985 0.16278068202254395" fill="#fff116" stroke="none" /><line stroke="#e1ed5e" stroke-width="0.3" x1="184.99686870605535" x2="189.99668451229388" y1="99.2704041080226" y2="99.22748670261217" /><path d="M 185.99683186730306 99.26182062694052 a86.0,86.0 0 0,1 -10.086455211305974,41.156179273409016" fill="none" id="id64" stroke="none" /><text fill="#e1ed5e" style="font-size:6.75px; font-family:Arial;" text-anchor="middle"><textPath startOffset="21.40746469413373" xlink:href="#id64">April</textPath></text><path d="M 120.99922638620191 99.81974689727618 l 4.836508940491139 -0.041515612377411144 a25.836687118009785,25.836687118009785 0 0,0 0.0,0.44353743020247544 l -4.836508940491139 -0.041515612377410555" fill="#ff3605" stroke="none" /><path d="M 120.99922638620191 100.18025310272382 l 16.87629849302064 0.14486272541255243 a37.87692021770396,37.87692021770396 0 0,0 -0.011162091028525823,0.6501358431459446 l -16.87132497039345 -0.4345454845275682" fill="#ffd714" stroke="none" /><path d="M 120.99303781780057 100.54070618675476 l 5.061280089684042 0.1303606215137824 a26.0629586249419,26.0629586249419 0 0,0 -0.015358917655805398,0.4471581294995879 l -5.058296485031391 -0.21722501557748097" fill="#ff3905" stroke="none" /><path d="M 120.98066250479742 100.90099992219065 l 20.439417569374132 0.8777565358299436 a41.458256208959554,41.458256208959554 0 0,0 -0.036638063768593646,0.7107686491733205 l -20.421337916148964 -1.2284969783799948" fill="#fbff18" stroke="none" /><path d="M 120.96210409425399 101.26102812881392 l 6.7026726002328925 0.4032161394256626 a27.71478988807588,27.71478988807588 0 0,0 -0.032645434236832326,0.47465744911558083 l -6.694763204830994 -0.5182170126955868" fill="#ff5007" stroke="none" /><path d="M 120.93736805541906 101.62068470465957 l 13.160204720779449 1.018683076339942 a34.19957209544488,34.19957209544488 0 0,0 -0.050332613274173085,0.5849412612115518 l -13.140778484807536 -1.244445384927151" fill="#ffa70f" stroke="none" /><path d="M 120.9064616781168 101.97986365728391 l 7.213032595930987 0.6830816861963787 a28.245304674061664,28.245304674061664 0 0,0 -0.04985646989970861,0.4823161201361568 l -7.200243733549613 -0.8068023286154669" fill="#ff5708" stroke="none" /><path d="M 120.77682067341334 103.0534771498775 l 3.666010288903094 0.5387772664710752 a24.705389639593843,24.705389639593843 0 0,0 -0.06526753111177958,0.4190643695053156 l -3.6562212656530466 -0.6016298179078413" fill="#ff2503" stroke="none" /><path d="M 120.65975698304385 103.76489593502545 l 44.732460791980564 8.151744472969124 a66.46915423073824,66.46915423073824 0 0,0 -0.21420067217443134,1.1207884294052104 l -44.585933827523974 -8.91843546740765" fill="#37ff79" stroke="none" /><path d="M 120.592083275326 104.11899336999214 l 12.184544582435231 2.4372501645601345 a33.425913046774475,33.425913046774475 0 0,0 -0.11737634980261388,0.5616883245224343 l -12.140910521808252 -2.646054940367978" fill="#ff9d0e" stroke="none" /><path d="M 120.35273937422433 105.17358676015961 l 3.6900240383524654 0.9379896808224412 a24.80737469195618,24.80737469195618 0 0,0 -0.10845609287333768,0.4118254501402214 l -3.6733784646743977 -1.0011956353354658" fill="#ff2703" stroke="none" /><path d="M 120.26092885502905 105.52220625578681 l 36.39012529086887 9.918290467725623 a58.717551676736804,58.717551676736804 0 0,0 -0.2734043211733388,0.9702154837925375 l -36.214502477620954 -10.541513875421169" fill="#3dff2e" stroke="none" /><path d="M 119.71291397450082 107.23885506374661 l 9.444903367653998 3.468299342145879 a31.061575420929437,31.061575420929437 0 0,0 -0.18809901456789405,0.49895498364861757 l -9.383973669271663 -3.6299226059886553" fill="#ff7e0b" stroke="none" /><path d="M 119.58574465831526 107.57618678355244 l 4.350712901666034 1.6829492143225278 a25.664870931838532,25.664870931838532 0 0,0 -0.16247247373819101,0.40953676869544087 l -4.321181752961718 -1.7573870002315328" fill="#ff3304" stroke="none" /><path d="M 119.31412917781788 108.2440532568976 l 41.740065487590144 17.816351938936567 a66.38342718791037,66.38342718791037 0 0,0 -0.4563579848346685,1.0442363780209634 l -41.42807362073851 -18.530250386733375" fill="#37ff78" stroke="none" /><path d="M 119.16976305983485 108.57439118712176 l 7.632607894494662 3.4139684283544214 a29.361332651013413,29.361332651013413 0 0,0 -0.20974552524811868,0.4583318257077045 l -7.572877904391486 -3.544489236276815" fill="#ff6709" stroke="none" /><line stroke="#e1ed5e" stroke-width="0.3" x1="174.33088141563837" x2="178.70328620479359" y1="141.23008692659167" y2="143.65538615756765" /><path d="M 175.20536237346943 141.71514677278685 a86.0,86.0 0 0,1 -30.301960400862466,31.631185727798858" fill="none" id="id65" stroke="none" /><text fill="#e1ed5e" style="font-size:6.75px; font-family:Arial;" text-anchor="middle"><textPath startOffset="22.145653131862474" xlink:href="#id65">May</textPath></text><path d="M 118.18653347947321 110.5 l 24.482495273043146 14.134975236325193 a49.2699504726504,49.2699504726504 0 0,0 -0.42917948771676906,0.7288405977411203 l -24.236242075196614 -14.553167002359864" fill="#a0ff22" stroke="none" /><path d="M 117.81537515405839 111.11811171558189 l 9.250077684997521 5.77273260822608 a31.903594771659748,31.903594771659748 0 0,0 -0.29394196008823414,0.4621255837205673 l -9.149618033283398 -5.930671866625318" fill="#ff890c" stroke="none" /><path d="M 117.62189284568427 111.42229804090321 l 27.355633858975246 17.731591365995815 a53.59969380526403,53.59969380526403 0 0,0 -0.5070928209732419,0.7678031624518382 l -27.047216599081278 -18.19857440678671" fill="#72ff27" stroke="none" /><path d="M 117.423217284605 111.72311816256416 l 14.079718488468554 9.473462956913245 a37.97012000872506,37.97012000872506 0 0,0 -0.36850953105391077,0.5376664188484167 l -13.915019220599323 -9.713764110831706" fill="#ffd814" stroke="none" /><path d="M 117.01052211995028 112.31430620078461 l 11.776819433182482 8.525509067206903 a35.538836982950585,35.538836982950585 0 0,0 -0.36198502176155667,0.49110220325591175 l -11.628732391837097 -8.726417579731692" fill="#ffb911" stroke="none" /><path d="M 116.79662413953412 112.60449989151573 l 16.616525373582434 12.469350419988475 a41.774831296243434,41.774831296243434 0 0,0 -0.435349486930495,0.569886453298297 l -16.400023909297637 -12.75275778652765" fill="#f7ff18" stroke="none" /><path d="M 116.57777611688842 112.89097897827486 l 19.01629502372369 14.787186029479711 a45.089008844278716,45.089008844278716 0 0,0 -0.4803773755983177,0.6069411213777174 l -18.75965121748381 -15.111447094772112" fill="#d0ff1d" stroke="none" /><path d="M 116.35404254752997 113.17365903436017 l 7.323241646929149 5.89908508568982 a30.403673381584753,30.403673381584753 0 0,0 -0.3308979170567175,0.40364165556048076 l -7.220896910633804 -6.023929022948794" fill="#ff750a" stroke="none" /><path d="M 116.1254893667686 113.45245675266167 l 18.7401803999578 15.6337250072572 a45.40507568161799,45.40507568161799 0 0,0 -0.5044405238520183,0.5942296687000219 l -18.46904531259867 -15.953121458406777" fill="#ccff1d" stroke="none" /><path d="M 115.89218393027572 113.72728997021213 l 5.774537560165499 4.987908010632858 a28.630498696435087,28.630498696435087 0 0,0 -0.32446390109998524,0.3691803584349713 l -5.688062595106929 -5.086300646879123" fill="#ff5d08" stroke="none" /><path d="M 115.6541949942343 113.99807769240083 l 25.022715851406847 22.375466812050888 a54.56780933628881,54.56780933628881 0 0,0 -0.6303940954764571,0.6929135397200709 l -24.634924055088508 -22.801717927328628" fill="#68ff28" stroke="none" /><path d="M 115.41159269507618 114.26474011684316 l 14.535762874887313 13.454085110656338 a40.80658497873212,40.80658497873212 0 0,0 -0.4802433058399622,0.5100017484842306 l -14.30266373531109 -13.701628319085065" fill="#fffb17" stroke="none" /><path d="M 115.16444852881244 114.52719865689866 l 21.22255038448435 20.330723194824223 a50.389367983108116,50.389367983108116 0 0,0 -0.6037442888675684,0.6194948273470001 l -20.870419294465975 -20.69204071423896" fill="#94ff23" stroke="none" /><path d="M 114.65682725009322 115.03919595460226 l 13.7836229261271 14.143211393110693 a40.74889084176306,40.74889084176306 0 0,0 -0.505145593170568,0.4839180514017973 l -13.53880484709122 -14.37774157481807" fill="#fffa17" stroke="none" /><path d="M 114.39649973595853 115.28858382429668 l 4.205869378095175 4.466487529634882 a27.13505078039152,27.13505078039152 0 0,0 -0.3418631709702522,0.316423447329267 l -4.128576435810955 -4.538028723096528" fill="#ff4806" stroke="none" /><path d="M 114.13192950727249 115.5334660781643 l 9.838918902254255 10.814695398482295 a35.620600593925346,35.620600593925346 0 0,0 -0.4558333878639856,0.4076090262361306 l -9.65182048756689 -10.981999954601811" fill="#ffba11" stroke="none" /><path d="M 113.86319453409587 115.77377054828091 l 16.32893931466571 18.579335478043078 a45.73511604880207,45.73511604880207 0 0,0 -0.5941656263590644,0.5132261166336793 l -16.00759420854379 -18.856905727141474" fill="#c9ff1d" stroke="none" /><path d="M 113.59037401385872 116.0094264158162 l 12.930905948529828 15.232574693067615 a40.98098246907814,40.98098246907814 0 0,0 -0.5402184647001078,0.4506694567883257 l -12.667513149667824 -15.452306333767812" fill="#fffd17" stroke="none" /><path d="M 113.31354834802062 116.24036423190432 l 12.871358071363682 15.700963993516119 a41.30251533497632,41.30251533497632 0 0,0 -0.5521737791754748,0.4447921101728099 l -12.599933521832956 -15.919604397482331" fill="#fdff18" stroke="none" /><path d="M 113.03279911837588 116.46651593811092 l 14.334090413089452 18.110654979148823 a44.09679570296259,44.09679570296259 0 0,0 -0.5975956919292879,0.4646940245694451 l -14.021084776524933 -18.354050055339062" fill="#dcff1b" stroke="none" /><path d="M 112.7482090630111 116.68781488649013 l 5.6602712783566265 7.4094768005178535 a30.324109469649166,30.324109469649166 0 0,0 -0.41637458711981257,0.31245525259024687 l -5.532243702326048 -7.505551080372115" fill="#ff740a" stroke="none" /><path d="M 112.45986205192187 116.90419585922612 l 16.51155317913084 22.401093023096774 a48.82876851419589,48.82876851419589 0 0,0 -0.6789965545808997,0.4915411427954093 l -16.12457561417597 -22.68123493726526" fill="#a5ff21" stroke="none" /><path d="M 112.16784306229584 117.11559508785304 l 5.496630508498377 7.731699172100205 a30.486417608075776,30.486417608075776 0 0,0 -0.42913974749876027,0.2995728724264975 l -5.363095669825858 -7.824916860331824" fill="#ff760a" stroke="none" /><path d="M 111.5731344415666 117.5232005979908 l 5.094103305550685 7.713121673368313 a30.24349146350049,30.24349146350049 0 0,0 -0.43567098563911316,0.28239666926375556 l -4.9609466876545625 -7.799432184335964" fill="#ff730a" stroke="none" /><path d="M 111.27062007382361 117.71928675628689 l 2.244670693938535 3.528995160763759 a25.18238608558805,25.18238608558805 0 0,0 -0.3667465232209325,0.22887695494544097 l -2.1837600419278873 -3.5670079125507472" fill="#ff2c04" stroke="none" /><line stroke="#e1ed5e" stroke-width="0.3" x1="143.1302829299769" x2="145.66735839644613" y1="173.24464959558577" y2="177.55315839532614" /><path d="M 143.63769802327073 174.10635135553383 a86.0,86.0 0 0,1 -40.68552437913181,11.842963189579606" fill="none" id="id66" stroke="none" /><text fill="#e1ed5e" style="font-size:6.75px; font-family:Arial;" text-anchor="middle"><textPath startOffset="21.407464694133747" xlink:href="#id66">June</textPath></text><path d="M 108.4095320186766 119.2426549942271 l 3.8533908236724845 8.817312308600865 a30.622557725852708,30.622557725852708 0 0,0 -0.4834936214505469,0.20637467668935391 l -3.7014621270515065 -8.882161634949624" fill="#ff780b" stroke="none" /><path d="M 108.07796709384702 119.3841803445677 l 3.650082969246641 8.758870360143598 a30.488989180528474,30.488989180528474 0 0,0 -0.4848410437928762,0.19718063165389893 l -3.499187464263324 -8.82023824837679" fill="#ff760a" stroke="none" /><path d="M 106.72888874123015 119.89276391827305 l 15.956687951396171 47.17311261066361 a70.79877954083395,70.79877954083395 0 0,0 -1.1546177235726864,0.3795457793604123 l -15.14454749017575 -47.44007931142604" fill="#3dffa9" stroke="none" /><path d="M 106.38641147887787 120.00534299687104 l 1.9379988640210661 6.070753838914866 a27.372589094680947,27.372589094680947 0 0,0 -0.4488574979671147,0.1390572002470095 l -1.833500733182327 -6.10312762696852" fill="#ff4b07" stroke="none" /><path d="M 106.0420521117495 120.11202640906438 l 2.68145635363314 8.925696104830132 a30.319777847793333,30.319777847793333 0 0,0 -0.4997565489917913,0.14547184788152379 l -2.527839792259742 -8.970411647014174" fill="#ff740a" stroke="none" /><path d="M 105.69591212413111 120.21278271476187 l 1.0347267791133614 3.671880306361685 a24.81488721873414,24.81488721873414 0 0,0 -0.4110037765896975,0.1120209069621353 l -0.9715416015889687 -3.6891017074679624" fill="#ff2703" stroke="none" /><path d="M 104.9986988182912 120.39639698878246 l 2.2426211886192693 9.150659745923726 a30.421460798693214,30.421460798693214 0 0,0 -0.5082815443106754,0.1199530604784279 l -2.0852074905687146 -9.18780895004838" fill="#ff750a" stroke="none" /><path d="M 104.29559338865022 120.5559693870025 l 8.453545574064114 40.45327578984278 a62.32710920088482,62.32710920088482 0 0,0 -1.0491834356765954,0.20986607123115633 l -7.757865652856559 -40.59243125773679" fill="#32ff49" stroke="none" /><line stroke="#e1ed5e" stroke-width="0.3" x1="101.45913802915013" x2="101.54496967792366" y1="184.9874750549273" y2="189.98673829345242" /><path d="M 101.47630435890484 185.9873277026323 a86.0,86.0 0 0,1 -42.54439059252881,-10.42667462771756" fill="none" id="id67" stroke="none" /><text fill="#e1ed5e" style="font-size:6.75px; font-family:Arial;" text-anchor="middle"><textPath startOffset="22.145653131862474" xlink:href="#id67">July</textPath></text><path d="M 100.0 121.0 l 7.722208920516952e-16 6.3056621108171385 a27.30566211081714,27.30566211081714 0 0,0 -0.4687379999649025,-0.004023551977788681 l 0.10824507511604957 -6.304732957033785" fill="#ff4a06" stroke="none" /><path d="M 99.27912038922189 120.98762331915562 l -0.21943173775427285 6.388515623688504 a27.392283016391403,27.392283016391403 0 0,0 -0.46980927146834933,-0.02017563158173198 l 0.32906676982346095 -6.383807423680944" fill="#ff4b07" stroke="none" /><path d="M 98.91894614982273 120.97215588758144 l -0.3136538040348869 6.084800004989516 a27.092878614374815,27.092878614374815 0 0,0 -0.46426311363680184,-0.02792891604937718 l 0.41806126980413505 -6.078519111115447" fill="#ff4706" stroke="none" /><path d="M 98.55909050195518 120.95050786540614 l -0.4032065236534774 5.862534362253528 a26.876383637010104,26.876383637010104 0 0,0 -0.4600097898789018,-0.03560766704186774 l 0.5037853083076154 -5.8547489282166065" fill="#ff4406" stroke="none" /><path d="M 98.19965949673042 120.92268563240118 l -0.5890029182747015 6.84510673022565 a27.870401049859943,27.870401049859943 0 0,0 -0.4763190050204506,-0.04510790500243927 l 0.7064214866801674 -6.833987069718027" fill="#ff5207" stroke="none" /><path d="M 97.84075906011543 120.88869738790638 l -0.8449408858849485 8.174036602355157 a29.217590856040587,29.217590856040587 0 0,0 -0.4984578021636244,-0.055853236415915795 l 0.9851345896493722 -8.15832760543227" fill="#ff6509" stroke="none" /><path d="M 97.48249496171623 120.84855314841334 l -0.6761325144823213 5.599347150925583 a26.640021604011693,26.640021604011693 0 0,0 -0.4535427880353602,-0.05872019415412572 l 0.7721531244084755 -5.58691536057106" fill="#ff4106" stroke="none" /><path d="M 96.76829788921471 120.74984581791261 l -1.3326388000066347 8.556497066614355 a29.659651737931682,29.659651737931682 0 0,0 -0.5024097797520762,-0.0826713380688593 l 1.4793260828117747 -8.532359730049828" fill="#ff6b09" stroke="none" /><path d="M 96.41257539226777 120.69131181640829 l -1.4563272378253302 8.399708503873237 a29.52502152335537,29.52502152335537 0 0,0 -0.498642839309124,-0.09086933598905624 l 1.6003048106855116 -8.373470993952814" fill="#ff6909" stroke="none" /><path d="M 95.70440661134978 120.55596938700252 l -1.261004445183491 6.034362758950758 a27.164711357183265,27.164711357183265 0 0,0 -0.4556396324615682,-0.09930453719568423 l 1.3644064942641956 -6.011826763621356" fill="#ff4806" stroke="none" /><path d="M 95.35216902796893 120.47920084513623 l -1.7392142825500285 7.66329903548683 a28.8581816235004,28.8581816235004 0 0,0 -0.4821622872962253,-0.1137889869420669 l 1.8705087235861417 -7.632313904898536" fill="#ff6008" stroke="none" /><path d="M 95.00130118170881 120.39639698878247 l -1.4702876166259522 5.999275212713326 a27.17681542167808,27.17681542167808 0 0,0 -0.4521635931107247,-0.11493821719677083 l 1.5730565029620556 -5.973151763681292" fill="#ff4806" stroke="none" /><path d="M 94.30408787586889 120.21278271476187 l -2.6807428146720227 9.513010532161337 a30.883509064266,30.883509064266 0 0,0 -0.5090484497675032,-0.14817658477572404 l 2.8436512768211326 -9.465590253083096" fill="#ff7b0b" stroke="none" /><path d="M 93.95794788825049 120.11202640906438 l -1.7501570931576407 5.825703755376204 a27.08291657810087,27.08291657810087 0 0,0 -0.44410742918215035,-0.13758561679522258 l 1.8499051552114247 -5.7948015507743325" fill="#ff4706" stroke="none" /><path d="M 93.27111125876986 119.89276391827306 l -3.3257209476781044 9.83190303992474 a31.379149156279926,31.379149156279926 0 0,0 -0.5087818650405542,-0.17698074336827557 l 3.4940085847636806 -9.773363863987875" fill="#ff820c" stroke="none" /><path d="M 92.59220618246901 119.65005319985036 l -2.3372994919681402 6.199964590329941 a27.62589841730913,27.62589841730913 0 0,0 -0.4423139676874033,-0.1710965446877311 l 2.443385722149072 -6.158928157504169" fill="#ff4f07" stroke="none" /><path d="M 92.25597844496254 119.51999308798841 l -1.5143747623232362 3.8172136638675283 a25.106635006471663,25.106635006471663 0 0,0 -0.39924994071100567,-0.16237147515672948 l 1.5796791642246828 -3.7906549321315075" fill="#ff2b04" stroke="none" /><path d="M 91.92203290615298 119.3841803445677 l -2.2394569342278157 5.373881396475364 a26.821835502970266,26.821835502970266 0 0,0 -0.42348475582539985,-0.18076046030170026 l 2.331376765223647 -5.33464628651426" fill="#ff4306" stroke="none" /><path d="M 91.26138138417905 119.09545874513695 l -2.4241017037749 5.297099703452516 a26.82542138720978,26.82542138720978 0 0,0 -0.4170858494322432,-0.19521723743342814 l 2.514676267078633 -5.2547062344485616" fill="#ff4406" stroke="none" /><path d="M 90.93487009805054 118.94263497670748 l -3.1739136283584917 6.6322587717869075 a28.352590301126817,28.352590301126817 0 0,0 -0.4372236083757894,-0.21386797641101898 l 3.2872974859963504 -6.576797045278667" fill="#ff5908" stroke="none" /><path d="M 90.6110303473126 118.78422872680471 l -2.713451713451362 5.428721096145136 a27.069088312173697,27.069088312173697 0 0,0 -0.413864161431905,-0.21132198972603064 l 2.8062430965968495 -5.381341154746269" fill="#ff4706" stroke="none" /><path d="M 90.28995756902619 118.62028667847754 l -3.6849266212513907 7.066332672036866 a28.96942542696165,28.96942542696165 0 0,0 -0.4389711986236358,-0.23372743811599567 l 3.8056866356615884 -7.002034766198298" fill="#ff6109" stroke="none" /><line stroke="#e1ed5e" stroke-width="0.3" x1="58.13341422392154" x2="55.67067388415222" y1="173.97424548756322" y2="178.32567169271397" /><path d="M 57.64086615596768 174.84453072859336 a86.0,86.0 0 0,1 -31.369924170532247,-30.572349798747897" fill="none" id="id68" stroke="none" /><text fill="#e1ed5e" style="font-size:6.75px; font-family:Arial;" text-anchor="middle"><textPath startOffset="22.145653131862474" xlink:href="#id68">August</textPath></text><path d="M 89.65649057296885 118.27599006163327 l -3.5943800742869487 6.350925184418366 a28.297521415967925,28.297521415967925 0 0,0 -0.4206999679498492,-0.24289123974391422 l 3.7028725100971975 -6.28828704739828" fill="#ff5808" stroke="none" /><path d="M 89.34428304082925 118.09573695890944 l -3.026690580645889 5.139982303700305 a26.964920280550515,26.964920280550515 0 0,0 -0.39685588479802253,-0.23830055622548774 l 3.1144792220013384 -5.087267746938898" fill="#ff4506" stroke="none" /><path d="M 89.03521579738668 117.91015095944536 l -3.2064847378662047 5.2375518426212055 a27.141131302806812,27.141131302806812 0 0,0 -0.3952729303631774,-0.24667954280614995 l 3.2959217970190946 -5.181736502973508" fill="#ff4806" stroke="none" /><path d="M 88.72937992617639 117.7192867562869 l -3.9789825856206984 6.255621516036607 a28.41384535639724,28.41384535639724 0 0,0 -0.4093141172922673,-0.2653124656359793 l 4.085782335169975 -6.186395208696733" fill="#ff5a08" stroke="none" /><path d="M 88.1277618465304 117.32195027204791 l -3.8887781150454135 5.67384348739323 a27.87859688799182,27.87859688799182 0 0,0 -0.39243095672753187,-0.2739472855198147 l 3.9856041629467107 -5.606251386068287" fill="#ff5207" stroke="none" /><path d="M 87.54013794807813 116.9041958592261 l -3.564548342057642 4.835994417332086 a27.00773225829289,27.00773225829289 0 0,0 -0.37083804157033495,-0.27828377987821235 l 3.6470393725387433 -4.774091610189859" fill="#ff4606" stroke="none" /><path d="M 87.2517909369889 116.68781488649013 l -2.2203246206397753 2.9064762017953027 a24.657519013295982,24.657519013295982 0 0,0 -0.33415641434056254,-0.2598420489182237 l 2.269890979615566 -2.867933101256286" fill="#ff2503" stroke="none" /><path d="M 86.96720088162412 116.46651593811092 l -3.849347111511272 4.863524327145505 a27.202527070931357,27.202527070931357 0 0,0 -0.3636708818835292,-0.29294751953438397 l 3.932268763750063 -4.796728513817711" fill="#ff4906" stroke="none" /><path d="M 86.13680546590413 115.77377054828092 l -7.9681008933596775 9.066236132536888 a33.070098154434234,33.070098154434234 0 0,0 -0.4231948543085893,-0.37842344827170743 l 8.122560774491637 -8.928117154381798" fill="#ff990e" stroke="none" /><path d="M 85.86807049272751 115.53346607816431 l -6.409565461486832 7.045235232778569 a30.524592846430203,30.524592846430203 0 0,0 -0.3845665957108609,-0.3559490997440639 l 6.5295618285116594 -6.934168386902128" fill="#ff770a" stroke="none" /><path d="M 85.60350026404147 115.28858382429668 l -5.914600374533896 6.281100633608801 a29.62755601314517,29.62755601314517 0 0,0 -0.367279428894678,-0.35184538468430016 l 6.021552289293889 -6.178643118618918" fill="#ff6a09" stroke="none" /><path d="M 84.3458050057657 113.99807769240083 l -6.930384430265815 6.197192492414783 a30.29706529714151,30.29706529714151 0 0,0 -0.34335077786875035,-0.3906701571816788 l 7.035746272093157 -6.077310057421804" fill="#ff730a" stroke="none" /><path d="M 83.4222238831116 112.89097897827486 l -3.1814582055467495 2.473921143511077 a25.03013177674774,25.03013177674774 0 0,0 -0.26084737361441274,-0.341457585374446 l 3.2234575565154575 -2.4189426448957607" fill="#ff2a04" stroke="none" /><path d="M 83.20337586046588 112.60449989151573 l -4.086109326386062 3.066292615307819 a26.108663213588308,26.108663213588308 0 0,0 -0.2659328729882133,-0.36078901609557257 l 4.1381442189581055 -2.995697289943367" fill="#ff3905" stroke="none" /><line stroke="#e1ed5e" stroke-width="0.3" x1="26.387840678322732" x2="22.057713659400548" y1="142.50000000000003" y2="145.00000000000006" /><path d="M 25.521815274538298 143.00000000000003 a86.0,86.0 0 0,1 -11.493303480769221,-40.785679425670985" fill="none" id="id69" stroke="none" /><text fill="#e1ed5e" style="font-size:6.75px; font-family:Arial;" text-anchor="middle"><textPath startOffset="21.40746469413373" xlink:href="#id69">September</textPath></text><path d="M 79.34024301695615 103.76489593502545 l -4.1680452654744125 0.7595566922624436 a25.236688294388003,25.236688294388003 0 0,0 -0.07400981211911804,-0.42686892896085443 l 4.180469895085764 -0.6878947303809965" fill="#ff2d04" stroke="none" /><path d="M 79.2786578344484 103.40968896794605 l -5.519645822372561 0.9082556195998321 a26.59387328020304,26.59387328020304 0 0,0 -0.07025659084998388,-0.45109771193455994 l 5.534423905360812 -0.8133697257338223" fill="#ff4006" stroke="none" /><path d="M 79.00696218219943 100.54070618675478 l -3.6614679565754433 0.09430642644038757 a24.662682254727635,24.662682254727635 0 0,0 -0.0072679379092260715,-0.42332094662818576 l 3.6625473260833354 -0.031438563843149435" fill="#ff2503" stroke="none" /><line stroke="#e1ed5e" stroke-width="0.3" x1="15.003131293944662" x2="10.003315487706104" y1="100.72959589197737" y2="100.7725132973878" /><path d="M 14.003168132696942 100.73817937305945 a86.0,86.0 0 0,1 10.791469493833604,-42.45332614584628" fill="none" id="id70" stroke="none" /><text fill="#e1ed5e" style="font-size:6.75px; font-family:Arial;" text-anchor="middle"><textPath startOffset="22.145653131862435" xlink:href="#id70">October</textPath></text><path d="M 79.00077361379809 100.18025310272382 l -3.9411069048489367 0.0338296628028203 a24.9412520956586,24.9412520956586 0 0,0 0.0,-0.42816553105327426 l 3.9411069048489367 0.03382966280281885" fill="#ff2904" stroke="none" /><path d="M 79.48165901384962 95.52812308129327 l -3.2986642792114704 -0.7189285265667931 a24.376098969707083,24.376098969707083 0 0,0 0.09261656835133797,-0.4080856890597013 l 3.2858368493024708 0.7754485495655025" fill="#ff2103" stroke="none" /><path d="M 79.56144815229197 95.17655741523228 l -4.497335614744189 -1.0613589594696364 a25.62087767339636,25.62087767339636 0 0,0 0.10469480409416632,-0.427190527893698 l 4.4784532841337255 1.1384053119714521" fill="#ff3304" stroke="none" /><path d="M 79.64726062577567 94.8264132398404 l -4.520505428906122 -1.1490948027289625 a25.66426716627901,25.66426716627901 0 0,0 0.11220236634772901,-0.42605066072144254 l 4.500113581753667 1.2265259678231897" fill="#ff3304" stroke="none" /><path d="M 79.73907114497095 94.47779374421319 l -7.04866428818798 -1.9211447957634586 a28.305783022637996,28.305783022637996 0 0,0 0.1317991498553923,-0.46770868650361913 l 7.014646646258005 2.041861406170091" fill="#ff5808" stroke="none" /><path d="M 80.28708602549916 92.7611449362534 l -3.248531813255506 -1.1929058786815918 a24.46063337802868,24.46063337802868 0 0,0 0.1481258104833186,-0.39292131071194847 l 3.227575318957751 1.248495469587685" fill="#ff2203" stroke="none" /><path d="M 80.41425534168474 92.42381321644754 l -10.871782052161933 -4.205438850254931 a32.65681607099228,32.65681607099228 0 0,0 0.20673525713643082,-0.5211078974491731 l 10.79798812005937 4.391447764917688" fill="#ff930d" stroke="none" /><path d="M 80.5471966667186 92.08871423366112 l -9.339510113874203 -3.7982974568019343 a31.082336670509797,31.082336670509797 0 0,0 0.20525318036265666,-0.4925329130736823 l 9.272931088975067 3.9580628793168806" fill="#ff7e0b" stroke="none" /><path d="M 80.68587082218212 91.75594674310238 l -10.223571974849852 -4.363834944895531 a32.11595607004754,32.11595607004754 0 0,0 0.2207836144355265,-0.5051961169213661 l 10.147154478397349 4.5386931315927646" fill="#ff8c0c" stroke="none" /><path d="M 80.83023694016515 91.42560881287825 l -3.6094566456457517 -1.6144640471622793 a24.954070236651834,24.954070236651834 0 0,0 0.17826181907600358,-0.38953424581730545 l 3.5812103617147018 1.6761872751942561" fill="#ff2904" stroke="none" /><path d="M 80.9802524753101 91.09779779509293 l -8.213193353241268 -3.8441891977608984 a30.06831492869034,30.06831492869034 0 0,0 0.22282159433800275,-0.46561143327522847 l 8.14599250094336 3.984613133101214" fill="#ff700a" stroke="none" /><path d="M 81.1358732173502 90.77261029715801 l -7.098839963457564 -3.4723983535340888 a28.902599518665262,28.902599518665262 0 0,0 0.22183445232498444,-0.4438175056583759 l 7.038185597920836 3.5937477153562347" fill="#ff6008" stroke="none" /><path d="M 81.46374523516351 90.13048839642627 l -3.0619986501616365 -1.6303418134512209 a24.46898402450618,24.46898402450618 0 0,0 0.2005928280955444,-0.3690682104547182 l 3.0335604724507412 1.6826648573805587" fill="#ff2203" stroke="none" /><path d="M 81.63589988554816 89.8137432299009 l -4.883805648609993 -2.7089646670381784 a26.584805026198868,26.584805026198868 0 0,0 0.22478925571738712,-0.39718107596215113 l 4.836583027871237 2.7924025130994345" fill="#ff4006" stroke="none" /><line stroke="#e1ed5e" stroke-width="0.3" x1="26.387840678322718" x2="22.05771365940052" y1="57.49999999999999" y2="54.99999999999999" /><path d="M 25.521815274538284 56.99999999999999 a86.0,86.0 0 0,1 29.574782752854787,-30.34633250058573" fill="none" id="id71" stroke="none" /><text fill="#e1ed5e" style="font-size:6.75px; font-family:Arial;" text-anchor="middle"><textPath startOffset="21.40746469413373" xlink:href="#id71">November</textPath></text><path d="M 81.81346652052679 89.5 l -10.497447107078397 -6.060703913075573 a33.12140782615114,33.12140782615114 0 0,0 0.28851315471030087,-0.4899584116983794 l 10.391860242238316 6.240013493067525" fill="#ff990e" stroke="none" /><path d="M 81.99639281039701 89.18935116829357 l -3.7638592180299306 -2.2600893159677975 a25.390289276266504,25.390289276266504 0 0,0 0.22758408731133573,-0.3717415030149042 l 3.724507166263202 2.3243679351072446" fill="#ff2f04" stroke="none" /><path d="M 82.18462484594161 88.88188828441811 l -2.9525080039778646 -1.842583361030019 a24.48028978044904,24.48028978044904 0 0,0 0.22554776078040079,-0.35459854243409783 l 2.9204425515715737 1.8929955781427887" fill="#ff2203" stroke="none" /><path d="M 82.37810715431573 88.57770195909679 l -5.135884527398066 -3.329018300662927 a27.120430763019506,27.120430763019506 0 0,0 0.25657937135973435,-0.38849387055374285 l 5.077980717117602 3.416692049555731" fill="#ff4806" stroke="none" /><path d="M 82.78059297857968 87.97951657250589 l -4.693202628733588 -3.2762199273404864 a26.723614935218368,26.723614935218368 0 0,0 0.2658171272698119,-0.37390507869584494 l 4.636270402933804 3.356302232745852" fill="#ff4206" stroke="none" /><path d="M 82.98947788004972 87.6856937992154 l -3.913339227642156 -2.8329558126971968 a25.831134705977234,25.831134705977234 0 0,0 0.2631060735936599,-0.3569539198143185 l 3.864131134464677 2.899716041780379" fill="#ff3505" stroke="none" /><path d="M 83.2033758604659 87.39550010848427 l -8.567937870314758 -6.429540308799898 a31.71207486587246,31.71207486587246 0 0,0 0.3304821370661131,-0.4326117260386595 l 8.45630375589434 6.575672948079442" fill="#ff870c" stroke="none" /><path d="M 83.42222388311158 87.10902102172516 l -2.785415419398772 -2.1659558775590315 a24.52844213813362,24.52844213813362 0 0,0 0.26132551954126476,-0.3301762571091937 l 2.7478234692159456 2.2134520785829084" fill="#ff2303" stroke="none" /><path d="M 83.64595745247003 86.82634096563983 l -2.884873085212687 -2.3238495479965944 a24.7044256558215,24.7044256558215 0 0,0 0.2688702410724191,-0.3279779764186785 l 2.844556024901638 2.373029806113766" fill="#ff2503" stroke="none" /><path d="M 83.8745106332314 86.54754324733833 l -4.123290805920254 -3.439795840217968 a26.369704134546645,26.369704134546645 0 0,0 0.29296168253803107,-0.34510812538812774 l 4.0636345598751085 3.5100707480556523" fill="#ff3d05" stroke="none" /><path d="M 84.10781606972428 86.27271002978789 l -8.703144894409848 -7.517569274461724 a32.5003729874045,32.5003729874045 0 0,0 0.3683204375343475,-0.41908104626392456 l 8.572813392916908 7.6658625985369495" fill="#ff910d" stroke="none" /><path d="M 84.34580500576568 86.00192230759919 l -4.962458130652236 -4.437460660464568 a27.657105062386137,27.657105062386137 0 0,0 0.3195084417234737,-0.3511957470948792 l 4.885551988086896 4.521993983117105" fill="#ff4f07" stroke="none" /><path d="M 84.58840730492382 85.73525988315684 l -5.913451087807917 -5.4734020441763604 a29.057731300129745,29.057731300129745 0 0,0 0.34197375122314333,-0.3631642730646064 l 5.818621502848502 5.574107777185478" fill="#ff6309" stroke="none" /><path d="M 84.83555147118756 85.47280134310135 l -10.195519760932093 -9.767077298985383 a35.118938421847176,35.118938421847176 0 0,0 0.42078040173852177,-0.43175776091388834 l 10.026352558042769 9.940657751967" fill="#ffb310" stroke="none" /><path d="M 85.08716467003674 85.21462403516908 l -4.136623444537646 -4.101267901050022 a26.825122480951087,26.825122480951087 0 0,0 0.3270213380298328,-0.3242263006537899 l 4.065610186377836 4.171674211932485" fill="#ff4406" stroke="none" /><path d="M 85.34317274990677 84.96080404539775 l -0.7968350001611932 -0.8176229074974921 a22.14168876509605,22.14168876509605 0 0,0 0.2744805140457933,-0.2629461234554491 l 0.7826820002500994 0.8311811612585097" fill="#ff0000" stroke="none" /><path d="M 85.60350026404147 84.71141617570332 l -7.291777378218614 -7.743614886926753 a31.63642744771638,31.63642744771638 0 0,0 0.39857413545961184,-0.36891426941508 l 7.157773471445049 7.867646902474199" fill="#ff860c" stroke="none" /><path d="M 86.13680546590413 84.22622945171909 l -3.726686103635664 -4.240284687604993 a26.64519295923253,26.64519295923253 0 0,0 0.3461597811884335,-0.29900457440252975 l 3.653346842684382 4.303633394472234" fill="#ff4106" stroke="none" /><path d="M 86.40962598614128 83.9905735841838 l -7.222902448349552 -8.508560922425904 a32.16091074908348,32.16091074908348 0 0,0 0.4239507396225929,-0.35367478532372487 l 7.07577737456505 8.63129789166151" fill="#ff8d0c" stroke="none" /><path d="M 86.96720088162412 83.53348406188908 l -4.6470843053192645 -5.871439211503839 a28.48793636158384,28.48793636158384 0 0,0 0.3860658755414654,-0.30020715991961616 l 4.545608485142555 5.95034742304426" fill="#ff5b08" stroke="none" /><path d="M 87.25179093698888 83.31218511350988 l -4.800699777720854 -6.284270113569753 a28.908145750813844,28.908145750813844 0 0,0 0.396932258256167,-0.2978653665502447 l 4.692114530553935 6.365754507383999" fill="#ff6008" stroke="none" /><path d="M 87.54013794807813 83.09580414077388 l -5.252599723442101 -7.126160315834846 a29.852794174817543,29.852794174817543 0 0,0 0.4151229901163865,-0.30051703147212655 l 5.129495722951747 7.215278118680052" fill="#ff6d0a" stroke="none" /><path d="M 88.4268655584334 82.4767994020092 l -3.785231242960343 -5.731322548362055 a27.86848117971116,27.86848117971116 0 0,0 0.4014579030493949,-0.2602201624798357 l 3.686287707653922 5.795456552545797" fill="#ff5207" stroke="none" /><path d="M 88.72937992617638 82.28071324371311 l -8.882021011997733 -13.964012295337731 a37.54943916396905,37.54943916396905 0 0,0 0.546855497150985,-0.34127827547991296 l 8.641001386057049 14.11442636765918" fill="#ffd213" stroke="none" /><line stroke="#e1ed5e" stroke-width="0.3" x1="56.869717070023135" x2="54.33264160355391" y1="26.7553504044142" y2="22.446841604673864" /><path d="M 56.362301976729285 25.89364864446614 a86.0,86.0 0 0,1 42.16139366436587,-11.88097634709845" fill="none" id="id72" stroke="none" /><text fill="#e1ed5e" style="font-size:6.75px; font-family:Arial;" text-anchor="middle"><textPath startOffset="22.145653131862474" xlink:href="#id72">December</textPath></text><path d="M 89.34428304082924 81.90426304109057 l -4.993574835739596 -8.4801817708196 a30.84120279774138,30.84120279774138 0 0,0 0.458516943509513,-0.2647248807632203 l 4.8472654243696836 8.564653548858995" fill="#ff7b0b" stroke="none" /><path d="M 89.65649057296885 81.72400993836675 l -5.7905786431893524 -10.231397619986492 a32.756372666823125,32.756372666823125 0 0,0 0.49174461229240835,-0.2727624471063211 l 5.614089842740841 10.329292982525958" fill="#ff940d" stroke="none" /><path d="M 89.97174638481275 81.54914285379989 l -2.3037271429434676 -4.23859846882023 a25.824196899901544,25.824196899901544 0 0,0 0.391311822708508,-0.20835150486621118 l 2.2306265044483977 4.277520441409017" fill="#ff3505" stroke="none" /><path d="M 90.28995756902619 81.37971332152246 l -2.8076770415625703 -5.384090933290763 a27.072189518424253,27.072189518424253 0 0,0 0.41391157633223385,-0.2113462001119861 l 2.714838243516754 5.431495085075584" fill="#ff4706" stroke="none" /><path d="M 90.61103034731259 81.2157712731953 l -4.225549554224641 -8.453929691878832 a30.45114788110093,30.45114788110093 0 0,0 0.46958533997619456,-0.22969772100382674 l 4.079803964986394 8.525221162979873" fill="#ff760a" stroke="none" /><path d="M 90.93487009805054 81.0573650232925 l -3.1727618835870968 -6.629852068184558 a28.349922204755245,28.349922204755245 0 0,0 0.44078902670080555,-0.20631152123869712 l 3.058484143014769 6.683339820993798" fill="#ff5908" stroke="none" /><path d="M 91.5904679813234 80.7573450057729 l -3.0397007962452216 -6.955430287668855 a28.590638406439545,28.590638406439545 0 0,0 0.4514120416219291,-0.19268095794917423 l 2.9198536794528613 7.006585895277433" fill="#ff5c08" stroke="none" /><path d="M 96.76829788921471 79.25015418208739 l -1.9686600391009874 -12.640209672451828 a33.7925964101545,33.7925964101545 0 0,0 0.5739509883730468,-0.08435103020305997 l 1.7513839451202557 12.672141775953772" fill="#ffa20f" stroke="none" /><path d="M 97.12497278360702 79.19773525538626 l -0.15307373920735376 -1.1075653233065177 a22.118093249700575,22.118093249700575 0 0,0 0.37655756544073693,-0.048752915791403076 l 0.1340383518758228 1.1100298352983156" fill="#ff0000" stroke="none" /></svg>