<?xml version="1.0" encoding="utf-8" ?>
<svg baseProfile="full" height="200mm" version="1.1" viewBox="0,0,200,200" width="200mm" xmlns="http://www.w3.org/2000/svg" xmlns:ev="http://www.w3.org/2001/xml-events" xmlns:xlink="http://www.w3.org/1999/xlink"><defs /><rect fill="#1a1a1a" height="200" width="200" x="0" y="0" /><text alignment-baseline="middle" fill="#e1ed5e" style="dominant-baseline: central; font-size:9.0px; font-family:Arial;" text-anchor="middle" x="100.0" y="100.0">2017</text><line stroke="#e1ed5e" stroke-width="0.3" x1="100.0" x2="100.0" y1="15.0" y2="10.0" /><path d="M 100.0 14.0 a86.0,86.0 0 0,1 42.46469731375804,11.215312516191453" fill="none" id="id25" stroke="none" /><text fill="#e1ed5e" style="font-size:6.75px; font-family:Arial;" text-anchor="middle"><textPath startOffset="22.20632615414155" xlink:href="#id25">January</textPath></text><path d="M 103.59715602781102 79.31037775812273 l 1.4351899264487968 -8.254726009658965 a29.378560235477234,29.378560235477234 0 0,0 0.4974837787956197,0.09091198073861056 l -1.5770688263473174 8.228798547569616" fill="#ff5c08" stroke="none" /><path d="M 103.95276090670814 79.375362276772 l 1.695961388775781 -8.849153809612384 a30.010205778915132,30.010205778915132 0 0,0 0.5065059517548245,0.10160032896141746 l -1.8480337499977306 8.81864952457376" fill="#ff6509" stroke="none" /><path d="M 104.307194497241 79.44645832069477 l 1.851651699718691 -8.835914052662986 a30.02784532228584,30.02784532228584 0 0,0 0.5049786692170332,0.11036877810216766 l -2.003473093089252 8.802731776464949" fill="#ff6509" stroke="none" /><path d="M 105.36241919743992 79.69619591428918 l 2.276422301678168 -8.6192501421154 a29.914795090630747,29.914795090630747 0 0,0 0.4967310567401483,0.13577536193145837 l -2.4244512476420272 8.578788239357648" fill="#ff6309" stroke="none" /><path d="M 105.71112130821622 79.79150937346287 l 2.407501406394885 -8.518812152442564 a29.852469910166114,29.852469910166114 0 0,0 0.49329043256879457,0.14400500418114043 l -2.5537820566871066 8.47610881934272" fill="#ff6209" stroke="none" /><path d="M 107.08798089147638 80.2323363322302 l 5.65849607318173 -15.780974716588691 a37.76477678991953,37.76477678991953 0 0,0 0.6100228452568709,0.22467656210267148 l -5.929301244211178 15.681234886679695" fill="#ffcd13" stroke="none" /><line stroke="#e1ed5e" stroke-width="0.3" x1="143.23703022742887" x2="145.7803849466894" y1="26.81831364943548" y2="22.513508569990506" /><path d="M 143.74570117128098 25.957352633546492 a86.0,86.0 0 0,1 28.547481713284135,27.462654790039103" fill="none" id="id26" stroke="none" /><text fill="#e1ed5e" style="font-size:6.75px; font-family:Arial;" text-anchor="middle"><textPath startOffset="19.985693538727396" xlink:href="#id26">February</textPath></text><path d="M 111.60114157652 82.49532879139004 l 4.443162833499966 -6.704176827231101 a29.042865341144157,29.042865341144157 0 0,0 0.41433838653284466,0.27976312815368015 l -4.557905914439353 6.62670178677875" fill="#ff5708" stroke="none" /><path d="M 112.19680574252982 82.90503203632743 l 6.607441971705585 -9.260950056314005 a32.37644431951385,32.37644431951385 0 0,0 0.45088775147869514,0.32758912680598207 l -6.765875039538069 9.145841694691349" fill="#ff850c" stroke="none" /><path d="M 113.34407831869373 83.78471172551755 l 7.242216968834452 -8.800505594416729 a32.39730693370297,32.39730693370297 0 0,0 0.4275556875951384,0.3580655925176024 l -7.392630193388708 8.674538844505307" fill="#ff850c" stroke="none" /><path d="M 113.6212207817346 84.01681056812373 l 7.301404942966402 -8.56749480771638 a32.25666386730195,32.25666386730195 0 0,0 0.41949975891081015,0.36378605710818623 l -7.447798500523976 8.440543757188523" fill="#ff840c" stroke="none" /><path d="M 113.89432698308785 84.25364557470407 l 7.458630606207389 -8.452819715244708 a32.273035600861164,32.273035600861164 0 0,0 0.4133853320740523,0.3711414327443678 l -7.603026925877431 8.323179273731043" fill="#ff840c" stroke="none" /><path d="M 114.16331599549186 84.49514656593476 l 6.057434552306815 -6.631189683959188 a29.98138018236213,29.98138018236213 0 0,0 0.37803967167804337,0.3513466745729514 l -6.170682107779705 6.525938423311596" fill="#ff6409" stroke="none" /><path d="M 114.42810811169701 84.74124197986012 l 6.093600044212798 -6.444418618597426 a29.869187833762197,29.869187833762197 0 0,0 0.3705439966849118,0.3564630312292613 l -6.203627284510128 6.3385725006058635" fill="#ff6309" stroke="none" /><path d="M 114.68862486808459 84.99185889309783 l 7.86318635667001 -8.034231349129715 a32.24182249686678,32.24182249686678 0 0,0 0.3932952695741475,0.39160633469777106 l -8.00031742641148 7.897689163781827" fill="#ff830c" stroke="none" /><path d="M 116.15771136456269 86.58626213691792 l 8.788648470786283 -7.296121591604811 a32.422509891549055,32.422509891549055 0 0,0 0.35279011432792895,0.4324789657933727 l -8.912937077190621 7.143758456203337" fill="#ff860c" stroke="none" /><path d="M 116.82858285166822 87.43820079747576 l 9.04843848777307 -6.754262577049376 a32.29133747732051,32.29133747732051 0 0,0 0.3286602909925387,0.4482922675579588 l -9.163361391279237 6.5975078658199235" fill="#ff840c" stroke="none" /><path d="M 117.04232023915458 87.72973835380427 l 9.244714156547284 -6.656080859489358 a32.391582517118785,32.391582517118785 0 0,0 0.32189116647161276,0.45529222720806933 l -9.357917942822779 6.495962131949495" fill="#ff850c" stroke="none" /><path d="M 117.2510076193507 88.02491185347247 l 22.632159477701645 -15.710508665461163 a48.550584842279676,48.550584842279676 0 0,0 0.4706529167315514,0.6906250797839822 l -22.89923686010193 15.318605562406773" fill="#aeff20" stroke="none" /><path d="M 117.45458315368197 88.32363383020206 l 7.439939996352886 -4.977000190372136 a29.951158474984993,29.951158474984993 0 0,0 0.2829719341126202,0.43098566924202203 l -7.524508565823432 4.84819645715244" fill="#ff6409" stroke="none" /><line stroke="#e1ed5e" stroke-width="0.3" x1="172.23445277983987" x2="176.4835382374775" y1="55.19839476539836" y2="52.563006222186495" /><path d="M 173.08426987136738 54.67131705675599 a86.0,86.0 0 0,1 12.851231095245387,41.99856678651699" fill="none" id="id27" stroke="none" /><text fill="#e1ed5e" style="font-size:6.75px; font-family:Arial;" text-anchor="middle"><textPath startOffset="22.20632615414155" xlink:href="#id27">March</textPath></text><path d="M 117.84615892207809 88.93136811851018 l 7.5892668071695715 -4.707052139665016 a29.930470901130064,29.930470901130064 0 0,0 0.2677839348655346,0.44016637987412616 l -7.6691665403213305 4.5757179865838085" fill="#ff6309" stroke="none" /><path d="M 118.3937258080291 89.86733742301442 l 10.4467278229553 -5.754851908111352 a32.92696284437917,32.92696284437917 0 0,0 0.26920442084354496,0.4987949067572652 l -10.544240343017309 5.574176018021628" fill="#ff8d0d" stroke="none" /><path d="M 118.56541770881063 90.18545643968196 l 36.949520506580896 -19.533235622950887 a62.79490829715935,62.79490829715935 0 0,0 0.4969486383125441,0.9599465936451597 l -37.280278578053554 18.894316307045383" fill="#32ff4b" stroke="none" /><path d="M 119.04729006885535 91.15688171328212 l 8.096564624654485 -3.7590060545645856 a29.926616673715728,29.926616673715728 0 0,0 0.21290319962758084,0.4691039789908273 l -8.160070141245413 3.6190800667316956" fill="#ff6309" stroke="none" /><path d="M 119.34039704204932 91.81776055985345 l 8.224924584671015 -3.479675323242234 a29.930706846532733,29.930706846532733 0 0,0 0.19665659242801564,0.4762195372254291 l -8.283602863985228 3.3375812155635023" fill="#ff6309" stroke="none" /><path d="M 119.61058180528143 92.48833698450437 l 10.428955875914696 -3.9947209583678167 a32.167851906118685,32.167851906118685 0 0,0 0.19361280374726902,0.5187860558128219 l -10.49617326816359 3.8146117655256617" fill="#ff820c" stroke="none" /><path d="M 120.28053869075195 94.5502522615342 l 8.971629934449423 -2.410839312069819 a30.289902575879374,30.289902575879374 0 0,0 0.1309730600562388,0.5046926276703465 l -9.011799326375964 2.2560502588506224" fill="#ff6809" stroke="none" /><path d="M 120.37134235888165 94.90015583598534 l 61.11402707664495 -15.299532492043943 a84.0,84.0 0 0,0 0.33906879895672226,1.4056590733623755 l -61.36832867586249 14.245288187022162" fill="#4dd2ff" stroke="none" /><path d="M 120.94382443527127 98.46500227214037 l 14.368457605243238 -1.053081295876045 a35.40699670887018,35.40699670887018 0 0,0 0.039317630359974175,0.608226339273692 l -14.384455826607628 0.8055958923493177" fill="#ffae10" stroke="none" /><path d="M 120.96714384426684 98.82574320788733 l 15.931913373197695 -0.8922606545165432 a36.95687916876837,36.95687916876837 0 0,0 0.03010470731087071,0.6354627905580039 l -15.944911688742062 0.6178867573355395" fill="#ffc212" stroke="none" /><line stroke="#e1ed5e" stroke-width="0.3" x1="184.98032266829074" x2="189.97916517819016" y1="98.17113171792111" y2="98.06355123074" /><path d="M 185.9800911702706 98.14961562048488 a86.0,86.0 0 0,1 -9.607161424134198,41.387399972396054" fill="none" id="id28" stroke="none" /><text fill="#e1ed5e" style="font-size:6.75px; font-family:Arial;" text-anchor="middle"><textPath startOffset="21.466115282336823" xlink:href="#id28">April</textPath></text><path d="M 120.99513854157772 99.54816195383933 l 8.960382764572044 -0.1928371100375559 a29.962457555751513,29.962457555751513 0 0,0 0.0066587893404020096,0.5157305726574526 l -8.962374561030162 0.03857027931964062" fill="#ff6409" stroke="none" /><path d="M 120.81339534386255 102.79330883721812 l 5.047477348795461 0.6774081235239773 a26.092731030834,26.092731030834 0 0,0 -0.06357425451243788,0.44463818798958227 l -5.035069043266422 -0.764191783493969" fill="#ff2d04" stroke="none" /><path d="M 120.70491114924044 103.5080841355445 l 8.161824701576316 1.382878078843892 a29.27814799579038,29.27814799579038 0 0,0 -0.08846679295488816,0.49616875642664765 l -8.13681146628224 -1.5231655860037578" fill="#ff5a08" stroke="none" /><path d="M 120.13307415673323 105.97154293290107 l 9.037591108597708 2.6805823539346214 a30.426747838063243,30.426747838063243 0 0,0 -0.15325406290352375,0.500843144789451 l -8.990110273188051 -2.83575247127613" fill="#ff6a09" stroke="none" /><line stroke="#e1ed5e" stroke-width="0.3" x1="174.80103733775053" x2="179.2010983576182" y1="140.37084112569926" y2="142.7455964860345" /><path d="M 175.68104954172406 140.8457921977663 a86.0,86.0 0 0,1 -30.038265399797805,32.042727171017184" fill="none" id="id29" stroke="none" /><text fill="#e1ed5e" style="font-size:6.75px; font-family:Arial;" text-anchor="middle"><textPath startOffset="22.206326154141568" xlink:href="#id29">May</textPath></text><path d="M 118.30583269289576 110.29060199501025 l 7.682835185823731 4.318896628026928 a29.81355913216185,29.81355913216185 0 0,0 -0.25532900464344305,0.44518764134169286 l -7.607354185027909 -4.450504115226935" fill="#ff6209" stroke="none" /><path d="M 116.498646956653 112.99209946851258 l 6.92795187196227 5.455516447505177 a29.81811640029916,29.81811640029916 0 0,0 -0.3210162863986208,0.4005171757927757 l -6.833017673508795 -5.573961456876203" fill="#ff6209" stroke="none" /><path d="M 116.0416608686014 113.55231037782055 l 6.806227593943362 5.750034838085268 a29.909973888836618,29.909973888836618 0 0,0 -0.3356433040688939,0.3904289907814689 l -6.706241780303689 -5.866340928028265" fill="#ff6309" stroke="none" /><path d="M 115.80600337817218 113.82643327865902 l 4.7675259625899375 4.170433097404995 a27.334178401647694,27.334178401647694 0 0,0 -0.3128346609985501,0.3514730579693426 l -4.6950324519430495 -4.251880325115205" fill="#ff3f05" stroke="none" /><path d="M 115.07121518719521 114.62390073753431 l 6.390458109985749 6.200788981316025 a29.90436627988162,29.90436627988162 0 0,0 -0.3616425794547169,0.3663420236658864 l -6.282774905475496 -6.309871498962576" fill="#ff6309" stroke="none" /><path d="M 114.81725581225074 114.88116024355365 l 6.281929036804795 6.3090219821969065 a29.903167458567484,29.903167458567484 0 0,0 -0.3678802255731195,0.36004822924704205 l -6.172398858855881 -6.416220314366521" fill="#ff6309" stroke="none" /><path d="M 114.55890576462653 115.13401014063108 l 6.181804593083038 6.425997592925445 a29.916734441001715,29.916734441001715 0 0,0 -0.3741930518903573,0.3538228865150092 l -6.070275706801874 -6.531455116186376" fill="#ff6309" stroke="none" /><line stroke="#e1ed5e" stroke-width="0.3" x1="143.8653032363475" x2="146.44561519142675" y1="172.8068346515853" y2="177.08958963109032" /><path d="M 144.38136562736335 173.6633856474863 a86.0,86.0 0 0,1 -40.68145358897372,12.25698825130547" fill="none" id="id30" stroke="none" /><text fill="#e1ed5e" style="font-size:6.75px; font-family:Arial;" text-anchor="middle"><textPath startOffset="21.466115282336833" xlink:href="#id30">June</textPath></text><path d="M 105.18746579009965 120.34920634021253 l 2.820425133160269 11.063863420812487 a32.41769993151662,32.41769993151662 0 0,0 -0.5419108131971019,0.1331884932592672 l -2.629561035219956 -11.110773172385784" fill="#ff860c" stroke="none" /><path d="M 104.48393922423573 120.51570834832081 l 1.439790413012735 6.587582640822333 a27.743088423198017,27.743088423198017 0 0,0 -0.467416265259392,0.09795162298832695 l -1.326182686323965 -6.611390244537201" fill="#ff4506" stroke="none" /><path d="M 104.13013068566511 120.58985236759428 l 1.3634391874291154 6.797124284418951 a27.932522265067398,27.932522265067398 0 0,0 -0.47223571479980275,0.09050509867185613 l -1.2462358580576083 -6.8195865814392755" fill="#ff4706" stroke="none" /><path d="M 103.7750983002368 120.6578951692458 l 1.2819221846695832 7.014867428584209 a28.131037058391975,28.131037058391975 0 0,0 -0.4770903705668657,0.08294827630161353 l -1.1609828426306676 -7.0358942834068285" fill="#ff4a06" stroke="none" /><path d="M 102.34483914955558 120.86867818915974 l 0.8245486997114799 7.3383462012011496 a28.38452473263373,28.38452473263373 0 0,0 -0.48600713593796,0.05037662680325735 l -0.6981089671679173 -7.351452196460166" fill="#ff4e07" stroke="none" /><line stroke="#e1ed5e" stroke-width="0.3" x1="102.19456741930631" x2="102.32365962044197" y1="184.97166512339345" y2="189.96999836594603" /><path d="M 102.22038585953345 185.97133177190398 a86.0,86.0 0 0,1 -42.740103519485714,-10.115201625700543" fill="none" id="id31" stroke="none" /><text fill="#e1ed5e" style="font-size:6.75px; font-family:Arial;" text-anchor="middle"><textPath startOffset="22.20632615414155" xlink:href="#id31">July</textPath></text><path d="M 99.81925306533755 120.99922214144158 l -0.06216997097209039 7.222922111558966 a28.223189664887535,28.223189664887535 0 0,0 -0.4857618297473809,-0.008362830425921378 l 0.18649149061213927 -7.2207818038538845" fill="#ff4b07" stroke="none" /><path d="M 98.73552117531835 120.96189622390904 l -0.4434897509308373 7.351950822679835 a28.365314932729177,28.365314932729177 0 0,0 -0.4871232793797924,-0.033594873366376767 l 0.5699757910895598 -7.343227604797173" fill="#ff4d07" stroke="none" /><path d="M 98.37488393609728 120.93702456842531 l -0.5713262661337866 7.360626318530961 a28.38276597918592,28.38276597918592 0 0,0 -0.4867721164578983,-0.042000746438234114 l 0.6979427003332266 -7.349701319814064" fill="#ff4e07" stroke="none" /><path d="M 96.93821686468263 120.77559828337769 l -2.08155585215639 14.124308051077094 a35.27686774777184,35.27686774777184 0 0,0 -0.5999824763680707,-0.09370492354585742 l 2.324374192132978 -14.086384820184131" fill="#ffac0f" stroke="none" /><line stroke="#e1ed5e" stroke-width="0.3" x1="58.666819895761336" x2="56.23545636021788" y1="174.27360380694188" y2="178.64263932499728" /><path d="M 58.180547188652646 175.14741091055294 a86.0,86.0 0 0,1 -31.652253787137756,-30.449443065178592" fill="none" id="id32" stroke="none" /><text fill="#e1ed5e" style="font-size:6.75px; font-family:Arial;" text-anchor="middle"><textPath startOffset="22.20632615414155" xlink:href="#id32">August</textPath></text><path d="M 83.95833913139862 113.55231037782056 l -1.5450459009270814 1.3052851427826497 a23.02260627407825,23.02260627407825 0 0,0 -0.2531434229314683,-0.30492756033509333 l 1.567285323752086 -1.2784963253337953" fill="#ff0000" stroke="none" /><path d="M 83.72743513129214 113.27417163493432 l -5.710845756490084 4.658561656623789 a28.369935953791334,28.369935953791334 0 0,0 -0.3054254454906198,-0.38106520455866405 l 5.790189114035564 -4.559568618486866" fill="#ff4e07" stroke="none" /><path d="M 82.85270091963577 112.12312394758628 l -5.874505581440805 4.153269792567329 a28.194405173204483,28.194405173204483 0 0,0 -0.2767604335956006,-0.3986940463629889 l 5.945126922198539 -4.051534484017328" fill="#ff4b07" stroke="none" /><line stroke="#e1ed5e" stroke-width="0.3" x1="26.63291911575756" x2="22.317208475507996" y1="142.92168965132927" y2="145.44649492493687" /><path d="M 25.769776987707644 143.4266507060508 a86.0,86.0 0 0,1 -11.730757126820373,-40.83630448921669" fill="none" id="id33" stroke="none" /><text fill="#e1ed5e" style="font-size:6.75px; font-family:Arial;" text-anchor="middle"><textPath startOffset="21.46611528233685" xlink:href="#id33">September</textPath></text><line stroke="#e1ed5e" stroke-width="0.3" x1="15.007084014347285" x2="10.007500721073583" y1="101.09737516637583" y2="101.16192664675087" /><path d="M 14.007167355692545 101.11028546245083 a86.0,86.0 0 0,1 10.666146001902534,-42.60595125391555" fill="none" id="id34" stroke="none" /><text fill="#e1ed5e" style="font-size:6.75px; font-family:Arial;" text-anchor="middle"><textPath startOffset="22.20632615414155" xlink:href="#id34">October</textPath></text><path d="M 80.2630227832202 92.82701384747504 l -7.257203127531414 -2.63747670010924 a28.72161126824388,28.72161126824388 0 0,0 0.17287047024504643,-0.46320691446626455 l 7.21072806878474 2.7620067516048454" fill="#ff5307" stroke="none" /><line stroke="#e1ed5e" stroke-width="0.3" x1="26.266209847984243" x2="21.928928074336255" y1="57.711370442889674" y2="55.22380399835377" /><path d="M 25.398753493254645 57.213857153982495 a86.0,86.0 0 0,1 29.58750427330803,-30.492523968695096" fill="none" id="id35" stroke="none" /><text fill="#e1ed5e" style="font-size:6.75px; font-family:Arial;" text-anchor="middle"><textPath startOffset="21.46611528233685" xlink:href="#id35">November</textPath></text><path d="M 83.39014120810768 87.1503855733568 l -8.365106877981908 -6.471361338255106 a31.576082954020507,31.576082954020507 0 0,0 0.3362791477853788,-0.427040368005302 l 8.252473649602559 6.614394100213455" fill="#ff7a0b" stroke="none" /><path d="M 84.5562425177563 85.77008943001954 l -4.792349799931108 -4.415681167713853 a27.516506485825246,27.516506485825246 0 0,0 0.3239514089765664,-0.3455687762374099 l 4.715631068984085 4.497519360829313" fill="#ff4106" stroke="none" /><path d="M 88.09926311788651 82.69761687909137 l -2.480352824550525 -3.6061644980911014 a25.37682219441782,25.37682219441782 0 0,0 0.3620369904917865,-0.24444899207836024 l 2.4179111396521993 3.648325402468127" fill="#ff2303" stroke="none" /><path d="M 88.39885842347998 82.49532879139004 l -4.70755453732322 -7.103110829991404 a29.52145839542819,29.52145839542819 0 0,0 0.4259988257500967,-0.2770814861961154 l 4.584588685788836 7.183091240347054" fill="#ff5e08" stroke="none" /><path d="M 88.70189139769569 82.29822771554957 l -3.92283748679723 -6.1462655692677135 a28.291449402950512,28.291449402950512 0 0,0 0.4127599166044666,-0.2584702219110506 l 3.816458417820521 6.212880132501694" fill="#ff4c07" stroke="none" /><path d="M 89.00827224532344 82.1063720568725 l -3.734634629545773 -6.079677740942946 a28.13512279150959,28.13512279150959 0 0,0 0.4148429184702741,-0.24993821666924723 l 3.62942964485785 6.143062567070813" fill="#ff4a06" stroke="none" /><line stroke="#e1ed5e" stroke-width="0.3" x1="56.762969772571076" x2="54.21961505331055" y1="26.818313649435495" y2="22.513508569990535" /><path d="M 56.25429882871897 25.957352633546506 a86.0,86.0 0 0,1 42.265352541879196,-11.944610805530505" fill="none" id="id36" stroke="none" /><text fill="#e1ed5e" style="font-size:6.75px; font-family:Arial;" text-anchor="middle"><textPath startOffset="22.20632615414155" xlink:href="#id36">December</textPath></text><path d="M 90.58718382345135 81.22770947309562 l -3.2934955203072667 -6.568327012515378 a28.347790993599588,28.347790993599588 0 0,0 0.4380796521050539,-0.2149637827289088 l 3.179944601191787 6.624045955379117" fill="#ff4d07" stroke="none" /><path d="M 90.91171255644093 81.06846463323043 l -3.251143242406233 -6.772357681057698 a28.512307298215703,28.512307298215703 0 0,0 0.4442784854332081,-0.20859470603499083 l 3.1340865456734166 6.827317369732696" fill="#ff5007" stroke="none" /><path d="M 91.23893434514133 80.91482961587045 l -3.1129333575034854 -6.7812371077765725 a28.461603768637403,28.461603768637403 0 0,0 0.4470069457147647,-0.20055898660249893 l 2.9957442933219465 6.8338164248956" fill="#ff4f07" stroke="none" /><path d="M 91.56875222667455 80.76684994638697 l -2.936550088218174 -6.698784095200922 a28.314166717728753,28.314166717728753 0 0,0 0.4480598802349686,-0.19183585742565792 l 2.820806450192897 6.748339480589366" fill="#ff4d07" stroke="none" /><path d="M 92.57280143429618 80.3572730644239 l -2.449120971108087 -6.477195141895389 a27.924756344978114,27.924756344978114 0 0,0 0.4510748047957695,-0.16613465738315383 l 2.337263840539748 6.518393067084865" fill="#ff4706" stroke="none" /><path d="M 92.91201910852362 80.23233633223022 l -4.460174632472721 -12.438977105633079 a34.21443563632655,34.21443563632655 0 0,0 0.556095362071271,-0.19401075260800507 l 4.2453972663381645 12.513908711413293" fill="#ff9e0e" stroke="none" /><path d="M 94.28887869178378 79.79150937346287 l -2.2214045931013615 -7.860318749113803 a29.168185184232897,29.168185184232897 0 0,0 0.48433370196454073,-0.13238669655849625 l 2.0857730019130982 7.8973919864985955" fill="#ff5908" stroke="none" /><path d="M 94.98787191387505 79.60689891045804 l -2.7582067059866655 -11.222456253013718 a32.55643667328976,32.55643667328976 0 0,0 0.5453611075508389,-0.12906935424658267 l 2.5646219114732927 11.268271519401171" fill="#ff880c" stroke="none" /><path d="M 95.33964822691252 79.52364482259891 l -2.227173978757163 -9.785614402383255 a31.035863349198394,31.035863349198394 0 0,0 0.5219305216164993,-0.11407379645234647 l 2.0584007329871428 9.82250169693147" fill="#ff730a" stroke="none" /><path d="M 96.75951476605007 79.25152402106235 l -1.104069084088191 -7.06923476468634 a28.15493177470542,28.15493177470542 0 0,0 0.4794798550737968,-0.07066286679040834 l 0.9822202485857454 7.087192115637717" fill="#ff4b06" stroke="none" /><path d="M 97.83486435360386 79.11191278185805 l -1.4879035907809595 -14.354509394434865 a35.43141701463781,35.43141701463781 0 0,0 0.6071846045312199,-0.057659494453848305 l 1.2405938591595032 14.377994433403893" fill="#ffae10" stroke="none" /><path d="M 98.19473922651362 79.07773832637324 l -1.2525723779135476 -14.516820750086422 a35.57075915153537,35.57075915153537 0 0,0 0.6104785985734705,-0.04738488862007434 l 1.002503589977743 14.536230900894958" fill="#ffb010" stroke="none" /><path d="M 98.55514903715128 79.0497635885617 l -0.6433303968583589 -9.328245093371798 a30.350402693014722,30.350402693014722 0 0,0 0.5215036726018962,-0.03145852569609877 l 0.48266467541683966 9.337936888448203" fill="#ff6909" stroke="none" /></svg>