<?xml version="1.0" encoding="utf-8" ?>
<svg baseProfile="full" height="200mm" version="1.1" viewBox="0,0,200,200" width="200mm" xmlns="http://www.w3.org/2000/svg" xmlns:ev="http://www.w3.org/2001/xml-events" xmlns:xlink="http://www.w3.org/1999/xlink"><defs /><rect fill="#1a1a1a" height="200" width="200" x="0" y="0" /><text alignment-baseline="middle" fill="#e1ed5e" style="dominant-baseline: central; font-size:9.0px; font-family:Arial;" text-anchor="middle" x="100.0" y="100.0">2016</text><line stroke="#e1ed5e" stroke-width="0.3" x1="100.0" x2="100.0" y1="15.0" y2="10.0" /><path d="M 100.0 14.0 a86.0,86.0 0 0,1 42.35913384403234,11.155469271406648" fill="none" id="id13" stroke="none" /><text fill="#e1ed5e" style="font-size:6.75px; font-family:Arial;" text-anchor="middle"><textPath startOffset="22.145653131862478" xlink:href="#id13">January</textPath></text><path d="M 105.69591212413111 79.78721728523813 l 2.8951914185187277 -10.274012973662092 a31.6741498927475,31.6741498927475 0 0,0 0.5220804691285155,0.15197001568102853 l -3.0711319000288477 10.222799263678548" fill="#ff5e08" stroke="none" /><line stroke="#e1ed5e" stroke-width="0.3" x1="143.13028292997686" x2="145.6673583964461" y1="26.7553504044142" y2="22.446841604673864" /><path d="M 143.63769802327073 25.89364864446614 a86.0,86.0 0 0,1 29.32050498858742,28.57503671076993" fill="none" id="id14" stroke="none" /><text fill="#e1ed5e" style="font-size:6.75px; font-family:Arial;" text-anchor="middle"><textPath startOffset="20.669276256404974" xlink:href="#id14">February</textPath></text><path d="M 113.59037401385872 83.9905735841838 l 9.613473906034772 -11.32464808857266 a35.85484886735721,35.85484886735721 0 0,0 0.46580659623887694,0.40235264358016265 l -9.80645998203651 11.157951312527778" fill="#ff990e" stroke="none" /><path d="M 114.91283532996326 85.21462403516908 l 5.846594397941391 -5.796623805920531 a29.233074371181416,29.233074371181416 0 0,0 0.35025844546329415,0.35939602113024305 l -5.945239644555497 5.695405092722546" fill="#ff3a05" stroke="none" /><path d="M 115.16444852881244 85.47280134310134 l 11.728728097657447 -11.235856202992572 a37.24215279459918,37.24215279459918 0 0,0 0.4382943239184776,0.465453383380693 l -11.919878255312184 11.032861359667384" fill="#ffac10" stroke="none" /><path d="M 115.6541949942343 86.00192230759917 l 8.489029179798592 -7.590942238527465 a32.38797701455936,32.38797701455936 0 0,0 0.3670466757251723,0.41763173914631296 l -8.618086919482355 7.444098221569854" fill="#ff6809" stroke="none" /><path d="M 116.1254893667686 86.54754324733833 l 16.739678154093106 -13.964834883428964 a42.799849495445066,42.799849495445066 0 0,0 0.46581151134723764,0.5682143039513283 l -16.976936484678973 13.67541829777914" fill="#fff717" stroke="none" /><path d="M 116.57777611688842 87.10902102172516 l 12.442072388279147 -9.675030744327916 a36.761071829633565,36.761071829633565 0 0,0 0.38309942286912396,0.5014894421923697 l -12.606323788502577 9.460020388894664" fill="#ffa60f" stroke="none" /><path d="M 116.7966241395341 87.39550010848427 l 8.896840136814847 -6.676354701262371 a32.12328532930392,32.12328532930392 0 0,0 0.32719551696526794,0.4439035584818908 l -9.010137673363941 6.522644833511605" fill="#ff6409" stroke="none" /><path d="M 117.01052211995028 87.68569379921539 l 16.441564674561143 -11.902424887069913 a41.29760496068731,41.29760496068731 0 0,0 0.41078314967437035,0.5778179438002138 l -16.643462922765476 11.618429716560193" fill="#ffe315" stroke="none" /><path d="M 117.62189284568427 88.57770195909679 l 26.887405238697305 -17.42809123130936 a53.04170601632768,53.04170601632768 0 0,0 0.4886967485780953,0.7683124591371855 l -27.18261967890129 16.963965097493503" fill="#8aff24" stroke="none" /><line stroke="#e1ed5e" stroke-width="0.3" x1="172.87174338648825" x2="177.1583165268699" y1="56.24261187166439" y2="53.66864786411523" /><path d="M 173.72905801456457 55.72781907015455 a86.0,86.0 0 0,1 12.242430191666344,42.057860355516425" fill="none" id="id15" stroke="none" /><text fill="#e1ed5e" style="font-size:6.75px; font-family:Arial;" text-anchor="middle"><textPath startOffset="22.145653131862474" xlink:href="#id15">March</textPath></text><path d="M 118.18653347947321 89.5 l 4.703661450006449 -2.7156602043380897 a26.43132040867618,26.43132040867618 0 0,0 0.22349145823859326,0.3948879921696744 l -4.749586273266419 2.6345154420692976" fill="#ff0f01" stroke="none" /><path d="M 119.0197475246899 91.09779779509293 l 10.342454057637699 -4.840790720094145 a32.41926489447093,32.41926489447093 0 0,0 0.23159016057856674,0.5060662962337273 l -10.424028683071318 4.662535441645734" fill="#ff6809" stroke="none" /><path d="M 119.4528033332814 92.08871423366111 l 7.467402254866452 -3.036927488460169 a29.061328985108446,29.061328985108446 0 0,0 0.18397388488217575,0.46373437053960814 l -7.518434814714753 2.908292100706996" fill="#ff3705" stroke="none" /><path d="M 119.58574465831526 92.42381321644754 l 10.551296946268147 -4.0814683264910006 a32.313189247443745,32.313189247443745 0 0,0 0.1956783895415234,0.519060176250088 l -10.61980601962411 3.899739870046755" fill="#ff6709" stroke="none" /><path d="M 119.71291397450082 92.76114493625339 l 20.190575091605226 -7.414258842243217 a42.5088483352673,42.5088483352673 0 0,0 0.24566031455218315,0.6871556216346908 l -20.314875576201352 7.06656826422761" fill="#fff316" stroke="none" /><path d="M 119.83427380445688 93.10060997987247 l 19.433927927292615 -6.760128942220772 a41.576124464987444,41.576124464987444 0 0,0 0.22869754715370985,0.6761036612689073 l -19.54711089601869 6.425523606477704" fill="#ffe715" stroke="none" /><path d="M 120.05942366710727 93.78553927170692 l 7.967599431847713 -2.4683826708929675 a29.34119618018571,29.34119618018571 0 0,0 0.14492270682401784,0.48240055746122046 l -8.008798458675358 2.3312445098410235" fill="#ff3b05" stroke="none" /><path d="M 120.26092885502905 94.47779374421319 l 10.769284270585151 -2.935216316827966 a32.16212249203734,32.16212249203734 0 0,0 0.14061053163884812,0.5339210914987775 l -10.81808428302873 2.74991472095639" fill="#ff6509" stroke="none" /><path d="M 120.51834098615036 95.52812308129327 l 60.91962808095011 -13.27714939990923 a83.34968950771764,83.34968950771764 0 0,0 0.2926855669703502,1.4006063913210998 l -61.138571358744834 12.229426557302727" fill="#4cd8ff" stroke="none" /><line stroke="#e1ed5e" stroke-width="0.3" x1="184.99686870605535" x2="189.99668451229388" y1="99.2704041080226" y2="99.22748670261217" /><path d="M 185.99683186730306 99.26182062694052 a86.0,86.0 0 0,1 -10.086455211305974,41.156179273409016" fill="none" id="id16" stroke="none" /><text fill="#e1ed5e" style="font-size:6.75px; font-family:Arial;" text-anchor="middle"><textPath startOffset="21.40746469413373" xlink:href="#id16">April</textPath></text><path d="M 120.96210409425399 101.26102812881392 l 9.14137954093575 0.5499226931347916 a30.15790559461405,30.15790559461405 0 0,0 -0.035523196379459235,0.5164994790874027 l -9.130592383391225 -0.7067655963765378" fill="#ff4706" stroke="none" /><path d="M 120.86939407059847 102.33845913500097 l 8.820641020409449 0.9883712244334146 a29.87584281565519,29.87584281565519 0 0,0 -0.06148436179651587,0.5091787167126357 l -8.80237457235327 -1.139643618069459" fill="#ff4306" stroke="none" /><path d="M 120.77682067341334 103.0534771498775 l 34.502017510098426 5.070608431759197 a55.872629412411186,55.872629412411186 0 0,0 -0.14760619571962472,0.9477376620602522 l -34.40988982224053 -5.6621342757509" fill="#6bff28" stroke="none" /><path d="M 120.16314734710363 105.8691983318838 l 4.3285023210262255 1.2599639413819779 a25.508152778767844,25.508152778767844 0 0,0 -0.12599045124397334,0.41938123601768246 l -4.306235549778623 -1.3340827809903837" fill="#ff0100" stroke="none" /><line stroke="#e1ed5e" stroke-width="0.3" x1="174.33088141563837" x2="178.70328620479359" y1="141.23008692659167" y2="143.65538615756765" /><path d="M 175.20536237346943 141.71514677278685 a86.0,86.0 0 0,1 -30.301960400862466,31.631185727798858" fill="none" id="id17" stroke="none" /><text fill="#e1ed5e" style="font-size:6.75px; font-family:Arial;" text-anchor="middle"><textPath startOffset="22.145653131862474" xlink:href="#id17">May</textPath></text><path d="M 117.423217284605 111.72311816256416 l 3.6860997411774736 2.480172411268895 a25.4428129030523,25.4428129030523 0 0,0 -0.24692887590141202,0.3602766094990214 l -3.642981128460741 -2.5430837558379604" fill="#ff0000" stroke="none" /><path d="M 115.16444852881244 114.52719865689866 l 3.6802466426498976 3.5255930331115204 a26.0964714838661,26.0964714838661 0 0,0 -0.31267698422534723,0.32083413115407666 l -3.619182857273743 -3.5882498563333343" fill="#ff0a01" stroke="none" /><path d="M 114.91283532996324 114.78537596483092 l 10.30954096658872 10.221425761308682 a35.51771950189546,35.51771950189546 0 0,0 -0.43299157957346474,0.4292908190796365 l -10.132557466885292 -10.396896590616981" fill="#ff950d" stroke="none" /><line stroke="#e1ed5e" stroke-width="0.3" x1="143.1302829299769" x2="145.66735839644613" y1="173.24464959558577" y2="177.55315839532614" /><path d="M 143.63769802327073 174.10635135553383 a86.0,86.0 0 0,1 -40.68552437913181,11.842963189579606" fill="none" id="id18" stroke="none" /><text fill="#e1ed5e" style="font-size:6.75px; font-family:Arial;" text-anchor="middle"><textPath startOffset="21.407464694133747" xlink:href="#id18">June</textPath></text><path d="M 102.51750503828377 120.84855314841334 l 1.2779023274547772 10.58286445797332 a31.659739888681585,31.659739888681585 0 0,0 -0.5401213412748438,0.06052172287515435 l -1.096045084579134 -10.603241941355446" fill="#ff5d08" stroke="none" /><path d="M 101.80034050326958 120.92268563240118 l 0.6760348241211286 7.856549400490841 a28.88558124463742,28.88558124463742 0 0,0 -0.49439873825055347,0.03826958913674336 l -0.5410670910953392 -7.866996756622638" fill="#ff3405" stroke="none" /><path d="M 101.44090949804482 120.95050786540614 l 0.800978141264107 11.646046383442 a32.67355825565048,32.67355825565048 0 0,0 -0.5598935463916545,0.03368180541259751 l -0.6009402427399875 -11.658080166679289" fill="#ff6c0a" stroke="none" /><line stroke="#e1ed5e" stroke-width="0.3" x1="101.45913802915013" x2="101.54496967792366" y1="184.9874750549273" y2="189.98673829345242" /><path d="M 101.47630435890484 185.9873277026323 a86.0,86.0 0 0,1 -42.54439059252881,-10.42667462771756" fill="none" id="id19" stroke="none" /><text fill="#e1ed5e" style="font-size:6.75px; font-family:Arial;" text-anchor="middle"><textPath startOffset="22.145653131862474" xlink:href="#id19">July</textPath></text><path d="M 99.63950707515114 120.99690560180557 l -0.32595410432413685 18.985192460807944 a39.98799038476807,39.98799038476807 0 0,0 -0.6862447300827391,-0.017675229969285843 l 0.6518121484776199 -18.97679951348861" fill="#ffd213" stroke="none" /><path d="M 94.6519064749342 120.30758222061772 l -7.094972235084966 26.94076521693119 a48.85935141905561,48.85935141905561 0 0,0 -0.8092471981816828,-0.2205639224268605 l 7.5564008342013445 -26.815000800360185" fill="#bcff1f" stroke="none" /><path d="M 94.30408787586889 120.21278271476187 l -1.787670086672934 6.343810480241842 a27.590879740065922,27.590879740065922 0 0,0 -0.4547765129336664,-0.13237881493107628 l 1.8963066119882073 -6.31218797100825" fill="#ff2103" stroke="none" /><path d="M 89.97174638481275 118.45085714620012 l -3.813636824366028 7.016662217966051 a28.9860737856091,28.9860737856091 0 0,0 -0.43514420111663377,-0.24136715313948132 l 3.933525213638765 -6.950162149393422" fill="#ff3605" stroke="none" /><line stroke="#e1ed5e" stroke-width="0.3" x1="58.13341422392154" x2="55.67067388415222" y1="173.97424548756322" y2="178.32567169271397" /><path d="M 57.64086615596768 174.84453072859336 a86.0,86.0 0 0,1 -31.369924170532247,-30.572349798747897" fill="none" id="id20" stroke="none" /><text fill="#e1ed5e" style="font-size:6.75px; font-family:Arial;" text-anchor="middle"><textPath startOffset="22.145653131862474" xlink:href="#id20">August</textPath></text><path d="M 89.03521579738668 117.91015095944536 l -3.296410269578088 5.384438440506494 a27.313358692881618,27.313358692881618 0 0,0 -0.3977811834055489,-0.2482448782141827 l 3.3883555817733497 -5.327057765450763" fill="#ff1d02" stroke="none" /><path d="M 88.72937992617639 117.7192867562869 l -4.791991780481064 7.5338070075950565 a29.928685975656578,29.928685975656578 0 0,0 -0.43113607215734534,-0.27945719313414397 l 4.920613484895419 -7.450435972757018" fill="#ff4406" stroke="none" /><path d="M 88.4268655584334 117.5232005979908 l -3.479698655616337 5.2687072694776385 a27.314077844415973,27.314077844415973 0 0,0 -0.3890353366891503,-0.26176033661989906 l 3.5696302804024933 -5.2081972588006185" fill="#ff1d02" stroke="none" /><path d="M 87.2517909369889 116.68781488649013 l -8.861983458484222 11.600620820646592 a35.59825860309603,35.59825860309603 0 0,0 -0.4824243041306932,-0.37513605680934303 l 9.059817707250144 -11.446783712216456" fill="#ff960d" stroke="none" /><path d="M 85.60350026404147 115.28858382429668 l -7.769890694906116 8.251354660743571 a32.33384555868675,32.33384555868675 0 0,0 -0.400828077938465,-0.3839842315671043 l 7.910391258709896 -8.116758298870884" fill="#ff6709" stroke="none" /><path d="M 85.34317274990678 115.03919595460226 l -9.956514300117385 10.216260792956588 a35.26548848088084,35.26548848088084 0 0,0 -0.4299166662699633,-0.4262421869285002 l 10.13042288651731 -10.043838595799429" fill="#ff910d" stroke="none" /><path d="M 84.83555147118756 114.52719865689866 l -15.37853245333647 14.732286213818389 a42.29646725408199,42.29646725408199 0 0,0 -0.49777738740057004,-0.5286223354767637 l 15.629165674473294 -14.466122418397136" fill="#fff016" stroke="none" /><path d="M 84.1078160697243 113.72728997021213 l -9.611074647272565 8.301817370557943 a33.70011525654563,33.70011525654563 0 0,0 -0.3744009571328098,-0.4410433860846332 l 9.752170167912487 -8.135607202023756" fill="#ff7b0b" stroke="none" /><path d="M 83.64595745247003 113.17365903436017 l -11.298678518124188 9.10141562271395 a35.50847692189992,35.50847692189992 0 0,0 -0.37830658496278113,-0.4779780117993781 l 11.45325153372853 -8.906117666999894" fill="#ff940d" stroke="none" /><path d="M 83.4222238831116 112.89097897827486 l -17.804938348277908 13.84522775182773 a43.554515314809095,43.554515314809095 0 0,0 -0.45389616923514486,-0.5941646557915732 l 18.039986494867346 -13.537542182795287" fill="#feff18" stroke="none" /><line stroke="#e1ed5e" stroke-width="0.3" x1="26.387840678322732" x2="22.057713659400548" y1="142.50000000000003" y2="145.00000000000006" /><path d="M 25.521815274538298 143.00000000000003 a86.0,86.0 0 0,1 -11.493303480769221,-40.785679425670985" fill="none" id="id21" stroke="none" /><text fill="#e1ed5e" style="font-size:6.75px; font-family:Arial;" text-anchor="middle"><textPath startOffset="21.40746469413373" xlink:href="#id21">September</textPath></text><path d="M 81.81346652052679 110.50000000000001 l -6.33943788141363 3.6600761673450743 a28.320152334690142,28.320152334690142 0 0,0 -0.2394625786739469,-0.4231074316557423 l 6.4013338251089555 -3.5507119655902106" fill="#ff2c04" stroke="none" /><path d="M 81.63589988554817 110.18625677009913 l -9.725044346778828 5.394318164217171 a32.12093323438362,32.12093323438362 0 0,0 -0.2633222871902215,-0.4844833498226911 l 9.81621198358438 -5.226579980919893" fill="#ff6409" stroke="none" /><path d="M 81.29705330413844 109.54985784667822 l -17.863497945032794 9.121229333195899 a41.057452066026336,41.057452066026336 0 0,0 -0.3151258898717654,-0.6304628742084384 l 18.017443748116296 -8.813234602823709" fill="#ffe015" stroke="none" /><path d="M 80.9802524753101 108.90220220490708 l -6.855892402429109 3.2089038186381065 a28.569697771440772,28.569697771440772 0 0,0 -0.20409040476723805,-0.44597436687022546 l 6.909967272051403 -3.090740469553192" fill="#ff3004" stroke="none" /><path d="M 80.5471966667186 107.91128576633889 l -10.360952007687926 4.2137089826998775 a32.18501988806896,32.18501988806896 0 0,0 -0.20374853286483452,-0.5135794012120514 l 10.431759215518886 -4.035228564274261" fill="#ff6509" stroke="none" /><path d="M 80.41425534168474 107.57618678355246 l -28.150679742075596 10.889287669712566 a51.183395367232286,51.183395367232286 0 0,0 -0.30995035185268077,-0.822180132606262 l 28.33346077774271 -10.404439256912159" fill="#a0ff22" stroke="none" /><path d="M 80.16572619554312 106.89939002012753 l -7.0881025753402565 2.4656100168867217 a28.50469392273378,28.50469392273378 0 0,0 -0.1567956048425379,-0.4635383449638156 l 7.129383601755161 -2.3435699974487445" fill="#ff2f04" stroke="none" /><path d="M 79.94057633289273 106.21446072829308 l -8.33339169926594 2.581706050383248 a29.72414026388732,29.72414026388732 0 0,0 -0.146814152995175,-0.48869656660548577 l 8.376482172264744 -2.4382718801870387" fill="#ff4106" stroke="none" /><path d="M 79.73907114497094 105.5222062557868 l -4.980338329531389 1.3574133582946033 a26.16200938607013,26.16200938607013 0 0,0 -0.11437846023459798,-0.43431364365551295 l 5.00290627057072 -1.2717192102662878" fill="#ff0b01" stroke="none" /><path d="M 79.64726062577567 105.17358676015961 l -60.338899257587045 15.33791223784851 a83.25780525711761,83.25780525711761 0 0,0 -0.34021705742561914,-1.3882016936520416 l 60.59330384152896 -14.299854719588367" fill="#4cd9ff" stroke="none" /><path d="M 79.48165901384964 104.47187691870673 l -6.437310510454611 1.4029818643564311 a27.588423538277002,27.588423538277002 0 0,0 -0.09687778602187944,-0.46359527626801617 l 6.460446007300858 -1.292270136803006" fill="#ff2103" stroke="none" /><path d="M 79.22317932658666 103.0534771498775 l -8.885555636634225 1.3058706876719852 a29.981002016737506,29.981002016737506 0 0,0 -0.07046318327120131,-0.5098364929549417 l 8.906663336460639 -1.153145886516958" fill="#ff4506" stroke="none" /><path d="M 79.0935383218832 101.97986365728391 l -11.126001324890368 1.0536438931270806 a32.1757805514866,32.1757805514866 0 0,0 -0.04735413398661613,-0.5503268170644525 l 11.142449081574725 -0.8624960286869662" fill="#ff6509" stroke="none" /><path d="M 79.06263194458094 101.62068470465958 l -14.286302809445194 1.105850190344735 a35.32903878865038,35.32903878865038 0 0,0 -0.04161430835604488,-0.6050629104116372 l 14.303181078966306 -0.8604438557787545" fill="#ff920d" stroke="none" /><line stroke="#e1ed5e" stroke-width="0.3" x1="15.003131293944662" x2="10.003315487706104" y1="100.72959589197737" y2="100.7725132973878" /><path d="M 14.003168132696942 100.73817937305945 a86.0,86.0 0 0,1 10.791469493833604,-42.45332614584628" fill="none" id="id22" stroke="none" /><text fill="#e1ed5e" style="font-size:6.75px; font-family:Arial;" text-anchor="middle"><textPath startOffset="22.145653131862435" xlink:href="#id22">October</textPath></text><path d="M 79.00696218219943 99.45929381324524 l -8.15926518593915 -0.21015372828363027 a29.1619711445208,29.1619711445208 0 0,0 0.01718516765248856,-0.5003274055396287 l 8.15445533128981 0.3501873983873975" fill="#ff3905" stroke="none" /><path d="M 79.03789590574601 98.7389718711861 l -5.63232700790837 -0.3388268064939934 a26.64250929363993,26.64250929363993 0 0,0 0.031382387835601294,-0.4562930316422434 l 5.625680658907704 0.4354632622905617" fill="#ff1202" stroke="none" /><path d="M 79.17382384314186 97.30363454192245 l -10.92789316367106 -1.4148345540802212 a32.01910186049789,32.01910186049789 0 0,0 0.07525325008537698,-0.5444950302531802 l 10.901995397030475 1.6022178925334685" fill="#ff6309" stroke="none" /><path d="M 79.22317932658666 96.9465228501225 l -10.980671689660285 -1.6137805981831166 a32.09862327386506,32.09862327386506 0 0,0 0.08479922493571007,-0.5444718549467117 l 10.951350972586308 1.802040635061278" fill="#ff6409" stroke="none" /><path d="M 79.2786578344484 96.59031103205396 l -7.720029648258483 -1.2703279408051107 a28.823847573104945,28.823847573104945 0 0,0 0.08452961492217556,-0.487544356000083 l 7.697085215844073 1.4026653297257863" fill="#ff3404" stroke="none" /><path d="M 79.407916724674 95.88100663000787 l -8.019134272741182 -1.6040514435018804 a29.177988476248466,29.177988476248466 0 0,0 0.10245960303708605,-0.4903062913262856 l 7.990416958879728 1.741474186113575" fill="#ff3905" stroke="none" /><path d="M 79.56144815229197 95.17655741523228 l -6.779669912019556 -1.5999836391525275 a27.965907820341798,27.965907820341798 0 0,0 0.1142773201562252,-0.4662904634685225 l 6.751205065347032 1.7161299272291677" fill="#ff2703" stroke="none" /><path d="M 79.64726062577567 94.8264132398404 l -61.05821812267299 -15.520760280478791 a84.0,84.0 0 0,0 0.36724207678109755,-1.3944779825088616 l 60.782786565087164 16.56661876736044" fill="#4dd2ff" stroke="none" /><line stroke="#e1ed5e" stroke-width="0.3" x1="26.387840678322718" x2="22.05771365940052" y1="57.49999999999999" y2="54.99999999999999" /><path d="M 25.521815274538284 56.99999999999999 a86.0,86.0 0 0,1 29.574782752854787,-30.34633250058573" fill="none" id="id23" stroke="none" /><text fill="#e1ed5e" style="font-size:6.75px; font-family:Arial;" text-anchor="middle"><textPath startOffset="21.40746469413373" xlink:href="#id23">November</textPath></text><path d="M 82.18462484594161 88.88188828441811 l -4.894798579462616 -3.0547163313223678 a26.769778591796815,26.769778591796815 0 0,0 0.24664183602879436,-0.38776193235734424 l 4.841639051807932 3.138291938358384" fill="#ff1402" stroke="none" /><path d="M 82.37810715431573 88.57770195909679 l -7.013077334031401 -4.545791998322587 a29.357480396932957,29.357480396932957 0 0,0 0.27774351855877877,-0.420539086888762 l 6.934009376551893 4.66551096355041" fill="#ff3b05" stroke="none" /><path d="M 82.78059297857968 87.97951657250589 l -11.117633488630261 -7.760971613992934 a34.55855651537866,34.55855651537866 0 0,0 0.34375050822196457,-0.4835281388697302 l 10.982767881878324 7.950676979572185" fill="#ff870c" stroke="none" /><path d="M 83.64595745247003 86.82634096563983 l -6.679395022333243 -5.380447820426547 a29.576918829783974,29.576918829783974 0 0,0 0.32189994646038034,-0.3926655944825073 l 6.586048256634233 5.494315696607547" fill="#ff3f05" stroke="none" /><path d="M 83.8745106332314 86.54754324733833 l -6.6953138394796685 -5.585468931982328 a29.71921387507313,29.71921387507313 0 0,0 0.3301740078737788,-0.38894415106457747 l 6.598445268098775 5.699579865496463" fill="#ff4106" stroke="none" /><path d="M 86.13680546590413 84.22622945171909 l -5.5694733975490545 -6.337038352280669 a29.436651527963136,29.436651527963136 0 0,0 0.38242488494755433,-0.33032950729315014 l 5.459869032838651 6.43171199203853" fill="#ff3d05" stroke="none" /><path d="M 86.40962598614128 83.9905735841838 l -5.315729043210155 -6.26191544669101 a29.21392478187714,29.21392478187714 0 0,0 0.38510305616604984,-0.32126666611853616 l 5.207451652882196 6.352244296721428" fill="#ff3905" stroke="none" /><path d="M 86.68645165197937 83.75963576809568 l -5.340521318647419 -6.514567652130002 a29.423820964924776,29.423820964924776 0 0,0 0.39336738424322887,-0.3168689197302523 l 5.227903164048945 6.605284865653654" fill="#ff3c05" stroke="none" /><path d="M 87.25179093698888 83.31218511350988 l -4.834200731974017 -6.328123938082221 a28.963331544821386,28.963331544821386 0 0,0 0.39769000391124615,-0.29843399301636664 l 4.724857739152018 6.410176958362589" fill="#ff3605" stroke="none" /><path d="M 87.54013794807813 83.09580414077388 l -5.080262497281895 -6.892351770225907 a29.56233495991748,29.56233495991748 0 0,0 0.4110839612372109,-0.29759308604462875 l 4.961197525670716 6.978545627643615" fill="#ff3f05" stroke="none" /><path d="M 87.83215693770416 82.88440491214696 l -4.4809512063594426 -6.303019036638041 a28.73349679575777,28.73349679575777 0 0,0 0.40446489050327994,-0.28234790589768555 l 4.372091224682397 6.379011758340853" fill="#ff3204" stroke="none" /><path d="M 88.4268655584334 82.4767994020092 l -4.5310550766503335 -6.860594891520209 a29.22181381285127,29.22181381285127 0 0,0 0.42095326332845745,-0.27285681947646334 l 4.41261618106485 6.9373655527005775" fill="#ff3905" stroke="none" /><path d="M 89.03521579738668 82.08984904055464 l -5.603611629481304 -9.153078468994748 a31.732162352183895,31.732162352183895 0 0,0 0.4670177117457828,-0.28043071739459013 l 5.445661161178087 9.247923186925261" fill="#ff5e08" stroke="none" /><line stroke="#e1ed5e" stroke-width="0.3" x1="56.869717070023135" x2="54.33264160355391" y1="26.7553504044142" y2="22.446841604673864" /><path d="M 56.362301976729285 25.89364864446614 a86.0,86.0 0 0,1 42.16139366436587,-11.88097634709845" fill="none" id="id24" stroke="none" /><text fill="#e1ed5e" style="font-size:6.75px; font-family:Arial;" text-anchor="middle"><textPath startOffset="22.145653131862474" xlink:href="#id24">December</textPath></text><path d="M 89.97174638481275 81.54914285379989 l -9.84614656319601 -18.11580068168095 a41.61865263498875,41.61865263498875 0 0,0 0.6306438447784523,-0.3357823261887022 l 9.533713902630994 18.282153475592228" fill="#ffe715" stroke="none" /><path d="M 90.61103034731259 81.2157712731953 l -3.9595429406811196 -7.921738274025644 a29.856179626749928,29.856179626749928 0 0,0 0.4604103699197174,-0.22520978338559106 l 3.822972321499349 7.98854180750845" fill="#ff4306" stroke="none" /><path d="M 90.93487009805054 81.0573650232925 l -3.8388847558323134 -8.021792675220269 a29.893041880750324,29.893041880750324 0 0,0 0.46478169289410615,-0.21754130047789766 l 3.7006143490666847 8.08651020726871" fill="#ff4306" stroke="none" /><path d="M 91.26138138417902 80.90454125486306 l -3.7145827102343505 -8.117033597307888 a29.92660961009257,29.92660961009257 0 0,0 0.46897362479303334,-0.2097659372662378 l 3.5746956825856984 8.17960328548397" fill="#ff4406" stroke="none" /><path d="M 92.93061703081487 80.22567764915836 l -2.6823249927179345 -7.502940396202266 a28.967997361666423,28.967997361666423 0 0,0 0.46968742366966476,-0.16338166727927822 l 2.553131797003265 7.54788049605013" fill="#ff3605" stroke="none" /><path d="M 93.27111125876988 80.10723608172694 l -2.846360964940955 -8.414760427649316 a29.88312804126297,29.88312804126297 0 0,0 0.487347232480627,-0.16020071526240898 l 2.7014909948125667 8.462382064313754" fill="#ff4306" stroke="none" /><path d="M 94.30408787586887 79.78721728523814 l -2.3975696407764517 -8.508128836330412 a29.839490736347315,29.839490736347315 0 0,0 0.4942252316542375,-0.13470328460934503 l 2.2511630081875365 8.548032615083896" fill="#ff4306" stroke="none" /><path d="M 94.6519064749342 79.69241777938228 l -2.8198223699281395 -10.707324835750361 a32.072407296348146,32.072407296348146 0 0,0 0.5336156829935145,-0.13564301992905617 l 2.635601393709247 10.75415308751468" fill="#ff6309" stroke="none" /><path d="M 95.00130118170881 79.60360301121753 l -2.3979977678698634 -9.784649211653862 a31.074212301208835,31.074212301208835 0 0,0 0.5191877116359078,-0.12252688627122774 l 2.22967790249405 9.824372241571323" fill="#ff5507" stroke="none" /><path d="M 95.35216902796891 79.52079915486377 l -1.959425037319042 -8.633588252610142 a29.85314591501126,29.85314591501126 0 0,0 0.5007333320676384,-0.10913249914366113 l 1.8109292886322852 8.665952209887518" fill="#ff4306" stroke="none" /><path d="M 95.70440661134978 79.44403061299748 l -1.8035758543408251 -8.6307633648297 a29.817196953797037,29.817196953797037 0 0,0 0.5019278054658242,-0.10039961840119706 l 1.6551515633440241 8.660452379893764" fill="#ff4206" stroke="none" /><path d="M 96.41257539226777 79.30868818359171 l -1.5216798220748118 -8.77664484305081 a29.907581275630328,29.907581275630328 0 0,0 0.506609499476685,-0.08336240035136507 l 1.370792819545054 8.801473241897844" fill="#ff4406" stroke="none" /><path d="M 96.76829788921471 79.25015418208739 l -1.3590685864014636 -8.726195254718622 a29.83139575865656,29.83139575865656 0 0,0 0.5066719015140088,-0.07446332131737994 l 1.2090715792797697 8.748239649334886" fill="#ff4306" stroke="none" /><path d="M 97.12497278360702 79.19773525538626 l -1.2162320125755839 -8.80004897769754 a29.883697558915948,29.883697558915948 0 0,0 0.5087659352962091,-0.06586993617297052 l 1.0649882553885808 8.819630510070905" fill="#ff4306" stroke="none" /><path d="M 97.84075906011542 79.11130261209362 l -0.9079300711289828 -8.78339983040866 a29.830200994025173,29.830200994025173 0 0,0 0.5098129600508751,-0.048279817367354275 l 0.7570175476930922 8.797691403281197" fill="#ff4306" stroke="none" /></svg>